<?xml version="1.0" standalone="no"?>
<!DOCTYPE svg PUBLIC "-//W3C//DTD SVG 1.1//EN" "http://www.w3.org/Graphics/SVG/1.1/DTD/svg11.dtd" >
<svg xmlns="http://www.w3.org/2000/svg" xmlns:xlink="http://www.w3.org/1999/xlink" version="1.1">
<metadata>
Created by FontForge 20170731 at Tue Oct 19 14:47:00 2021
 By Aleksey,,,
Copyright (c) 2017 by Good Type Foundry Kenneth Knutsen. All rights reserved.
</metadata>
<defs>
<font id="GTFAdieuTRIAL-Regular" horiz-adv-x="1617" >
  <font-face 
    font-family="GTF Adieu TRIAL"
    font-weight="400"
    font-stretch="normal"
    units-per-em="2048"
    panose-1="0 0 5 0 0 0 0 0 0 0"
    ascent="1638"
    descent="-410"
    x-height="1024"
    cap-height="1434"
    bbox="-49 -410 2497 1530"
    underline-thickness="102"
    underline-position="-307"
    unicode-range="U+0020-007A"
  />
<missing-glyph horiz-adv-x="1726" 
d="M864 -23q-203 0 -374.5 102t-269 272.5t-97.5 367.5t99.5 367t270.5 271t371 101q147 0 283.5 -58.5t236.5 -157.5t160 -236t60 -287q0 -152 -60 -290t-160.5 -236.5t-236.5 -157t-283 -58.5zM864 129q160 0 295.5 78.5t214 214.5t78.5 297t-78.5 296.5t-213.5 213.5
t-296 78t-297 -78t-214.5 -213.5t-78.5 -296.5t78.5 -297t214.5 -214.5t297 -78.5zM674 807q-57 0 -96 38t-39 93q0 54 39 91.5t96 37.5q54 0 92.5 -37.5t38.5 -91.5q0 -55 -38.5 -93t-92.5 -38zM1067 807q-55 0 -92 37.5t-37 93.5q0 54 37 91.5t92 37.5q56 0 94.5 -37.5
t38.5 -91.5q0 -55 -38.5 -93t-94.5 -38zM864 309q-192 0 -319 106t-127 279l131 19q3 -43 20 -81t51 -74t97 -57.5t147 -21.5q83 0 146 21.5t98 57t52.5 74.5t19.5 81l129 -19q0 -116 -61 -204.5t-161.5 -134.5t-222.5 -46z" />
    <glyph glyph-name=".notdef" horiz-adv-x="1726" 
d="M864 -23q-203 0 -374.5 102t-269 272.5t-97.5 367.5t99.5 367t270.5 271t371 101q147 0 283.5 -58.5t236.5 -157.5t160 -236t60 -287q0 -152 -60 -290t-160.5 -236.5t-236.5 -157t-283 -58.5zM864 129q160 0 295.5 78.5t214 214.5t78.5 297t-78.5 296.5t-213.5 213.5
t-296 78t-297 -78t-214.5 -213.5t-78.5 -296.5t78.5 -297t214.5 -214.5t297 -78.5zM674 807q-57 0 -96 38t-39 93q0 54 39 91.5t96 37.5q54 0 92.5 -37.5t38.5 -91.5q0 -55 -38.5 -93t-92.5 -38zM1067 807q-55 0 -92 37.5t-37 93.5q0 54 37 91.5t92 37.5q56 0 94.5 -37.5
t38.5 -91.5q0 -55 -38.5 -93t-94.5 -38zM864 309q-192 0 -319 106t-127 279l131 19q3 -43 20 -81t51 -74t97 -57.5t147 -21.5q83 0 146 21.5t98 57t52.5 74.5t19.5 81l129 -19q0 -116 -61 -204.5t-161.5 -134.5t-222.5 -46z" />
    <glyph glyph-name=".null" horiz-adv-x="0" 
 />
    <glyph glyph-name="nonmarkingreturn" horiz-adv-x="682" 
 />
    <glyph glyph-name="space" unicode=" " horiz-adv-x="614" 
 />
    <glyph glyph-name="exclam" unicode="!" horiz-adv-x="573" 
d="M147 602l-20 832h322l-21 -832h-281zM281 -31q-71 0 -119.5 45t-48.5 115q0 68 48.5 113t119.5 45q73 0 121.5 -44.5t48.5 -113.5q0 -71 -47.5 -115.5t-122.5 -44.5z" />
    <glyph glyph-name="ampersand" unicode="&#x26;" horiz-adv-x="1869" 
d="M748 -25q-57 0 -114 4.5t-124.5 17.5t-126.5 33t-115.5 54.5t-96.5 78.5t-64.5 108t-24.5 141q0 178 149.5 295.5t374.5 115.5l-395 396v215h1280v-258h-864l706 -705q166 144 269 346l180 -203q-101 -187 -256 -329l289 -285h-381l-127 127q-266 -152 -559 -152z
M762 231q180 0 350 88l-389 388q-98 17 -187 -2t-144.5 -71.5t-55.5 -127.5q0 -275 426 -275z" />
    <glyph glyph-name="comma" unicode="," horiz-adv-x="507" 
d="M61 -346l129 553h256l-231 -553h-154z" />
    <glyph glyph-name="period" unicode="." horiz-adv-x="522" 
d="M260 -31q-71 0 -119.5 45t-48.5 115q0 68 48.5 113t119.5 45q73 0 121.5 -44.5t48.5 -113.5q0 -71 -47.5 -115.5t-122.5 -44.5z" />
    <glyph glyph-name="zero" unicode="0" horiz-adv-x="1992" 
d="M995 -33q-417 0 -661 205t-244 545t244 544.5t661 204.5q418 0 663 -204.5t245 -544.5t-245 -545t-663 -205zM995 213q284 0 450.5 134t166.5 370t-167 371t-450 135q-282 0 -448 -135t-166 -371t166 -370t448 -134z" />
    <glyph glyph-name="one" unicode="1" horiz-adv-x="1241" 
d="M770 0v1161l-688 -442v289l811 426h168v-1434h-291z" />
    <glyph glyph-name="two" unicode="2" horiz-adv-x="1740" 
d="M106 0v170q4 111 73.5 202t177.5 151.5t237.5 110.5t259 90t236 78.5t173 87.5t66.5 107q0 120 -116 171t-390 51q-196 0 -384.5 -39.5t-288.5 -87.5v256q115 53 312 84.5t417 31.5q380 0 566.5 -97t186.5 -314q0 -93 -37.5 -170t-102 -131.5t-148.5 -99t-179.5 -77.5
t-192 -62t-188.5 -56.5t-167.5 -56.5t-131 -68.5t-75.5 -85.5h1192v-246h-1496z" />
    <glyph glyph-name="three" unicode="3" horiz-adv-x="1701" 
d="M809 -33q-200 0 -403 32t-328 89v252q99 -54 308 -90.5t374 -36.5q303 0 447.5 41t144.5 127q0 81 -88.5 128.5t-292 71.5t-555.5 27v221q268 13 434.5 28t272.5 39.5t147 56.5t41 81q0 191 -553 191q-156 0 -366 -40t-314 -91v252q120 56 328 89t372 33q805 0 805 -393
q0 -349 -614 -352q140 0 256.5 -20.5t207 -62t141 -111t50.5 -160.5q0 -405 -815 -402z" />
    <glyph glyph-name="four" unicode="4" horiz-adv-x="1787" 
d="M1239 0v254h-1202v182l1028 998h465v-934h213v-246h-213v-254h-291zM442 500h797v770z" />
    <glyph glyph-name="five" unicode="5" horiz-adv-x="1673" 
d="M772 -33q-402 0 -663 125v270q278 -149 679 -149q234 0 366 63.5t132 180.5q0 118 -123.5 179.5t-357.5 61.5q-118 0 -278.5 -35.5t-280.5 -91.5l-146 131l109 732h1321v-244h-1100l-74 -359q85 42 246.5 70.5t329.5 28.5q145 0 262 -29t203 -87t133 -149.5t47 -211.5
q0 -229 -215 -357.5t-590 -128.5z" />
    <glyph glyph-name="six" unicode="6" horiz-adv-x="1769" 
d="M930 -25q-190 0 -343 47t-264.5 140t-172 240t-60.5 339q0 343 239 533t660 190q341 0 580 -118v-271q-132 73 -276 108.5t-326 35.5q-277 0 -431.5 -128.5t-154.5 -365.5q96 81 220 132t225.5 68t199.5 17q166 0 292.5 -36.5t204.5 -102.5t117 -153.5t39 -194.5
q0 -220 -198 -350t-551 -130zM911 221q221 0 348 65.5t127 184.5q0 124 -103.5 188t-307.5 64q-150 0 -315 -59t-248 -152q42 -136 173 -213.5t326 -77.5z" />
    <glyph glyph-name="seven" unicode="7" horiz-adv-x="1677" 
d="M287 0l950 1190h-1208v244h1611v-121l-976 -1313h-377z" />
    <glyph glyph-name="eight" unicode="8" horiz-adv-x="1742" 
d="M891 -41q-382 -2 -597.5 108t-215.5 308q0 94 61.5 164.5t163.5 110.5t238 55q-191 34 -306.5 127t-115.5 235q0 187 199.5 290t553.5 103q346 0 550 -103.5t204 -289.5q0 -142 -116.5 -235t-307.5 -127q136 -15 238.5 -55t164.5 -111t62 -164q0 -196 -208.5 -307
t-567.5 -109zM872 827q233 0 347 52.5t114 142.5q0 96 -125 147.5t-336 51.5q-212 0 -336 -51.5t-124 -147.5q0 -91 112 -143t348 -52zM872 199q239 0 370.5 51t131.5 145q0 90 -125.5 140.5t-376.5 50.5t-376 -50.5t-125 -140.5q0 -94 130 -145t371 -51z" />
    <glyph glyph-name="nine" unicode="9" horiz-adv-x="1769" 
d="M840 1462q190 0 343 -47t264.5 -140t171.5 -240t60 -339q0 -342 -239.5 -532.5t-659.5 -190.5q-338 0 -579 119v273q129 -74 273 -110t329 -36q277 0 431.5 128.5t154.5 365.5q-96 -81 -220.5 -132t-226 -68t-199.5 -17q-166 0 -292.5 36.5t-204.5 102.5t-117 153.5
t-39 194.5q0 220 198.5 349.5t551.5 129.5zM858 1219q-221 0 -348 -66t-127 -184q0 -252 412 -252q150 0 315 58t248 151q-42 136 -173.5 214.5t-326.5 78.5z" />
    <glyph glyph-name="question" unicode="?" horiz-adv-x="1527" 
d="M575 444q0 77 32.5 135t84 92t114 60.5t125 49t114 47.5t84 65t32.5 94q0 232 -403 232q-180 0 -291.5 -76.5t-110.5 -218.5h-305q1 113 45 206t115 154t165.5 103t193.5 60.5t202 18.5q139 0 258.5 -26.5t213.5 -78t148 -136t54 -193.5q0 -80 -25.5 -145.5t-67 -107
t-94.5 -76t-109 -55.5t-110 -44t-97 -43t-70.5 -50t-30.5 -67h-267zM705 -31q-71 0 -119.5 45t-48.5 115q0 68 48.5 113t119.5 45t120 -45t49 -113q0 -70 -47.5 -115t-121.5 -45z" />
    <glyph glyph-name="at" unicode="@" horiz-adv-x="2197" 
d="M1098 1485q226 0 415 -60.5t315.5 -164t196.5 -243t70 -296.5q0 -158 -82.5 -283t-253.5 -188h-393l45 285h-14q-81 -312 -475 -312q-314 0 -314 221q0 50 25.5 91.5t69.5 70t103.5 51t125 37t137 24.5t137.5 16.5t128 11.5q6 0 9.5 0.5t9 1t9.5 0.5q-1 100 -58.5 141
t-185.5 41q-93 0 -202 -27t-201 -67v192q110 41 236 66.5t235 25.5q216 0 316 -104t100 -291v-434q143 85 196 182t53 248q0 249 -205 400t-548 151t-547.5 -166t-204.5 -447t204.5 -446.5t547.5 -165.5q204 0 350 51v-223q-161 -41 -350 -41q-227 0 -414 59.5t-314.5 167
t-197.5 260.5t-70 338t70 338.5t197.5 261t314.5 167t414 59.5zM1018 391q88 0 163.5 25.5t125.5 80.5t51 130q-22 -2 -68 -5t-74.5 -5.5t-73 -7t-74 -9.5t-65.5 -12.5t-59 -17t-44.5 -22t-31.5 -29t-10 -36.5q0 -44 43.5 -68t116.5 -24z" />
    <glyph glyph-name="A" unicode="A" horiz-adv-x="2232" 
d="M68 0l872 1434h352l875 -1434h-336l-178 303h-1073l-177 -303h-335zM721 549h790l-393 682z" />
    <glyph glyph-name="B" unicode="B" horiz-adv-x="1896" 
d="M180 0v1434h1065q217 0 339 -105t122 -274q0 -154 -104.5 -234.5t-292.5 -91.5q206 -5 325 -94.5t119 -253.5q0 -172 -127 -276.5t-336 -104.5h-1110zM471 829h703q241 0 241 177q0 184 -241 184h-705zM473 248h746q241 0 241 192q0 187 -241 187h-748z" />
    <glyph glyph-name="C" unicode="C" horiz-adv-x="1912" 
d="M958 -33q-257 0 -453 93t-303.5 263.5t-107.5 393.5t107.5 393.5t303.5 263t453 92.5t453.5 -81.5t304 -231t107.5 -344.5h-295q-9 194 -164 304t-406 110q-261 0 -417 -135.5t-156 -370.5t156 -369.5t417 -134.5q166 0 292.5 48t199.5 141.5t78 222.5h295
q0 -195 -107.5 -345t-304.5 -231.5t-453 -81.5z" />
    <glyph glyph-name="D" unicode="D" horiz-adv-x="1779" 
d="M180 0v1434h674q394 0 615 -185t221 -532q0 -350 -221 -533.5t-615 -183.5h-674zM471 246h383q260 0 402.5 123t142.5 348q0 226 -143 349.5t-402 123.5h-383v-944z" />
    <glyph glyph-name="E" unicode="E" horiz-adv-x="1689" 
d="M180 0v1434h1352v-244h-1061v-348h1042v-228h-1042v-368h1061v-246h-1352z" />
    <glyph glyph-name="F" unicode="F" horiz-adv-x="1583" 
d="M180 0v1434h1305v-244h-1014v-348h995v-228h-995v-614h-291z" />
    <glyph glyph-name="G" unicode="G" horiz-adv-x="1976" 
d="M975 -33q-257 0 -453 93t-303.5 263.5t-107.5 393.5t107.5 393.5t303.5 263t453 92.5q244 0 433.5 -69t297.5 -196t115 -292h-293q-12 151 -156.5 232.5t-392.5 81.5q-264 0 -421 -135t-157 -371q0 -235 156.5 -369.5t417.5 -134.5q233 0 385.5 88.5t179.5 251.5h-780
v213h1083v-766h-221l-2 270q-93 -151 -264.5 -227t-380.5 -76z" />
    <glyph glyph-name="H" unicode="H" horiz-adv-x="1904" 
d="M180 0v1434h291v-570h965v570h290v-1434h-290v618h-965v-618h-291z" />
    <glyph glyph-name="I" unicode="I" horiz-adv-x="649" 
d="M180 0v1434h291v-1434h-291z" />
    <glyph glyph-name="J" unicode="J" horiz-adv-x="1699" 
d="M821 -33q-702 0 -702 727h293q0 -254 98 -367.5t311 -113.5q212 0 311 113.5t99 367.5v496h-922v244h1213v-740q0 -727 -701 -727z" />
    <glyph glyph-name="K" unicode="K" horiz-adv-x="1986" 
d="M180 0v1434h291v-797l942 797h416l-639 -541l688 -893h-375l-542 702l-490 -399v-303h-291z" />
    <glyph glyph-name="L" unicode="L" horiz-adv-x="1546" 
d="M180 0v1434h291v-1188h999v-246h-1290z" />
    <glyph glyph-name="M" unicode="M" horiz-adv-x="2164" 
d="M180 0v1434h299l604 -1008l605 1008h299v-1434h-291v971l-586 -971h-55l-584 965v-965h-291z" />
    <glyph glyph-name="N" unicode="N" horiz-adv-x="1988" 
d="M180 0v1434h264l1074 -1033v1033h290v-1434h-266l-1071 1032v-1032h-291z" />
    <glyph glyph-name="O" unicode="O" horiz-adv-x="1992" 
d="M995 -33q-417 0 -661 205t-244 545t244 544.5t661 204.5q418 0 663 -204.5t245 -544.5t-245 -545t-663 -205zM995 213q284 0 450.5 134t166.5 370t-167 371t-450 135q-282 0 -448 -135t-166 -371t166 -370t448 -134z" />
    <glyph glyph-name="P" unicode="P" horiz-adv-x="1798" 
d="M180 0v1434h1024q109 0 200.5 -35t152.5 -94.5t95 -139.5t34 -170q0 -141 -63.5 -241t-170.5 -147.5t-248 -47.5h-733v-559h-291zM469 799h684q127 0 184.5 46t57.5 150t-58 151.5t-184 47.5h-684v-395z" />
    <glyph glyph-name="Q" unicode="Q" horiz-adv-x="2033" 
d="M1980 197l-135 -211l-239 145q-243 -164 -611 -164q-417 0 -661 205t-244 545t244 544.5t661 204.5q418 0 663 -204.5t245 -544.5q0 -234 -119 -406zM995 213q210 0 355 74l-369 223l119 201l440 -258q72 113 72 264q0 236 -167 371t-450 135q-282 0 -448 -135t-166 -371
t166 -370t448 -134z" />
    <glyph glyph-name="R" unicode="R" horiz-adv-x="1927" 
d="M180 0v1434h1127q217 0 338.5 -105t121.5 -274q0 -170 -125 -265.5t-335 -95.5h-152q63 -4 117.5 -16.5t104 -36.5t91 -53t84 -75t78 -93.5t78.5 -118t80.5 -138t87.5 -163.5h-338q-169 303 -230 392q-90 132 -176 177q-74 39 -186 39h-477l2 -608h-291zM469 846h766
q242 0 242 166q0 95 -58 138.5t-184 43.5h-768z" />
    <glyph glyph-name="S" unicode="S" horiz-adv-x="1783" 
d="M891 -33q-242 0 -425 61.5t-281 173.5t-95 257h303q-1 -112 128 -179t347 -67q533 0 533 203q0 60 -43.5 97.5t-117 54t-168.5 24t-200.5 12.5t-211 13.5t-200.5 33t-168.5 65t-117 115.5t-43.5 179q0 144 95 247.5t262.5 156t390.5 52.5q352 0 567.5 -134t218.5 -357
h-305q1 114 -124.5 181t-338.5 67q-227 0 -350 -49t-123 -142q0 -57 43.5 -93t117 -52.5t168.5 -24.5t200.5 -14.5t211 -16.5t200.5 -36.5t168.5 -69t117 -118.5t43.5 -181q0 -144 -101.5 -248.5t-282 -157.5t-419.5 -53z" />
    <glyph glyph-name="T" unicode="T" horiz-adv-x="1818" 
d="M764 0v1190h-696v244h1685v-244h-698v-1190h-291z" />
    <glyph glyph-name="U" unicode="U" horiz-adv-x="1861" 
d="M932 -33q-146 0 -259 24t-207.5 80.5t-156.5 147t-95.5 227t-33.5 316.5v672h291v-734q0 -246 112.5 -364.5t348.5 -118.5q235 0 348 118.5t113 364.5v734h290v-672q0 -180 -33.5 -316.5t-95 -227t-156 -147t-207.5 -80.5t-259 -24z" />
    <glyph glyph-name="V" unicode="V" horiz-adv-x="2150" 
d="M1733 1434h352l-803 -1434h-414l-800 1434h350l657 -1223z" />
    <glyph glyph-name="W" unicode="W" horiz-adv-x="2592" 
d="M629 0l-531 1434h316l381 -1057l360 1057h285l358 -1057l383 1057h316l-531 -1434h-328l-340 1010l-344 -1010h-325z" />
    <glyph glyph-name="X" unicode="X" horiz-adv-x="1927" 
d="M104 0l664 721l-659 713h378l478 -516l479 516h379l-670 -725l651 -709h-372l-478 514l-475 -514h-375z" />
    <glyph glyph-name="Y" unicode="Y" horiz-adv-x="1914" 
d="M813 0v463l-762 971h357l550 -715l549 715h357l-760 -969v-465h-291z" />
    <glyph glyph-name="Z" unicode="Z" horiz-adv-x="1824" 
d="M88 0v178l1172 1012h-1156v244h1612v-174l-1163 -1014h1184v-246h-1649z" />
    <glyph glyph-name="a" unicode="a" horiz-adv-x="1390" 
d="M471 -33q-53 0 -99 5t-100 22t-92 45.5t-64 79.5t-26 119q0 53 21 97.5t70 78t93 59t127.5 45.5t133.5 32t150.5 24t139 16t136.5 12q30 3 45 4q-1 120 -71 169.5t-226 49.5q-113 0 -246 -32t-244 -80v233q135 49 288.5 80t283.5 31q505 0 505 -479v-578h-286l55 346h-18
q-96 -379 -576 -379zM588 172q106 0 197.5 31t153 98t62.5 158q-27 -2 -84 -6q-268 -20 -373 -49q-151 -41 -151 -121q0 -52 52.5 -81.5t142.5 -29.5z" />
    <glyph glyph-name="b" unicode="b" 
d="M952 -33q-191 0 -332 102.5t-178 264.5h-24l45 -334h-299v1434h291v-742h8q24 117 103.5 201t189.5 124t239 40q109 0 206.5 -39t170 -108t114.5 -170.5t42 -219.5q0 -248 -160.5 -400.5t-415.5 -152.5zM879 193q161 0 262.5 87.5t101.5 235.5q0 146 -101.5 232
t-262.5 86q-152 0 -259.5 -87.5t-107.5 -230.5q0 -146 107.5 -234.5t259.5 -88.5z" />
    <glyph glyph-name="c" unicode="c" horiz-adv-x="1318" 
d="M758 -33q-192 0 -344 67t-238 192t-86 286q0 247 183.5 396t486.5 149q135 0 238.5 -24t230.5 -81v-245q-117 65 -227 96t-250 31q-172 0 -274.5 -89t-102.5 -233q0 -143 108 -231t289 -88q148 0 253.5 28t203.5 90v-239q-133 -59 -229.5 -82t-241.5 -23z" />
    <glyph glyph-name="d" unicode="d" 
d="M666 -33q-254 0 -415 153t-161 400q0 118 42.5 219.5t115 170.5t170.5 108t207 39q129 0 238.5 -40t188.5 -124t103 -201h8v742h291v-1434h-299l45 334h-24q-37 -162 -178 -264.5t-332 -102.5zM739 193q99 0 182 38t135 113t52 172q0 143 -108.5 230.5t-260.5 87.5
q-161 0 -261.5 -86t-100.5 -232q0 -149 100.5 -236t261.5 -87z" />
    <glyph glyph-name="e" unicode="e" horiz-adv-x="1413" 
d="M707 -33q-278 0 -447.5 149.5t-169.5 395.5t169.5 395.5t447.5 149.5q275 0 443 -127.5t173 -337.5v-168h-944q26 -126 126.5 -181t303.5 -55q72 0 130 5.5t113 21.5t78.5 23.5t81.5 33.5t66 29v-233q-154 -59 -268.5 -80t-302.5 -21zM375 565l672 17q-4 115 -97.5 183.5
t-242.5 68.5q-137 0 -228.5 -73.5t-103.5 -195.5z" />
    <glyph glyph-name="f" unicode="f" horiz-adv-x="892" 
d="M225 0v813h-133v211h133v41q0 203 75 295t257 92q70 0 238 -33v-159q-13 0 -37 1t-33 1q-50 0 -83 -3.5t-57 -15.5t-37 -27t-20.5 -45t-9.5 -61.5t-2 -85.5h279v-205h-279v-819h-291z" />
    <glyph glyph-name="g" unicode="g" horiz-adv-x="1589" 
d="M788 -410q-163 0 -274 21.5t-250 69.5v251q74 -53 212 -85.5t290 -32.5q218 0 315 87.5t103 266.5l6 137q-45 -155 -183 -241.5t-321 -86.5q-256 0 -415.5 148t-159.5 395q0 157 72 281t193 190t267 66q129 0 239 -40t190 -124t104 -201h30l-26 332h276v-901
q0 -136 -48.5 -239t-138 -167t-210 -95.5t-271.5 -31.5zM760 193q98 0 180.5 38t134 113t51.5 172q0 143 -107 230.5t-259 87.5q-161 0 -263 -86.5t-102 -231.5q0 -148 102 -235.5t263 -87.5z" />
    <glyph glyph-name="h" unicode="h" horiz-adv-x="1452" 
d="M133 0v1434h320l-41 -832h16q34 214 157.5 334.5t346.5 120.5q148 -2 240 -62t139 -194.5t47 -356.5v-444h-291v410q0 231 -65.5 329.5t-215.5 98.5q-165 0 -263.5 -151t-98.5 -404v-283h-291z" />
    <glyph glyph-name="i" unicode="i" horiz-adv-x="593" 
d="M295 1200q-84 0 -131 41.5t-47 124.5q0 81 47 122.5t131 41.5q86 0 134 -41.5t48 -122.5q0 -83 -47.5 -124.5t-134.5 -41.5zM154 0v1024h290v-1024h-290z" />
    <glyph glyph-name="j" unicode="j" horiz-adv-x="604" 
d="M297 1200q-84 0 -131 41.5t-47 124.5q0 81 47 122.5t131 41.5q86 0 134 -41.5t48 -122.5q0 -83 -47.5 -124.5t-134.5 -41.5zM-49 -410v179q99 0 151 49t52 131v1075h290v-1044q0 -178 -140.5 -284t-352.5 -106z" />
    <glyph glyph-name="k" unicode="k" horiz-adv-x="1495" 
d="M133 0v1434h291v-887l551 477h416l-414 -336l430 -688h-356l-293 508l-334 -268v-240h-291z" />
    <glyph glyph-name="l" unicode="l" horiz-adv-x="618" 
d="M164 0v1434h291v-1434h-291z" />
    <glyph glyph-name="m" unicode="m" horiz-adv-x="2385" 
d="M133 0v1024h320l-41 -422h16q34 214 157.5 334.5t346.5 120.5q193 -3 293.5 -108.5t124.5 -346.5h12q34 214 157.5 334.5t346.5 120.5q148 -2 240 -62t139 -194.5t47 -356.5v-444h-291v410q0 232 -65.5 331.5t-215.5 96.5q-165 0 -263.5 -151t-98.5 -404v-283h-291v410
q0 232 -65.5 331.5t-215.5 96.5q-165 0 -263.5 -151t-98.5 -404v-283h-291z" />
    <glyph glyph-name="n" unicode="n" horiz-adv-x="1452" 
d="M133 0v1024h320l-41 -422h16q34 214 157.5 334.5t346.5 120.5q148 -2 240 -62t139 -194.5t47 -356.5v-444h-291v410q0 231 -65.5 329.5t-215.5 98.5q-165 0 -263.5 -151t-98.5 -404v-283h-291z" />
    <glyph glyph-name="o" unicode="o" horiz-adv-x="1464" 
d="M731 -33q-289 0 -465 149.5t-176 395.5t176 395.5t465 149.5q290 0 466.5 -149.5t176.5 -395.5t-176.5 -395.5t-466.5 -149.5zM731 193q167 0 270 88t103 231q0 145 -103 233.5t-270 88.5q-166 0 -268.5 -88.5t-102.5 -233.5q0 -143 102.5 -231t268.5 -88z" />
    <glyph glyph-name="p" unicode="p" 
d="M952 1057q255 0 415.5 -152.5t160.5 -400.5q0 -118 -42 -219.5t-114.5 -170.5t-170 -108t-206.5 -39q-129 0 -239 40t-189.5 124t-103.5 201h-8v-742h-291v1434h299l-45 -334h24q37 163 178 265t332 102zM879 834q-152 0 -259.5 -89.5t-107.5 -236.5q0 -95 51.5 -168
t134 -110t181.5 -37q161 0 262.5 85t101.5 230q0 150 -101.5 238t-262.5 88z" />
    <glyph glyph-name="q" unicode="q" 
d="M666 1057q191 0 332 -102t178 -265h24l-45 334h299v-1434h-291v742h-8q-24 -117 -103 -201t-188.5 -124t-238.5 -40q-109 0 -207 39t-170.5 108t-115 170.5t-42.5 219.5q0 247 161 400t415 153zM739 834q-161 0 -261.5 -88t-100.5 -238q0 -145 100.5 -230t261.5 -85
q99 0 182 37t135 110t52 168q0 147 -108 236.5t-261 89.5z" />
    <glyph glyph-name="r" unicode="r" horiz-adv-x="1093" 
d="M133 0v1024h320l-41 -381h20q40 223 174.5 318.5t419.5 95.5v-244q-321 0 -461.5 -110.5t-140.5 -358.5v-344h-291z" />
    <glyph glyph-name="s" unicode="s" horiz-adv-x="1406" 
d="M698 -33q-120 0 -271 22t-277 58v244q255 -98 503 -98q194 0 278.5 24.5t84.5 87.5q0 39 -50.5 60.5t-130.5 29.5t-177.5 14t-195 21.5t-177.5 44.5t-130.5 90.5t-50.5 151.5q0 167 162 253.5t441 86.5q94 0 237 -16t275 -42v-231q-276 59 -482 59q-180 0 -263 -26
t-83 -80q0 -34 39 -55t103 -28.5t145.5 -15.5t167 -14t167 -26.5t145.5 -50.5t103 -88t39 -138q0 -172 -160 -255t-442 -83z" />
    <glyph glyph-name="t" unicode="t" horiz-adv-x="886" 
d="M532 -20q-58 0 -101 6.5t-76 19t-55.5 35.5t-37.5 51.5t-23 71.5t-11 90.5t-3 114.5v444h-147v211h160v246l278 41v-287h295v-211h-295v-383q0 -56 0.5 -81t3.5 -61t10.5 -49t20 -31.5t33.5 -23.5t49 -9.5t69 -4.5q23 0 109 4v-154q-119 -40 -279 -40z" />
    <glyph glyph-name="u" unicode="u" horiz-adv-x="1454" 
d="M1319 1024v-1024h-320l41 422h-14q-36 -213 -159.5 -334t-344.5 -121q-223 3 -325.5 144.5t-102.5 468.5v444h291v-410q0 -229 66.5 -328.5t216.5 -99.5q165 0 262.5 151t97.5 404v283h291z" />
    <glyph glyph-name="v" unicode="v" 
d="M608 0l-540 1024h309l432 -819l432 819h311l-540 -1024h-404z" />
    <glyph glyph-name="w" unicode="w" horiz-adv-x="2203" 
d="M489 0l-438 1024h291l328 -776l311 776h223l330 -780l330 780h288l-438 -1024h-377l-241 590l-228 -590h-379z" />
    <glyph glyph-name="x" unicode="x" horiz-adv-x="1619" 
d="M53 0l555 514l-555 510h377l379 -348l383 348h375l-570 -522l545 -502h-375l-368 340l-373 -340h-373z" />
    <glyph glyph-name="y" unicode="y" horiz-adv-x="1581" 
d="M438 -410l230 412l-617 1022h322l430 -754l420 754h307l-787 -1434h-305z" />
    <glyph glyph-name="z" unicode="z" horiz-adv-x="1466" 
d="M61 0v123l832 682h-815v219h1327v-117l-827 -688h806v-219h-1323z" />
    <glyph glyph-name="GoodTypeFoundry" horiz-adv-x="1726" 
d="M864 -23q-203 0 -374.5 102t-269 272.5t-97.5 367.5t99.5 367t270.5 271t371 101q147 0 283.5 -58.5t236.5 -157.5t160 -236t60 -287q0 -152 -60 -290t-160.5 -236.5t-236.5 -157t-283 -58.5zM864 129q160 0 295.5 78.5t214 214.5t78.5 297t-78.5 296.5t-213.5 213.5
t-296 78t-297 -78t-214.5 -213.5t-78.5 -296.5t78.5 -297t214.5 -214.5t297 -78.5zM674 807q-57 0 -96 38t-39 93q0 54 39 91.5t96 37.5q54 0 92.5 -37.5t38.5 -91.5q0 -55 -38.5 -93t-92.5 -38zM1067 807q-55 0 -92 37.5t-37 93.5q0 54 37 91.5t92 37.5q56 0 94.5 -37.5
t38.5 -91.5q0 -55 -38.5 -93t-94.5 -38zM864 309q-192 0 -319 106t-127 279l131 19q3 -43 20 -81t51 -74t97 -57.5t147 -21.5q83 0 146 21.5t98 57t52.5 74.5t19.5 81l129 -19q0 -116 -61 -204.5t-161.5 -134.5t-222.5 -46z" />
    </font>
</defs>
</svg>
