<?xml version="1.0" encoding="utf-8"?>
<!-- Generator: Adobe Illustrator 25.4.1, SVG Export Plug-In . SVG Version: 6.00 Build 0)  -->
<svg version="1.1" id="Layer_1" xmlns="http://www.w3.org/2000/svg" xmlns:xlink="http://www.w3.org/1999/xlink" x="0px" y="0px"
	 viewBox="0 0 247.79 329.36" style="enable-background:new 0 0 247.79 329.36;" xml:space="preserve">
<style type="text/css">
	.st0{clip-path:url(#SVGID_00000180357877601914861440000014520239970695347634_);}
	.st1{fill:#AE163F;}
</style>
<g>
	<defs>
		<rect id="SVGID_1_" x="-88.02" y="-71.67" width="335.82" height="486.61"/>
	</defs>
	<clipPath id="SVGID_00000155121313778673164930000013838801542133481402_">
		<use xlink:href="#SVGID_1_"  style="overflow:visible;"/>
	</clipPath>
	<g style="clip-path:url(#SVGID_00000155121313778673164930000013838801542133481402_);">
		<path class="st1" d="M394.52,103.41c-0.07,0.01-0.14-0.01-0.19-0.06c-0.11-0.09-0.12-0.25-0.03-0.36
			c0.15-0.18,15.26-18.19,20-26.72c4.75-8.55,15.55-26.12,15.66-26.29c0.07-0.12,0.23-0.16,0.35-0.09c0.12,0.07,0.16,0.23,0.09,0.35
			c-0.11,0.18-10.9,17.73-15.65,26.27c-4.76,8.57-19.9,26.62-20.05,26.8C394.64,103.37,394.58,103.4,394.52,103.41z"/>
		<path class="st1" d="M331.62,51.36l-0.46-0.22l6.06-12.6c2.1-4.36,8.95-13.37,9.02-13.46c0.09-0.11,0.25-0.13,0.36-0.05
			c0.11,0.09,0.13,0.25,0.05,0.36c-0.07,0.09-6.89,9.05-8.97,13.37L331.62,51.36z"/>
		<path class="st1" d="M491.11,243.39c-0.07,0.01-0.13-0.01-0.19-0.06c-0.14-0.12-14.65-11.74-28.27-16.44
			c-6.67-2.3-14.22-3.96-22.22-5.71c-3.98-0.87-8.1-1.77-12.28-2.8c-0.14-0.03-0.22-0.17-0.19-0.31c0.03-0.14,0.17-0.22,0.31-0.19
			c4.18,1.02,8.29,1.92,12.27,2.79c8.01,1.76,15.58,3.41,22.28,5.73c13.71,4.73,28.28,16.41,28.42,16.52
			c0.11,0.09,0.13,0.25,0.04,0.36C491.24,243.35,491.18,243.38,491.11,243.39z"/>
		<path class="st1" d="M225.1,238.6c-0.1,0.01-0.2-0.04-0.25-0.13c-0.17-0.31-17.24-31.48-31.99-52.04
			c-6.03-8.4-12.68-22.27-13.03-32.86c-0.36-10.71,7.19-22.38,7.27-22.49c0.08-0.12,0.24-0.15,0.36-0.07
			c0.12,0.08,0.15,0.24,0.07,0.36c-0.07,0.12-7.54,11.65-7.19,22.19c0.25,7.35,4.4,20.68,12.94,32.58
			c14.77,20.59,31.85,51.78,32.02,52.09c0.07,0.12,0.02,0.28-0.1,0.35C225.16,238.59,225.13,238.6,225.1,238.6z"/>
		<path class="st1" d="M225.1,238.6c-0.12,0.01-0.23-0.06-0.27-0.17c-0.16-0.46-16.52-46.67-29.59-71.98
			c-9.05-17.54,2.06-34.78,2.17-34.96c0.08-0.12,0.24-0.15,0.36-0.07c0.12,0.08,0.15,0.24,0.07,0.36
			c-0.11,0.17-11.06,17.17-2.14,34.44c13.08,25.35,29.45,71.59,29.61,72.05c0.05,0.13-0.02,0.28-0.16,0.33
			C225.14,238.59,225.12,238.6,225.1,238.6z"/>
		<path class="st1" d="M225.1,238.6c-0.11,0.01-0.22-0.05-0.26-0.15c-0.06-0.13,0-0.28,0.14-0.34c0.15-0.06,15.16-6.56,23.89-13.97
			c9.36-7.95,27.31-26.82,35.23-47.15c7.99-20.51,6.65-33.64,6.64-33.77c-0.02-0.14,0.09-0.27,0.23-0.29c0,0,0,0,0,0
			c0.14-0.02,0.27,0.09,0.28,0.23c0.01,0.13,1.37,13.38-6.67,34.02c-7.96,20.42-25.99,39.37-35.38,47.35
			c-8.79,7.46-23.87,13.98-24.02,14.05C225.15,238.59,225.12,238.6,225.1,238.6z"/>
		<path class="st1" d="M225.1,238.6c-0.09,0.01-0.17-0.03-0.23-0.1c-0.09-0.11-0.07-0.27,0.04-0.36
			c0.22-0.17,21.71-17.01,31.59-28.84c9.87-11.82,21.74-33.21,25.36-43.74c3.44-10.01,1.5-28.41,1.48-28.6
			c-0.02-0.14,0.09-0.27,0.23-0.28l0,0c0.14-0.02,0.27,0.09,0.28,0.23c0.02,0.19,1.97,18.71-1.51,28.82
			c-3.64,10.56-15.55,32.04-25.45,43.9c-9.92,11.87-31.45,28.75-31.67,28.92C225.19,238.58,225.15,238.59,225.1,238.6z"/>
		<path class="st1" d="M225.28,238.5l-0.42-0.31l20.62-27.97c5.93-8.04,20.31-28.85,25.86-48.39c4.66-16.41,0.77-25.04,0.73-25.13
			c-0.06-0.13,0-0.28,0.12-0.34c0.13-0.06,0.28,0,0.34,0.12c0.04,0.09,4.02,8.87-0.7,25.49c-5.57,19.62-20,40.49-25.94,48.55
			L225.28,238.5z"/>
		<path class="st1" d="M225.1,238.6c-0.05,0.01-0.1,0-0.14-0.02c-0.13-0.06-0.18-0.22-0.12-0.34c0.13-0.27,13.1-27.08,19.41-38.48
			c6.54-11.83,9.29-19.39,12.07-29.22c3.14-11.11,4-26.16,4.01-26.31c0.01-0.14,0.13-0.25,0.27-0.24c0.14,0.01,0.25,0.13,0.24,0.27
			c-0.01,0.15-0.87,15.26-4.02,26.43c-2.79,9.86-5.55,17.46-12.11,29.33c-6.3,11.39-19.26,38.18-19.39,38.45
			C225.26,238.54,225.18,238.59,225.1,238.6z"/>
		<path class="st1" d="M293.68,166.11c-0.1,0.01-0.2-0.04-0.25-0.13c-0.07-0.12-0.03-0.28,0.1-0.35c0.06-0.03,6.14-3.57,15.79-16.94
			c9.69-13.41,20.16-34.82,20.26-35.03c0.06-0.13,0.21-0.19,0.34-0.12c0.13,0.06,0.18,0.22,0.12,0.34
			c-0.1,0.22-10.59,21.66-20.31,35.11c-9.74,13.47-15.71,16.94-15.96,17.08C293.75,166.09,293.72,166.11,293.68,166.11z"/>
		<path class="st1" d="M291.1,176.61c-0.08,0.01-0.17-0.02-0.22-0.09c-0.09-0.11-0.08-0.27,0.03-0.36
			c0.2-0.17,19.68-16.9,28.69-32.86c13.28-23.51,38.73-53.39,38.99-53.69c0.09-0.11,0.26-0.12,0.36-0.03
			c0.11,0.09,0.12,0.25,0.03,0.36c-0.25,0.3-25.68,30.15-38.93,53.61c-9.06,16.04-28.61,32.83-28.81,33
			C291.2,176.58,291.15,176.6,291.1,176.61z"/>
		<path class="st1" d="M282.28,195.81c-0.07,0.01-0.13-0.01-0.19-0.05c-0.11-0.09-0.13-0.25-0.04-0.36
			c0.13-0.17,13.28-16.87,26.33-29.3c20.88-19.88,57.82-76.83,58.19-77.4c0.08-0.12,0.24-0.15,0.36-0.08
			c0.12,0.08,0.15,0.24,0.08,0.36c-0.37,0.57-37.35,57.57-58.27,77.5c-13.01,12.39-26.15,29.07-26.28,29.24
			C282.41,195.77,282.35,195.8,282.28,195.81z"/>
		<path class="st1" d="M282.73,200c-0.14,0.01-0.26-0.08-0.28-0.22c-0.02-0.14,0.07-0.27,0.21-0.29c0.07-0.01,7.57-1.29,19.25-13.77
			c2.22-2.38,6.48-6.62,11.41-11.53c10.46-10.42,24.78-24.69,32.7-34.06c11.56-13.66,32.95-59.05,33.16-59.51
			c0.06-0.13,0.21-0.18,0.34-0.12c0.13,0.06,0.18,0.21,0.12,0.34c-0.21,0.46-21.64,45.9-33.24,59.62
			c-7.94,9.38-22.27,23.66-32.73,34.09c-4.93,4.91-9.18,9.15-11.4,11.52c-11.82,12.63-19.24,13.88-19.55,13.93
			C282.74,200,282.74,200,282.73,200z"/>
		<path class="st1" d="M285.78,199.67c-0.11,0.01-0.22-0.05-0.27-0.16c-0.05-0.13,0.01-0.28,0.14-0.34
			c0.14-0.06,13.79-5.83,24.55-16.2c2.06-1.99,4.92-4.4,8.22-7.18c5.35-4.52,12.02-10.14,17.79-16.14
			c11.32-11.78,20.45-24.64,20.54-24.76c0.08-0.11,0.24-0.15,0.36-0.06c0.12,0.08,0.14,0.24,0.06,0.36
			c-0.09,0.13-9.24,13.02-20.59,24.82c-5.79,6.03-12.47,11.66-17.83,16.18c-3.29,2.78-6.14,5.18-8.19,7.16
			c-10.84,10.44-24.57,16.25-24.71,16.3C285.82,199.66,285.8,199.67,285.78,199.67z"/>
		<path class="st1" d="M293.52,198.99c-0.11,0.01-0.21-0.05-0.26-0.15c-0.06-0.13,0-0.28,0.12-0.34
			c0.14-0.06,13.83-6.52,30.88-19.44c8.94-6.78,27.63-24.61,37.77-38.26c16.19-21.81,22.38-52.12,22.44-52.43
			c0.03-0.14,0.15-0.23,0.3-0.2c0.14,0.03,0.23,0.16,0.2,0.3c-0.06,0.3-6.28,30.73-22.54,52.63
			c-10.16,13.69-28.91,31.57-37.87,38.37c-17.09,12.96-30.84,19.43-30.97,19.5C293.58,198.98,293.55,198.99,293.52,198.99z"/>
		<path class="st1" d="M351.89,162.41c-0.08,0.01-0.16-0.02-0.22-0.08c-0.1-0.1-0.09-0.27,0.01-0.36c0.1-0.1,10.45-9.75,17.02-18.99
			c11.18-15.75,19.58-49.14,19.66-49.47c0.03-0.14,0.17-0.22,0.31-0.19c0.14,0.03,0.22,0.17,0.19,0.31
			c-0.08,0.34-8.51,33.81-19.74,49.65c-6.6,9.29-16.98,18.98-17.09,19.07C352,162.38,351.95,162.4,351.89,162.41z"/>
		<path class="st1" d="M313.19,196.46c-0.11,0.01-0.23-0.05-0.27-0.16c-0.05-0.13,0.02-0.28,0.15-0.33
			c0.14-0.05,13.86-5.35,29.05-16.5c15.2-11.15,31.5-32.44,31.66-32.65c0.09-0.11,0.25-0.13,0.36-0.05
			c0.11,0.09,0.13,0.25,0.05,0.36c-0.16,0.21-16.51,21.56-31.76,32.75c-15.26,11.19-29.04,16.51-29.18,16.56
			C313.24,196.45,313.21,196.45,313.19,196.46z"/>
		<path class="st1" d="M333,191.81"/>
		<path class="st1" d="M336.67,191.09c-0.1,0.01-0.21-0.04-0.26-0.14c-0.07-0.13-0.02-0.28,0.11-0.35
			c23.79-12.32,38.08-32.63,40.7-36.57c0.08-0.12,0.24-0.15,0.36-0.07c0.12,0.08,0.15,0.24,0.07,0.36
			c-2.64,3.96-16.99,24.36-40.89,36.74C336.73,191.08,336.7,191.09,336.67,191.09z"/>
		<path class="st1" d="M328.34,201.83c-34.81,3.77-53.75,2.97-53.94,2.96c-0.14-0.01-0.25-0.13-0.25-0.27
			c0.01-0.14,0.13-0.26,0.27-0.25c0.19,0.01,19.09,0.81,53.86-2.96c34.75-3.76,66.72-17.19,67.04-17.33c0.14-0.06,0.28,0,0.34,0.14
			c0.06,0.13-0.01,0.28-0.14,0.34C395.21,184.6,363.17,198.06,328.34,201.83z"/>
		<path class="st1" d="M225.1,238.6c-0.03,0-0.05,0-0.08,0c-0.14-0.03-0.23-0.17-0.2-0.31c0.11-0.51,11.02-50.71,13.99-62.22
			c3.49-13.53,4.71-36.93,4.73-37.16c0.01-0.14,0.14-0.25,0.27-0.24c0.14,0.01,0.25,0.13,0.24,0.27
			c-0.01,0.24-1.24,23.69-4.74,37.26c-2.97,11.5-13.88,61.69-13.99,62.2C225.3,238.51,225.21,238.59,225.1,238.6z"/>
		<path class="st1" d="M364.69,89.55c-0.06,0.01-0.12-0.01-0.17-0.04c-0.12-0.08-0.15-0.24-0.07-0.36l17.41-25.92
			c6.1-9.09,14.58-17.75,22.06-25.4c1.3-1.33,2.57-2.63,3.81-3.91c8.41-8.69,36.6-27.5,36.88-27.69c0.12-0.08,0.28-0.05,0.36,0.07
			c0.08,0.12,0.05,0.28-0.07,0.36c-0.28,0.19-28.43,18.96-36.8,27.61c-1.24,1.28-2.52,2.59-3.81,3.91
			c-7.46,7.63-15.93,16.28-22,25.33l-17.41,25.92C364.83,89.51,364.76,89.55,364.69,89.55z"/>
		<path class="st1" d="M392.54,98.95c-0.05,0.01-0.11-0.01-0.15-0.03c-0.12-0.07-0.17-0.23-0.1-0.35
			c0.09-0.15,8.8-15.62,16.21-26.02c8.59-12.06,22.52-35.36,22.66-35.59c0.07-0.12,0.23-0.16,0.35-0.09
			c0.12,0.07,0.16,0.23,0.09,0.35c-0.14,0.23-14.08,23.55-22.68,35.63c-7.39,10.38-16.09,25.82-16.18,25.97
			C392.69,98.89,392.62,98.94,392.54,98.95z"/>
		<path class="st1" d="M383.74,84.79c-0.05,0.01-0.1,0-0.15-0.03c-0.13-0.07-0.17-0.22-0.11-0.35c0.11-0.21,11.07-20.76,16.17-28.7
			c10.5-16.35,42.13-42.22,42.45-42.48c0.1-0.08,0.25-0.08,0.34,0.02c0.09,0.09,0.1,0.24,0.02,0.34
			c-0.3,0.39-30.42,38.86-40.72,57.67c-0.07,0.13-0.23,0.17-0.35,0.1c-0.13-0.07-0.17-0.22-0.1-0.35
			c9.01-16.46,33.14-47.91,39.31-55.88c-6.9,5.77-31.53,26.84-40.52,40.85c-5.08,7.92-16.04,28.45-16.15,28.66
			C383.89,84.73,383.82,84.78,383.74,84.79z"/>
		<path class="st1" d="M358.81,90.03c-0.04,0-0.08,0-0.12-0.02c-0.13-0.05-0.2-0.2-0.15-0.33c0.04-0.12,4.43-11.83,17.24-30.9
			c12.82-19.07,41.35-45.29,41.64-45.55c0.1-0.1,0.27-0.09,0.36,0.02c0.1,0.1,0.09,0.27-0.02,0.36
			c-0.29,0.26-28.77,26.44-41.56,45.46c-12.78,19.01-17.15,30.67-17.19,30.79C358.99,89.96,358.91,90.02,358.81,90.03z"/>
		<path class="st1" d="M353.55,90.78c-0.05,0-0.09,0-0.14-0.02c-0.13-0.06-0.18-0.21-0.12-0.34c0.05-0.11,5.07-10.8,16.79-30.66
			c11.73-19.88,22.12-30.08,22.23-30.18c0.1-0.1,0.26-0.1,0.36,0c0.1,0.1,0.1,0.27,0,0.36c-0.1,0.1-10.45,10.26-22.14,30.07
			c-11.71,19.84-16.72,30.51-16.77,30.62C353.71,90.72,353.63,90.77,353.55,90.78z"/>
		<path class="st1" d="M344.05,94.02c-0.05,0.01-0.11-0.01-0.15-0.03c-0.12-0.07-0.17-0.23-0.1-0.35
			c0.08-0.15,8.31-14.77,12.72-22.84c8.29-15.16,22-31.48,22.14-31.64c0.09-0.11,0.25-0.12,0.36-0.03c0.11,0.09,0.12,0.25,0.03,0.36
			c-0.14,0.16-13.82,16.44-22.08,31.56c-4.41,8.07-12.64,22.7-12.72,22.84C344.21,93.97,344.13,94.01,344.05,94.02z"/>
		<path class="st1" d="M361.84,182.42c-0.11,0.01-0.22-0.05-0.26-0.15c-0.06-0.13,0-0.28,0.13-0.34c0.19-0.08,18.85-8.37,34.1-14.4
			c16.05-6.34,32.56-16.35,46.5-28.18c14.43-12.24,32.33-39.79,32.51-40.07c0.07-0.12,0.24-0.15,0.36-0.08
			c0.12,0.08,0.15,0.24,0.08,0.36c-0.18,0.28-18.12,27.89-32.6,40.18c-13.98,11.86-30.54,21.9-46.64,28.26
			c-15.24,6.03-33.89,14.31-34.07,14.39C361.9,182.42,361.87,182.42,361.84,182.42z"/>
		<path class="st1" d="M382.4,182.44c-0.09,0.01-0.19-0.03-0.24-0.11c-0.08-0.12-0.05-0.28,0.07-0.36
			c0.12-0.08,12.14-8.29,19.73-11.7c22.69-10.18,32.6-19.07,32.69-19.16c0.1-0.1,0.27-0.09,0.36,0.02c0.1,0.11,0.09,0.27-0.02,0.36
			c-0.1,0.09-10.05,9.03-32.83,19.25c-7.55,3.39-19.53,11.57-19.65,11.65C382.48,182.42,382.44,182.43,382.4,182.44z"/>
		<path class="st1" d="M392.29,183.9c-0.1,0.01-0.2-0.03-0.25-0.12c-0.07-0.12-0.03-0.28,0.09-0.35c0.09-0.05,9.12-5.43,30.32-17.5
			c14.63-8.32,38.07-30.85,49.64-51.11c4.43-7.75,13.69-13.43,13.78-13.49c0.12-0.08,0.28-0.04,0.35,0.09
			c0.07,0.12,0.04,0.28-0.09,0.35c-0.09,0.06-9.24,5.67-13.6,13.3c-11.62,20.33-35.15,42.94-49.83,51.3
			c-21.2,12.07-30.23,17.44-30.31,17.49C392.36,183.88,392.33,183.89,392.29,183.9z"/>
		<path class="st1" d="M372.83,170.26c-0.11,0.01-0.22-0.05-0.27-0.16c-0.05-0.13,0.01-0.28,0.14-0.34
			c0.22-0.09,21.73-8.94,32.4-15.48c4.05-2.48,7.48-4.4,10.5-6.09c7.06-3.95,12.64-7.08,21.08-14.53
			c9.5-8.39,26.63-34.27,26.81-34.53c0.08-0.12,0.24-0.15,0.36-0.07c0.12,0.08,0.15,0.24,0.07,0.36
			c-0.17,0.26-17.34,26.2-26.9,34.63c-8.48,7.49-14.08,10.62-21.17,14.59c-3.02,1.69-6.44,3.6-10.48,6.08
			c-10.7,6.56-32.26,15.43-32.47,15.52C372.88,170.25,372.85,170.26,372.83,170.26z"/>
		<path class="st1" d="M351.53,206.9c-16.57,1.79-38.17,1.48-55.52,1.23c-10.87-0.16-20.26-0.29-24.76,0.19
			c-0.14,0.02-0.27-0.09-0.28-0.23c-0.02-0.14,0.09-0.27,0.23-0.28c4.53-0.49,13.48-0.36,24.82-0.2
			c17.34,0.25,38.91,0.56,55.46-1.23c26.93-2.92,57.61-19.47,57.92-19.64c0.13-0.07,0.28-0.02,0.35,0.1
			c0.07,0.13,0.02,0.28-0.1,0.35C409.33,187.37,378.56,203.98,351.53,206.9z"/>
		<path class="st1" d="M326.36,213.45c-0.01,0-0.02,0-0.02,0c-0.14,0-13.87,0.3-23.69,0.35c-5.41,0.03-13.52-0.5-20.67-0.96
			c-6.12-0.4-11.41-0.74-14.07-0.69c-0.14,0-0.26-0.11-0.26-0.25c0-0.14,0.12-0.26,0.25-0.26c2.69-0.05,7.99,0.3,14.12,0.69
			c7.14,0.46,15.24,0.99,20.63,0.96c9.81-0.05,23.54-0.34,23.68-0.35c0.14,0,0.26,0.11,0.26,0.25
			C326.59,213.32,326.49,213.43,326.36,213.45z"/>
		<path class="st1" d="M337.13,218.08c-10.84,1.17-17.89,0.92-18.01,0.91c-0.14-0.01-0.25-0.13-0.25-0.27
			c0.01-0.14,0.12-0.24,0.27-0.25c0.22,0.01,21.85,0.8,47.83-6.81c25.99-7.62,53.74-21.99,54.02-22.13
			c0.12-0.06,0.28-0.02,0.35,0.11c0.07,0.13,0.02,0.28-0.11,0.35c-0.28,0.14-28.07,14.54-54.11,22.17
			C355.85,215.46,345.39,217.18,337.13,218.08z"/>
		<path class="st1" d="M359.03,220.23c-0.29,0.03-0.58,0.06-0.87,0.09c-0.14,0.01-0.27-0.09-0.28-0.23
			c-0.01-0.14,0.09-0.27,0.23-0.28l0,0c12.02-1.27,21.5-3.56,32.74-8.04c21.34-8.5,40.06-21.58,40.25-21.71
			c0.11-0.08,0.28-0.06,0.36,0.06c0.08,0.12,0.05,0.28-0.06,0.36c-0.19,0.13-18.95,13.25-40.35,21.77
			C380.03,216.63,370.69,218.97,359.03,220.23z"/>
		<path class="st1" d="M354.56,227.1c-25.25,2.73-50.45-3.52-70.95-8.61c-6.29-1.56-12.23-3.04-17.65-4.13
			c-0.14-0.03-0.23-0.16-0.2-0.3c0.03-0.14,0.16-0.23,0.3-0.2c5.43,1.09,11.38,2.57,17.67,4.13c21.82,5.42,48.98,12.16,75.77,7.94
			c47.73-7.51,90.54-39.25,90.97-39.57c0.11-0.09,0.27-0.06,0.36,0.05c0.09,0.11,0.06,0.28-0.05,0.36
			c-0.43,0.32-43.34,32.13-91.2,39.67C357.92,226.7,356.24,226.92,354.56,227.1z"/>
		<path class="st1" d="M354.73,237.67c-27.37,2.96-54.23-6.79-90.37-21.48c-0.13-0.05-0.2-0.2-0.14-0.34
			c0.06-0.13,0.21-0.2,0.34-0.14c40.32,16.39,69.04,26.63,99.79,19.86c48.15-10.58,103.92-52.32,104.48-52.74
			c0.11-0.09,0.28-0.06,0.36,0.05s0.06,0.28-0.05,0.36c-0.56,0.42-56.43,42.23-104.68,52.83
			C361.2,236.79,357.96,237.32,354.73,237.67z"/>
		<path class="st1" d="M271.48,96.04c-0.04,0-0.08,0-0.13-0.02c-0.13-0.05-0.19-0.2-0.14-0.34c0.07-0.16,6.65-16.23,11.67-27.26
			c11.25-24.7,49.21-59.9,49.59-60.26c0.1-0.09,0.27-0.09,0.36,0.01c0.1,0.1,0.09,0.27-0.01,0.36
			c-0.38,0.35-38.26,35.48-49.47,60.09c-5.02,11.02-11.6,27.08-11.66,27.24C271.65,95.97,271.57,96.03,271.48,96.04z"/>
		<path class="st1" d="M280.64,95.05c-0.05,0.01-0.1,0-0.15-0.03c-0.12-0.07-0.17-0.22-0.11-0.35c0.21-0.4,21.16-39.94,29.42-52.65
			c11.14-17.14,25.57-29.36,25.72-29.48c0.11-0.1,0.27-0.08,0.36,0.03c0.09,0.11,0.08,0.27-0.03,0.36
			c-0.14,0.12-14.52,12.29-25.62,29.37c-8.25,12.69-29.18,52.22-29.39,52.62C280.8,94.99,280.72,95.04,280.64,95.05z"/>
		<path class="st1" d="M301.7,76.51c-0.05,0.01-0.09,0-0.14-0.02c-0.13-0.06-0.18-0.21-0.12-0.34c0.1-0.21,9.97-20.86,17.69-33.13
			c7.73-12.28,39.34-45.99,39.66-46.33c0.1-0.11,0.26-0.11,0.36-0.01c0.1,0.1,0.11,0.26,0.01,0.36
			c-0.32,0.34-31.89,34.01-39.6,46.25C311.85,55.53,302,76.15,301.9,76.36C301.86,76.44,301.78,76.5,301.7,76.51z"/>
		<path class="st1" d="M301.65,102.84c-0.04,0-0.09,0-0.13-0.02c-0.13-0.06-0.19-0.21-0.13-0.34c0.15-0.34,14.95-33.9,23.87-52.11
			c8.93-18.23,34.47-51.44,34.73-51.77c0.09-0.11,0.25-0.13,0.36-0.05c0.11,0.09,0.13,0.25,0.05,0.36
			c-0.26,0.33-25.77,33.5-34.68,51.69c-8.92,18.2-23.71,51.76-23.86,52.09C301.82,102.77,301.74,102.83,301.65,102.84z"/>
		<path class="st1" d="M290.49,104.74c-0.04,0-0.07,0-0.11-0.01c-0.14-0.04-0.21-0.19-0.17-0.32c0.01-0.04,1.19-3.7,3.27-8.76
			c2.07-5.05,5.27-13.4,5.3-13.49c0.05-0.13,0.2-0.2,0.33-0.15c0.13,0.05,0.2,0.2,0.15,0.33c-0.03,0.08-3.23,8.44-5.3,13.5
			c-2.07,5.04-3.24,8.69-3.25,8.72C290.68,104.66,290.59,104.73,290.49,104.74z"/>
		<path class="st1" d="M321.62,89.25c-0.05,0.01-0.1,0-0.14-0.03c-0.13-0.06-0.18-0.22-0.12-0.34c0.08-0.17,8.38-17.22,13.29-27.4
			c4.91-10.16,12.73-31.48,12.81-31.7c0.05-0.13,0.2-0.2,0.33-0.15c0.13,0.05,0.2,0.2,0.15,0.33c-0.08,0.21-7.92,21.56-12.83,31.74
			c-4.91,10.17-13.21,27.23-13.29,27.4C321.79,89.19,321.71,89.24,321.62,89.25z"/>
		<path class="st1" d="M302.36,118.39c-0.07,0.01-0.15-0.02-0.2-0.07c-0.1-0.1-0.11-0.26-0.01-0.36c0.03-0.03,2.46-2.61,5.54-6.82
			c3.09-4.21,8.18-13.46,8.23-13.55c0.07-0.13,0.23-0.17,0.35-0.1c0.13,0.07,0.17,0.23,0.1,0.35c-0.05,0.09-5.16,9.37-8.27,13.61
			c-3.11,4.24-5.56,6.84-5.58,6.87C302.48,118.35,302.42,118.38,302.36,118.39z"/>
		<path class="st1" d="M317.18,116c-0.05,0-0.09,0-0.14-0.02c-0.13-0.06-0.19-0.21-0.12-0.34c0.08-0.18,8.32-17.7,13.01-24.7
			c4.67-6.96,9.32-16.84,9.36-16.94c0.06-0.13,0.21-0.18,0.34-0.12c0.13,0.06,0.19,0.21,0.12,0.34c-0.05,0.1-4.71,10.01-9.4,17.01
			c-4.67,6.97-12.89,24.46-12.98,24.63C317.34,115.93,317.26,115.99,317.18,116z"/>
		<path class="st1" d="M212.79,110.14c-0.09,0.01-0.19-0.03-0.24-0.11c-0.2-0.3-20.46-30.54-26.87-57.84
			c-6.41-27.3-4.68-42.91-4.66-43.07c0.02-0.14,0.14-0.23,0.29-0.23c0.14,0.02,0.24,0.14,0.23,0.29
			c-0.02,0.15-1.74,15.68,4.65,42.89c6.39,27.21,26.59,57.37,26.79,57.67c0.08,0.12,0.05,0.28-0.07,0.36
			C212.87,110.12,212.83,110.13,212.79,110.14z"/>
		<path class="st1" d="M224.91,104.53c-0.11,0.01-0.21-0.05-0.26-0.15l-43.6-95.13c-0.06-0.13,0-0.28,0.13-0.34
			c0.14-0.06,0.28,0,0.34,0.13l43.6,95.13c0.06,0.13,0,0.28-0.13,0.34C224.97,104.52,224.94,104.53,224.91,104.53z"/>
		<path class="st1" d="M235.53,103.38c-0.13,0.01-0.25-0.07-0.28-0.2c-0.04-0.2-4.56-20.28-12.55-34.79
			c-8-14.53-37.3-58.08-37.59-58.51c-0.08-0.12-0.05-0.28,0.07-0.36c0.12-0.08,0.28-0.05,0.36,0.07c0.3,0.44,29.6,44,37.62,58.55
			c8.03,14.57,12.55,34.72,12.6,34.92c0.03,0.14-0.06,0.28-0.2,0.31C235.55,103.38,235.54,103.38,235.53,103.38z"/>
		<path class="st1" d="M245.1,102.34c-0.01,0-0.03,0-0.04,0c-0.14-0.01-0.25-0.13-0.24-0.27c0.01-0.2,1.07-20.01-9.61-40.32
			c-10.7-20.33-43.86-48.62-44.19-48.9c-0.11-0.09-0.12-0.26-0.03-0.36c0.09-0.11,0.25-0.12,0.36-0.03
			c0.08,0.07,8.47,7.21,18.07,16.78c8.87,8.83,20.62,21.61,26.24,32.28c10.76,20.44,9.68,40.39,9.67,40.59
			C245.32,102.23,245.22,102.33,245.1,102.34z"/>
		<path class="st1" d="M205.65,113.24c-0.09,0.01-0.18-0.03-0.23-0.1c-0.06-0.08-6.17-8.14-12.56-19.52
			c-5.91-10.51-13.28-26.1-14.85-40.63c-3.01-27.77-0.49-40.48-0.47-40.61c0.03-0.14,0.17-0.23,0.3-0.2c0.14,0.03,0.23,0.16,0.2,0.3
			c-0.03,0.12-2.52,12.77,0.47,40.45c1.56,14.45,8.9,29.96,14.78,40.43c6.38,11.35,12.46,19.39,12.52,19.47
			c0.09,0.11,0.07,0.28-0.05,0.36C205.74,113.21,205.7,113.23,205.65,113.24z"/>
		<path class="st1" d="M200.81,119.77c-0.07,0.01-0.15-0.01-0.2-0.07c-0.05-0.05-4.79-4.5-8.77-9.87
			c-5.65-7.62-14.35-28.23-14.44-28.44c-0.06-0.13,0.01-0.28,0.14-0.34c0.13-0.06,0.28,0.01,0.34,0.14
			c0.09,0.21,8.77,20.76,14.38,28.33c3.95,5.33,8.66,9.76,8.7,9.8c0.1,0.1,0.11,0.26,0.01,0.36
			C200.93,119.74,200.87,119.76,200.81,119.77z"/>
		<path class="st1" d="M231.94,110.39c-1.52,0.16-3.18-0.15-3.28-1.07c-0.1-0.91,1.46-1.58,2.98-1.74c1.52-0.16,3.18,0.15,3.28,1.07
			C235.02,109.56,233.46,110.22,231.94,110.39z M231.7,108.09c-1.6,0.17-2.56,0.81-2.52,1.18c0.04,0.37,1.12,0.78,2.72,0.61
			c1.6-0.17,2.56-0.81,2.52-1.18C234.37,108.33,233.29,107.92,231.7,108.09z"/>
		<path class="st1" d="M245.93,108.87c-1.52,0.16-3.18-0.15-3.28-1.07c-0.1-0.91,1.46-1.58,2.98-1.74c1.52-0.16,3.18,0.15,3.28,1.07
			C249.01,108.04,247.45,108.71,245.93,108.87z M245.68,106.57c-1.6,0.17-2.56,0.81-2.52,1.18c0.04,0.37,1.12,0.78,2.72,0.61
			c1.6-0.17,2.56-0.81,2.52-1.18C248.36,106.82,247.28,106.4,245.68,106.57z"/>
		<path class="st1" d="M263.34,106.99c-1.59,0.17-3.34-0.14-3.44-1.05c-0.1-0.91,1.54-1.59,3.14-1.76c1.59-0.17,3.34,0.14,3.44,1.05
			C266.57,106.14,264.93,106.82,263.34,106.99z M263.09,104.69c-1.69,0.18-2.72,0.83-2.68,1.19c0.04,0.37,1.18,0.78,2.87,0.59
			c1.69-0.18,2.72-0.83,2.68-1.19C265.92,104.92,264.79,104.51,263.09,104.69z"/>
		<path class="st1" d="M285.7,113.95c-1.6,0.17-3.28-0.11-3.38-0.99c-0.19-1.77,6.27-2.47,6.46-0.7
			C288.88,113.14,287.3,113.78,285.7,113.95z M285.46,111.77c-1.66,0.18-2.66,0.79-2.63,1.13c0.04,0.34,1.15,0.72,2.81,0.54
			s2.66-0.79,2.63-1.13C288.23,111.97,287.12,111.59,285.46,111.77z"/>
		<path class="st1" d="M270.97,114.44c-1.53,0.17-2.8-0.36-2.89-1.2c-0.09-0.84,1.04-1.63,2.56-1.8c1.53-0.17,2.8,0.36,2.89,1.21
			C273.63,113.49,272.5,114.28,270.97,114.44z M270.7,111.96c-1.3,0.14-2.16,0.76-2.11,1.23c0.05,0.47,1.02,0.89,2.32,0.75
			s2.16-0.76,2.11-1.23C272.97,112.24,272.01,111.82,270.7,111.96z"/>
		<path class="st1" d="M282.01,108.85c-1.63,0.18-3.41-0.13-3.51-1.04c-0.2-1.85,6.51-2.57,6.71-0.73
			C285.31,107.99,283.63,108.67,282.01,108.85z M281.76,106.55c-1.73,0.19-2.78,0.84-2.74,1.2c0.04,0.36,1.2,0.77,2.94,0.59
			c1.74-0.19,2.79-0.84,2.75-1.2C284.66,106.77,283.49,106.36,281.76,106.55z"/>
		<path class="st1" d="M249.38,116.78c-1.9,0.21-3.89-0.1-3.99-1.08c-0.21-1.97,7.45-2.8,7.66-0.83
			C253.16,115.85,251.29,116.58,249.38,116.78z M249.12,114.29c-2.03,0.22-3.26,0.94-3.21,1.35c0.04,0.4,1.4,0.85,3.43,0.63
			s3.25-0.94,3.21-1.35S251.14,114.07,249.12,114.29z"/>
		<path class="st1" d="M235.32,118.3c-1.74,0.19-3.65-0.14-3.76-1.11c-0.11-0.97,1.69-1.7,3.44-1.89s3.65,0.14,3.76,1.11
			C238.86,117.39,237.06,118.12,235.32,118.3z M235.05,115.82c-1.88,0.2-3.02,0.92-2.98,1.32c0.04,0.4,1.31,0.86,3.19,0.65
			c1.88-0.2,3.02-0.92,2.98-1.32C238.2,116.07,236.93,115.61,235.05,115.82z"/>
		<path class="st1" d="M262.25,120.43c-2.24,0.24-4.01-0.33-4.12-1.32c-0.11-1,1.5-1.93,3.74-2.17s4.01,0.33,4.12,1.32
			C266.1,119.26,264.49,120.19,262.25,120.43z M261.92,117.45c-2.01,0.22-3.35,1.02-3.29,1.61c0.06,0.58,1.54,1.08,3.55,0.87
			s3.35-1.02,3.29-1.61S263.94,117.23,261.92,117.45z"/>
		<path class="st1" d="M194.75,129.86c-0.62,0.07-1.17-0.02-1.58-0.27c-0.41-0.25-0.89-0.77-0.86-1.88
			c0.08-2.45,2.78-5.19,4.39-6.61c1.34-1.19,2.93-1.82,4.7-1.89c4.45-0.17,6.89,1.27,9.72,2.94c1.59,0.94,3.23,1.91,5.43,2.74
			c0.13,0.05,0.2,0.2,0.15,0.33c-0.05,0.13-0.2,0.2-0.33,0.15c-2.24-0.85-3.98-1.87-5.51-2.78c-2.76-1.63-5.13-3.04-9.43-2.87
			c-1.65,0.07-3.12,0.66-4.38,1.76c-1.24,1.1-4.14,3.9-4.21,6.24c-0.02,0.69,0.18,1.17,0.61,1.42c0.71,0.43,2.03,0.22,3.35-0.54
			c1.21-0.69,1.82-1.51,2.4-2.3c0.61-0.83,1.19-1.61,2.37-2.16c0.76-0.36,1.51-0.23,2.29-0.1c1.12,0.2,2.4,0.41,4.1-0.83
			c0.12-0.08,0.28-0.06,0.36,0.06c0.08,0.11,0.06,0.28-0.06,0.36c-1.88,1.37-3.33,1.12-4.5,0.92c-0.74-0.13-1.37-0.24-1.99,0.05
			c-1.06,0.5-1.58,1.19-2.17,2c-0.59,0.79-1.26,1.69-2.56,2.44C196.24,129.52,195.45,129.79,194.75,129.86z"/>
		<path class="st1" d="M205.38,131.03c-1.76,0.19-2.78-0.14-3.08-1.01c-0.21-0.61-0.16-1.2,0.14-1.74c0.83-1.47,3.38-2.27,5.38-2.69
			c2.78-0.58,5.12,0.13,6.51,0.55c1.72,0.53,3.07,0.98,4.06,1.31c0.53,0.18,0.95,0.32,1.25,0.41c0.14,0.04,0.21,0.19,0.17,0.32
			c-0.04,0.14-0.18,0.22-0.32,0.17c-0.3-0.09-0.72-0.23-1.26-0.41c-0.98-0.33-2.33-0.78-4.05-1.3c-1.35-0.41-3.59-1.1-6.26-0.54
			c-1.55,0.32-4.26,1.07-5.04,2.44c-0.23,0.41-0.27,0.85-0.1,1.32c0.19,0.55,1.16,1.27,5.61,0.02c2.39-0.68,5.42-1.2,6.22-1.2
			c0.14,0,0.26,0.12,0.26,0.26c0,0.14-0.11,0.24-0.26,0.26c-0.68,0-3.57,0.46-6.08,1.18C207.3,130.72,206.25,130.94,205.38,131.03z"
			/>
		<path class="st1" d="M234.97,139.81c-0.14,0.02-0.27-0.09-0.28-0.23c-0.44-4.06-3.16-7.62-4.5-8.2c-0.13-0.06-0.36-0.14-0.49-0.04
			c-0.53,0.39-0.08,1.19,0.81,2.7c0.84,1.42,1.89,3.19,2.32,5.4c0.03,0.14-0.06,0.28-0.2,0.3c-0.17,0.02-0.28-0.07-0.3-0.2
			c-0.41-2.12-1.43-3.85-2.26-5.24c-0.93-1.56-1.6-2.69-0.67-3.38c0.18-0.13,0.49-0.24,1-0.02c1.62,0.71,4.36,4.51,4.81,8.62
			C235.21,139.66,235.11,139.79,234.97,139.81z"/>
		<path class="st1" d="M280.5,135.98c-0.09,0.01-0.17-0.02-0.22-0.09c-0.34,0.12-0.67,0.2-0.99,0.21c-0.14,0.01-0.26-0.1-0.27-0.25
			c-0.01-0.14,0.1-0.25,0.23-0.27c0.01,0,0.01,0,0.02,0c1.45-0.09,3.57-1.84,5.41-3.4c0.94-0.8,1.83-1.55,2.64-2.1
			c3.23-2.18,7.12-3.23,10.96-2.96c4.01,0.49,6.88,2.5,7.04,4.07c0.05,0.53-0.14,0.98-0.55,1.31c-1.25,0.99-4.36,0.75-6.65-0.04
			c-4.1-1.42-8.56,0.22-13.73,2.13c-1.24,0.46-2.51,0.93-3.84,1.38C280.54,135.97,280.52,135.97,280.5,135.98z M295.31,127.7
			c-2.73,0.3-5.39,1.26-7.7,2.82c-0.78,0.53-1.66,1.27-2.59,2.06c-0.95,0.81-1.92,1.63-2.85,2.28c0.7-0.25,1.38-0.5,2.05-0.75
			c5.26-1.94,9.8-3.62,14.08-2.13c2.12,0.74,5.1,0.96,6.16,0.12c0.28-0.22,0.39-0.5,0.36-0.85c-0.12-1.16-2.53-3.11-6.58-3.61
			C297.26,127.57,296.28,127.59,295.31,127.7z"/>
		<path class="st1" d="M284.9,132.62c-0.03,0-0.06,0-0.09-0.01c-0.14-0.03-0.22-0.17-0.19-0.31c1.14-4.66,6.66-7.15,9.42-7.82
			c1.17-0.28,2.22-0.58,3.15-0.84c2.13-0.6,3.81-1.07,5.58-1.06c2.7,0.01,4.47,1.52,4.62,2.98c0.13,1.25-0.14,2.27-0.77,2.98
			c-0.62,0.69-1.57,1.04-2.81,1.04c-0.14,0-0.26-0.12-0.26-0.26c0-0.14,0.11-0.24,0.26-0.26c1.09,0,1.9-0.29,2.43-0.87
			c0.53-0.59,0.75-1.48,0.64-2.58c-0.13-1.2-1.73-2.51-4.11-2.52c-1.69-0.01-3.34,0.46-5.44,1.04c-0.93,0.26-1.99,0.56-3.17,0.84
			c-2.65,0.64-7.95,3.02-9.04,7.44C285.09,132.54,285,132.61,284.9,132.62z"/>
		<path class="st1" d="M304.48,123.37c-0.08,0.01-0.16-0.02-0.22-0.09c-0.09-0.11-0.08-0.27,0.02-0.36c0.29-0.25,0.6-0.49,0.9-0.72
			c1.2-0.93,2.15-1.66,1.65-3.07c-0.16-0.44-0.47-0.77-0.92-0.97c-0.84-0.39-2.1-0.31-3.48,0.21c-1.31,0.5-2.21,1.13-3.07,1.73
			c-1.23,0.87-2.39,1.68-4.52,1.84c-0.14,0.01-0.26-0.1-0.28-0.24c-0.01-0.14,0.1-0.26,0.24-0.28c1.98-0.12,3.03-0.88,4.26-1.74
			c0.85-0.6,1.81-1.27,3.18-1.79c1.53-0.58,2.91-0.65,3.88-0.2c0.57,0.26,0.98,0.7,1.19,1.27c0.63,1.76-0.61,2.72-1.82,3.65
			c-0.29,0.23-0.59,0.45-0.87,0.7C304.58,123.35,304.53,123.37,304.48,123.37z"/>
		<path class="st1" d="M298.9,120.38c-0.08,0.01-0.16-0.02-0.22-0.09c-0.09-0.11-0.08-0.27,0.02-0.36c1.67-1.46,2.61-2.77,2.58-3.6
			c-0.01-0.28-0.13-0.51-0.37-0.7c-1.6-1.24-2.9-0.29-5.04,2.17c-0.09,0.11-0.26,0.12-0.36,0.03c-0.11-0.09-0.12-0.26-0.03-0.36
			c1.97-2.27,3.64-3.87,5.74-2.24c0.37,0.28,0.56,0.65,0.57,1.09c0.04,1.27-1.48,2.88-2.75,4
			C299.01,120.36,298.96,120.38,298.9,120.38z"/>
		<path class="st1" d="M293.86,141.76c-1.01,0.11-1.94-0.52-3.06-1.28c-1.37-0.93-3.08-2.09-5.69-2.43
			c-0.14-0.02-0.24-0.15-0.22-0.29c0.02-0.14,0.15-0.24,0.29-0.22c2.73,0.36,4.5,1.55,5.91,2.51c1.29,0.87,2.22,1.51,3.26,1.03
			c0.8-0.36,1.21-1.31,0.97-2.26c-0.37-1.47-2.3-2.94-6.59-2.63c-0.14,0.01-0.27-0.1-0.28-0.24c-0.01-0.14,0.1-0.28,0.24-0.28
			c4.61-0.33,6.71,1.34,7.13,3.01c0.3,1.19-0.23,2.39-1.26,2.86C294.33,141.67,294.1,141.73,293.86,141.76z"/>
		<path class="st1" d="M295.75,149.01c-0.1,0.01-0.2,0.01-0.31,0c-0.88-0.08-1.9-1.61-3.19-3.54c-0.29-0.44-0.59-0.89-0.9-1.34
			c-0.08-0.12-0.05-0.28,0.07-0.36c0.12-0.08,0.28-0.05,0.36,0.07c0.31,0.45,0.61,0.91,0.91,1.34c1.07,1.6,2.17,3.25,2.81,3.31
			c0.4,0.03,0.65-0.11,0.82-0.47c0.63-1.38-0.52-5.1-2.02-6.52c-0.1-0.1-0.11-0.26-0.01-0.36c0.1-0.1,0.26-0.11,0.36-0.01
			c1.54,1.47,2.91,5.39,2.13,7.1C296.57,148.7,296.21,148.96,295.75,149.01z"/>
		<path class="st1" d="M299.08,143.66c-0.63,0.07-1.13-0.57-1.76-1.37c-0.52-0.67-1.11-1.42-1.92-2c-0.12-0.08-0.14-0.24-0.06-0.36
			c0.08-0.12,0.24-0.14,0.36-0.06c0.86,0.62,1.51,1.44,2.02,2.1c0.51,0.65,0.95,1.22,1.3,1.18c0,0,0.01,0,0.01,0
			c0.47-0.07,0.77-0.3,0.9-0.71c0.42-1.32-0.87-3.89-2.26-5.22c-0.1-0.1-0.11-0.26-0.01-0.36c0.1-0.1,0.26-0.11,0.36-0.01
			c1.53,1.46,2.88,4.22,2.4,5.74c-0.19,0.6-0.65,0.97-1.32,1.07C299.1,143.66,299.09,143.66,299.08,143.66z"/>
		<path class="st1" d="M301.53,138.2c-0.92,0.1-2.07-0.32-3.4-0.79c-2.3-0.83-5.44-1.97-9.36-1.21c-0.17,0.04-0.28-0.07-0.3-0.2
			c-0.03-0.14,0.06-0.28,0.2-0.3c4.04-0.79,7.27,0.38,9.63,1.24c2.26,0.81,3.47,1.19,4.21,0.14c0.28-0.4,0.36-0.8,0.23-1.22
			c-0.56-1.84-4.59-3.38-4.63-3.39c-0.13-0.05-0.2-0.2-0.15-0.33c0.05-0.13,0.2-0.2,0.33-0.15c0.18,0.07,4.31,1.64,4.94,3.72
			c0.18,0.58,0.07,1.14-0.3,1.67C302.56,137.9,302.09,138.14,301.53,138.2z"/>
		<path class="st1" d="M224.88,137.81c-0.09,0.01-0.19-0.03-0.24-0.11c-6-8.88-9.88-7.64-10.93-7.06c-1.18,0.67-1.64,1.92-1.31,2.63
			c0.43,0.94,1.2,0.83,2.53,0.54c1.47-0.32,3.3-0.73,4.52,1.53c0.07,0.12,0.02,0.28-0.11,0.35c-0.12,0.07-0.28,0.02-0.35-0.11
			c-1.03-1.91-2.51-1.59-3.95-1.27c-1.22,0.27-2.48,0.54-3.11-0.82c-0.43-0.93,0.08-2.48,1.53-3.29c1.14-0.65,5.36-2.03,11.61,7.22
			c0.08,0.12,0.05,0.28-0.07,0.36C224.96,137.79,224.92,137.81,224.88,137.81z"/>
		<path class="st1" d="M230.41,139.17c-0.09,0.01-0.19-0.03-0.24-0.12c-1.48-2.28-2.71-4.52-3.76-6.85c-1.24-2.74-2.3-3.3-2.83-3.39
			c-0.44-0.07-0.75,0.13-0.93,0.31c-0.71,0.73,2.21,5.35,5.39,9.2c0.09,0.11,0.08,0.27-0.03,0.36c-0.11,0.09-0.27,0.07-0.36-0.03
			c-0.28-0.34-6.86-8.35-5.36-9.88c0.38-0.39,0.86-0.56,1.38-0.46c0.76,0.13,1.94,0.88,3.21,3.69c1.04,2.31,2.26,4.53,3.72,6.79
			c0.08,0.12,0.04,0.28-0.08,0.36C230.49,139.15,230.45,139.17,230.41,139.17z"/>
		<path class="st1" d="M279.31,136.1c-0.04,0-0.09,0-0.13-0.02c-0.13-0.06-0.19-0.21-0.13-0.34c0.48-1.11,1.3-2.43,2.09-3.7
			c1.01-1.64,2.17-3.49,1.97-4.06c-0.01-0.04-0.04-0.08-0.12-0.11c-2.15-0.76-5.89,3.18-7.99,8.43c-0.05,0.13-0.21,0.2-0.33,0.14
			c-0.13-0.05-0.2-0.2-0.14-0.33c2.24-5.59,6.21-9.59,8.64-8.72c0.21,0.07,0.36,0.22,0.43,0.42c0.27,0.76-0.59,2.21-2.01,4.5
			c-0.78,1.26-1.58,2.55-2.05,3.63C279.48,136.04,279.4,136.09,279.31,136.1z"/>
		<path class="st1" d="M217.77,122.18c-0.04,0-0.08,0-0.12-0.02c-2.4-0.97-3.54-2.2-4.74-3.49c-0.75-0.81-1.53-1.65-2.68-2.47
			c-1.18-0.85-2.62-1.35-4.3-1.48c-0.97-0.08-2.6,0.15-3.99,1.04c-2.05,1.31-1.23,3.1-0.93,3.62c0.07,0.12,0.03,0.28-0.09,0.35
			c-0.13,0.07-0.28,0.03-0.35-0.09c-0.74-1.28-0.84-3.08,1.1-4.32c1.5-0.95,3.26-1.2,4.31-1.12c1.77,0.14,3.31,0.67,4.56,1.58
			c1.18,0.85,1.98,1.71,2.75,2.54c1.17,1.25,2.27,2.43,4.56,3.36c0.13,0.05,0.2,0.2,0.14,0.34
			C217.95,122.12,217.86,122.17,217.77,122.18z"/>
		<path class="st1" d="M214.76,115.49c-0.06,0.01-0.12-0.01-0.18-0.05c-0.86-0.6-1.51-1.22-2.09-1.77c-0.83-0.78-1.48-1.4-2.34-1.61
			c-2.44-0.6-4.41,0.84-5.03,2.51c-0.05,0.13-0.2,0.2-0.33,0.15c-0.13-0.05-0.2-0.2-0.15-0.33c0.7-1.87,2.91-3.5,5.64-2.83
			c0.99,0.24,1.72,0.94,2.57,1.73c0.56,0.53,1.2,1.14,2.03,1.72c0.12,0.08,0.14,0.24,0.06,0.36
			C214.89,115.45,214.83,115.49,214.76,115.49z"/>
		<path class="st1" d="M211.27,112.24c-0.05,0.01-0.11,0-0.16-0.03c-0.12-0.07-0.17-0.23-0.1-0.35c0.63-1.1,1.4-1.77,2.3-2.01
			c0.9-0.24,1.89-0.03,2.95,0.61c0.12,0.07,0.16,0.23,0.09,0.35c-0.07,0.12-0.23,0.16-0.35,0.09c-0.94-0.56-1.8-0.75-2.55-0.55
			c-0.76,0.2-1.43,0.79-1.98,1.77C211.43,112.19,211.35,112.23,211.27,112.24z"/>
		<path class="st1" d="M167.81,140.5c-0.07,0.01-0.15-0.01-0.2-0.07c-0.15-0.15-15.81-14.75-36.15-38.59
			c-20.28-23.76-32.64-28.79-32.76-28.84c-0.13-0.05-0.2-0.2-0.15-0.33c0.05-0.13,0.2-0.2,0.33-0.15
			c0.12,0.05,12.59,5.1,32.97,28.98c20.33,23.82,35.96,38.4,36.11,38.55c0.1,0.1,0.11,0.26,0.01,0.36
			C167.93,140.47,167.87,140.5,167.81,140.5z"/>
		<path class="st1" d="M175.12,134.33c-0.1,0.01-0.2-0.04-0.25-0.13c-15.85-28.53-28.93-40.93-44.08-55.29
			c-1.01-0.96-2.03-1.93-3.06-2.91c-10.18-9.7-26.87-10.98-39.06-11.92c-2.31-0.18-4.49-0.35-6.44-0.56
			c-0.14-0.02-0.24-0.14-0.23-0.28c0.02-0.14,0.13-0.24,0.28-0.23c1.94,0.21,4.12,0.38,6.43,0.56c12.27,0.95,29.06,2.24,39.38,12.06
			c1.03,0.98,2.05,1.95,3.06,2.91c15.17,14.39,28.28,26.81,44.17,55.41c0.07,0.13,0.02,0.28-0.1,0.35
			C175.19,134.31,175.16,134.32,175.12,134.33z"/>
		<path class="st1" d="M171.85,136.46c-0.08,0.01-0.16-0.02-0.22-0.08c-0.13-0.14-12.87-13.94-21.7-25.37
			c-8.8-11.4-33.45-30.81-33.7-31c-0.11-0.09-0.13-0.25-0.04-0.36c0.09-0.11,0.25-0.13,0.36-0.04c0.25,0.2,24.95,19.64,33.79,31.09
			c8.81,11.42,21.54,25.2,21.67,25.34c0.1,0.1,0.09,0.27-0.01,0.36C171.95,136.44,171.9,136.46,171.85,136.46z"/>
		<path class="st1" d="M171.4,179.35c-0.04,0-0.08,0-0.12-0.02c-35.04-13.07-47.08-31.21-52.87-39.93
			c-0.62-0.94-1.16-1.75-1.65-2.44c-1.82-2.56-5.99-11.16-10.82-21.13c-8.5-17.52-20.13-41.51-25.44-45.68
			c-0.11-0.09-0.13-0.25-0.04-0.36c0.09-0.11,0.25-0.13,0.36-0.04c5.41,4.24,16.59,27.32,25.58,45.86
			c4.82,9.94,8.99,18.53,10.78,21.05c0.49,0.69,1.03,1.51,1.66,2.45c5.76,8.67,17.74,26.72,52.62,39.73c0.13,0.05,0.2,0.2,0.15,0.33
			C171.58,179.28,171.5,179.34,171.4,179.35z"/>
		<path class="st1" d="M168.64,171.76c-0.05,0.01-0.09,0-0.14-0.02c-0.19-0.09-19.21-9.27-27.19-16.53
			c-15.79-14.38-24.84-30.95-31.44-43.05c-2.28-4.18-4.25-7.79-6.04-10.43c-3.61-5.31-6.39-10.74-8.84-15.54
			c-4.36-8.54-8.13-15.91-14.81-19.46c-0.13-0.07-0.17-0.22-0.11-0.35c0.07-0.13,0.22-0.17,0.35-0.11
			c6.83,3.62,10.63,11.06,15.03,19.68c2.44,4.78,5.21,10.2,8.81,15.48c1.8,2.65,3.78,6.27,6.07,10.47
			c6.59,12.07,15.6,28.6,31.33,42.92c7.93,7.21,26.87,16.36,27.06,16.45c0.13,0.06,0.18,0.22,0.12,0.34
			C168.8,171.69,168.72,171.75,168.64,171.76z"/>
		<path class="st1" d="M136.65,137.57c-0.08,0.01-0.15-0.02-0.21-0.08c-0.07-0.07-7.36-7.66-15.47-22.86
			C107.21,88.84,96.89,77.2,90.65,71.97c-6.58-5.51-10.11-5.23-10.31-5.21c0,0-0.01,0-0.01,0c-0.13,0.01-0.27-0.08-0.29-0.22
			c-0.02-0.14,0.07-0.27,0.21-0.29c0.01,0,0.04-0.01,0.06-0.01c1.19-0.13,15.17-0.48,41.11,48.14
			c8.07,15.13,15.31,22.67,15.39,22.75c0.1,0.1,0.1,0.27,0,0.36C136.76,137.54,136.7,137.56,136.65,137.57z"/>
		<path class="st1" d="M117.7,145.42c-0.08,0.01-0.15-0.02-0.21-0.07c-3.57-3.56-5.33-7.17-7.2-10.99
			c-1.16-2.37-2.35-4.82-4.02-7.25c-0.08-0.12-0.05-0.28,0.07-0.36c0.12-0.08,0.28-0.05,0.36,0.07c1.69,2.47,2.89,4.93,4.06,7.32
			c1.85,3.78,3.59,7.36,7.1,10.85c0.1,0.1,0.1,0.26,0,0.36C117.81,145.39,117.76,145.42,117.7,145.42z"/>
		<path class="st1" d="M165.65,156.01c-0.04,0-0.09,0-0.13-0.02c-0.11-0.05-10.63-4.9-21.57-22.47
			c-14.89-23.92-31.05-42.77-31.21-42.95c-0.09-0.11-0.08-0.27,0.03-0.36c0.1-0.09,0.27-0.08,0.36,0.03
			c0.16,0.19,16.35,19.06,31.26,43.02c10.85,17.42,21.24,22.23,21.34,22.27c0.13,0.06,0.19,0.21,0.13,0.34
			C165.81,155.95,165.73,156,165.65,156.01z"/>
		<path class="st1" d="M81.25,310c-0.08,0.01-0.15-0.02-0.21-0.08c-0.1-0.1-0.1-0.26,0-0.36c0.31-0.3,31.04-30.23,50.78-42.7
			c9.33-5.89,22.32-15.46,33.78-23.89c13.56-9.98,25.26-18.6,29.33-20.15c8.38-3.2,16.15,2.79,16.22,2.86
			c0.11,0.09,0.13,0.25,0.04,0.36c-0.09,0.11-0.25,0.13-0.36,0.04c-0.08-0.06-7.62-5.88-15.72-2.78c-4,1.53-16.25,10.54-29.21,20.08
			c-11.47,8.44-24.47,18.01-33.81,23.91c-19.7,12.44-50.39,42.33-50.7,42.63C81.36,309.97,81.3,309.99,81.25,310z"/>
		<path class="st1" d="M83.04,312.48c-0.1,0.01-0.2-0.04-0.25-0.13c-0.07-0.13-0.02-0.28,0.1-0.35
			c0.29-0.16,29.39-15.99,52.76-32.86c28.67-20.69,56.53-44.87,61.04-49.37c8.07-8.03,14.39-4.15,14.46-4.11
			c0.12,0.08,0.15,0.24,0.08,0.36c-0.08,0.12-0.23,0.15-0.36,0.08c-0.06-0.04-6.05-3.69-13.82,4.04
			c-4.52,4.5-32.41,28.71-61.11,49.42c-23.39,16.89-52.52,32.74-52.81,32.89C83.1,312.47,83.07,312.48,83.04,312.48z"/>
		<path class="st1" d="M85.04,314.61c-0.14,0.02-0.27-0.09-0.28-0.23c-0.02-0.14,0.09-0.27,0.23-0.29c0.32-0.04,32.01-3.85,62-25.85
			c30.03-22.03,68.31-58.31,68.69-58.68c0.1-0.1,0.27-0.09,0.36,0.01c0.1,0.1,0.09,0.27-0.01,0.36
			c-0.38,0.36-38.68,36.67-68.74,58.72C117.19,310.75,85.36,314.58,85.04,314.61L85.04,314.61z"/>
		<path class="st1" d="M109.28,317.11c-4.05,0.44-7.79,0.43-11.8,0.42c-2.67-0.01-5.44-0.01-8.5,0.11c-0.14,0.01-0.26-0.1-0.27-0.25
			c-0.01-0.14,0.1-0.26,0.25-0.27c3.08-0.12,5.85-0.11,8.52-0.11c13,0.03,23.26,0.05,50.25-15.39
			c42.52-24.32,71.87-67.51,72.16-67.94c0.08-0.12,0.24-0.15,0.36-0.07c0.12,0.08,0.15,0.24,0.07,0.36
			c-0.29,0.43-29.71,43.72-72.33,68.1C129.19,312.84,118.45,316.12,109.28,317.11z"/>
		<path class="st1" d="M79.44,306.59c-0.13,0.01-0.25-0.07-0.28-0.21c-0.03-0.18-0.65-4.49,13.58-18.31
			c41.73-40.54,77.56-61.99,92.16-68.27c13.69-5.89,19.07,0.13,19.29,0.38c0.09,0.11,0.08,0.27-0.03,0.36
			c-0.11,0.09-0.27,0.08-0.36-0.03c-0.05-0.06-5.37-5.99-18.69-0.25c-14.56,6.27-50.33,27.68-92,68.17
			c-13.9,13.5-13.44,17.81-13.43,17.85c0.02,0.14-0.07,0.27-0.21,0.29C79.45,306.59,79.45,306.59,79.44,306.59z"/>
		<path class="st1" d="M365.67,321.12c0,0-30.16-15.92-41.44-21.89c-14.31-7.57-29.42-16.21-43.15-31.2
			c-13.59-14.83-30.26-38.95-30.43-39.2c-0.08-0.12-0.05-0.28,0.07-0.36c0.11-0.08,0.28-0.05,0.36,0.07
			c0.17,0.24,16.82,24.34,30.38,39.14c13.67,14.93,28.74,23.54,43.01,31.09c11.28,5.97,41.44,21.89,41.44,21.89L365.67,321.12z"/>
		<path class="st1" d="M381.71,320.7c-0.05,0.01-0.11,0-0.16-0.03c-0.28-0.16-27.81-16.15-39.06-23.03
			c-6.15-3.76-12.77-8.59-20.43-14.19c-6.3-4.61-13.45-9.83-21.18-15.01c-21.04-14.13-44.69-43.5-44.93-43.8
			c-0.09-0.11-0.07-0.27,0.04-0.36c0.11-0.09,0.27-0.07,0.36,0.04c0.24,0.29,23.84,29.61,44.81,43.69
			c7.74,5.19,14.89,10.42,21.2,15.03c7.65,5.59,14.27,10.42,20.4,14.17c11.25,6.87,38.78,22.86,39.05,23.02
			c0.12,0.07,0.17,0.23,0.09,0.35C381.86,320.65,381.79,320.69,381.71,320.7z"/>
		<path class="st1" d="M390.77,316.62c-0.06,0.01-0.13-0.01-0.18-0.05c-0.18-0.13-18.12-13.23-35.97-25.57
			c-8-5.53-19.59-12.52-30.79-19.29c-14.39-8.69-27.99-16.9-34-21.91c-10.65-8.89-28.57-28.73-28.75-28.93
			c-0.1-0.11-0.09-0.27,0.02-0.36c0.1-0.09,0.27-0.09,0.36,0.02c0.18,0.2,18.08,20.01,28.7,28.88c5.97,4.99,19.56,13.19,33.93,21.87
			c11.21,6.77,22.81,13.77,30.82,19.3c17.86,12.34,35.8,25.45,35.98,25.58c0.12,0.08,0.14,0.24,0.06,0.36
			C390.9,316.57,390.84,316.61,390.77,316.62z"/>
		<path class="st1" d="M394.48,311.58c-0.07,0.01-0.14-0.01-0.2-0.07c-0.13-0.12-12.96-11.76-24.6-21.3
			c-12.54-10.28-35.47-23.6-51.3-31.89c-18.82-9.85-48.92-37.63-49.22-37.91c-0.1-0.1-0.11-0.26-0.01-0.36
			c0.09-0.1,0.26-0.11,0.36-0.01c0.3,0.28,30.35,28.01,49.11,37.83c15.85,8.29,38.81,21.64,51.39,31.95
			c11.65,9.55,24.5,21.2,24.62,21.32c0.11,0.1,0.11,0.26,0.02,0.36C394.6,311.54,394.54,311.57,394.48,311.58z"/>
		<path class="st1" d="M396.56,296.31c-0.1,0.01-0.2-0.04-0.25-0.13c-0.05-0.09-4.8-8.75-17.1-17.47
			c-8.36-5.92-17.02-9.56-25.39-13.08c-4-1.68-8.14-3.42-12.21-5.39c-11.07-5.37-34.87-17.13-35.11-17.25
			c-0.13-0.06-0.18-0.22-0.12-0.35c0.06-0.13,0.22-0.18,0.35-0.12c0.24,0.12,24.04,11.89,35.11,17.25c4.06,1.97,8.19,3.7,12.19,5.38
			c8.4,3.53,17.08,7.18,25.49,13.13c12.41,8.79,17.21,17.56,17.26,17.64c0.07,0.13,0.02,0.28-0.11,0.35
			C396.63,296.3,396.6,296.31,396.56,296.31z"/>
		<path class="st1" d="M389.94,279.26c-0.1,0.01-0.2-0.04-0.26-0.14c-0.02-0.04-2.29-4.15-12.08-11.64
			c-9.83-7.52-40.25-18.75-40.56-18.86c-0.13-0.05-0.2-0.2-0.15-0.33c0.05-0.13,0.2-0.2,0.33-0.15c0.31,0.11,30.8,11.36,40.69,18.94
			c9.91,7.58,12.13,11.64,12.22,11.81c0.07,0.13,0.02,0.28-0.11,0.35C390,279.24,389.97,279.25,389.94,279.26z"/>
		<path class="st1" d="M382.08,264.72c-0.09,0.01-0.19-0.03-0.24-0.11c-0.04-0.06-4.46-6.44-13.21-10.83
			c-3.29-1.65-17.47-6.19-17.61-6.24c-0.14-0.04-0.21-0.19-0.17-0.32s0.19-0.21,0.32-0.17c0.58,0.19,14.37,4.6,17.69,6.27
			c8.87,4.45,13.36,10.93,13.4,11c0.08,0.12,0.05,0.28-0.07,0.36C382.16,264.7,382.12,264.71,382.08,264.72z"/>
		<path class="st1" d="M492.13,264.51c-6.65,0.72-19.84,1.57-33.22-0.9c-16.98-3.13-37.04-11.53-49.02-16.55
			c-1.55-0.65-2.99-1.25-4.28-1.78c-11.28-4.65-20.83-4.72-20.92-4.72c-0.14,0-0.26-0.12-0.26-0.26c0-0.14,0.13-0.25,0.26-0.26
			c0.1,0,9.74,0.07,21.12,4.76c1.29,0.53,2.73,1.13,4.28,1.78c11.97,5.01,31.99,13.39,48.92,16.52c18.84,3.48,37.29,0.35,37.48,0.32
			c0.12-0.05,0.27,0.07,0.3,0.21c0.03,0.14-0.07,0.27-0.21,0.3C496.51,263.94,494.88,264.22,492.13,264.51z"/>
		<path class="st1" d="M482.48,270.03c-8.56,0.93-24.72,2.09-38-0.36c-22.88-4.22-50.58-19.32-65.05-27.95
			c-0.12-0.07-0.16-0.23-0.09-0.35c0.07-0.12,0.23-0.16,0.35-0.09c14.44,8.61,42.08,23.68,64.88,27.88
			c18.84,3.48,43.56-0.36,43.81-0.4c0.16-0.02,0.27,0.08,0.3,0.21c0.02,0.14-0.07,0.27-0.21,0.3
			C488.39,269.28,486.13,269.63,482.48,270.03z"/>
		<path class="st1" d="M499.91,260.04c-0.02,0-0.05,0-0.07,0c-0.16-0.03-16.03-2.82-34.91-6.31c-11.92-2.2-21.61-5.28-30.16-7.99
			c-5.16-1.64-10.03-3.19-14.77-4.34c-11.92-2.91-21.12-5.62-21.21-5.64c-0.14-0.04-0.21-0.18-0.17-0.32
			c0.04-0.14,0.18-0.22,0.32-0.17c0.09,0.03,9.28,2.73,21.19,5.64c4.76,1.16,9.64,2.71,14.81,4.35c8.54,2.71,18.21,5.79,30.1,7.98
			c18.88,3.48,34.75,6.28,34.91,6.31c0.14,0.03,0.23,0.16,0.21,0.3C500.11,259.95,500.02,260.03,499.91,260.04z"/>
		<path class="st1" d="M499.95,256.67c-0.04,0-0.08,0-0.11-0.01c-0.17-0.06-16.74-5.82-35.61-9.3c-11.92-2.2-21.61-5.28-30.16-7.99
			c-5.16-1.64-10.03-3.19-14.77-4.34c-11.93-2.91-13.38-3.44-13.44-3.47c-0.13-0.05-0.2-0.2-0.15-0.33c0.05-0.13,0.19-0.2,0.33-0.15
			c0.06,0.02,1.57,0.57,13.38,3.45c4.76,1.16,9.64,2.71,14.81,4.35c8.54,2.71,18.21,5.79,30.1,7.98c18.9,3.49,35.52,9.26,35.68,9.31
			c0.13,0.05,0.21,0.19,0.16,0.33C500.13,256.6,500.05,256.66,499.95,256.67z"/>
		<path class="st1" d="M495.96,249.59c-0.05,0.01-0.09,0-0.14-0.02c-0.07-0.03-7.28-3.44-25.26-10.14
			c-7.95-2.96-16.39-4.97-26.15-7.28c-2.36-0.56-4.77-1.13-7.25-1.74c-11.89-2.9-23.63-4.3-23.75-4.31
			c-0.14-0.02-0.24-0.14-0.23-0.29c0.02-0.14,0.14-0.24,0.29-0.23c0.12,0.01,11.88,1.42,23.81,4.33c2.48,0.61,4.9,1.18,7.25,1.74
			c9.79,2.32,18.24,4.33,26.22,7.3c18.01,6.71,25.23,10.12,25.3,10.16c0.13,0.06,0.18,0.21,0.12,0.34
			C496.13,249.53,496.05,249.58,495.96,249.59z"/>
		<path class="st1" d="M358.89,184.98c-0.08,0.01-0.17-0.02-0.23-0.09c-0.09-0.11-0.07-0.27,0.04-0.36
			c6.57-5.4,12.25-11.88,18.41-21.02c9.27-13.74,13.92-20.63,15.53-25.51c3.38-10.26,3-18.2,2.57-27.4
			c-0.27-5.75-1.09-9.05-2.91-11.77c-0.64-0.95-1.77-2.41-3.84-5.07l-0.04-0.05c-1.24-1.59-2.03-2.57-2.56-3.22
			c-0.87-1.08-1.05-1.3-1.36-1.96c-1.01-2.14-1.08-3.95-1.13-5.4c-0.05-1.31-0.08-2.17-0.76-2.61c-1-0.66-2.9-0.07-5.64,1.75
			c-0.03,0.03-4.99,3.81-7.21,5.23c-3.4,2.15-5.88,2.27-9.03,2.42c-2.29,0.11-4.87,0.23-8.43,1.16c-2.9,0.76-10.62,2.77-16.68,8.97
			c-1.86,1.91-2.86,3.48-3.83,5c-1.28,2.02-2.5,3.92-5.56,6.05c-1.8,1.25-3.12,1.81-4.39,2.34c-1.37,0.58-2.67,1.13-4.52,2.5
			c-2.83,2.12-5.01,4.82-7.76,9.66c-1.21,2.13-3.14,6.52-5.37,11.6c-2.71,6.18-5.79,13.19-8.61,18.51
			c-0.07,0.13-0.23,0.17-0.35,0.11c-0.13-0.07-0.17-0.22-0.11-0.35c2.81-5.3,5.89-12.3,8.59-18.47c2.24-5.1,4.17-9.5,5.4-11.65
			c2.8-4.9,5.01-7.65,7.9-9.81c1.89-1.42,3.22-1.98,4.62-2.57c1.25-0.53,2.54-1.07,4.3-2.29c2.98-2.07,4.11-3.85,5.43-5.9
			c0.94-1.47,2-3.13,3.9-5.08c6.16-6.3,13.97-8.34,16.91-9.11c3.61-0.94,6.23-1.07,8.54-1.18c3.07-0.15,5.5-0.26,8.78-2.34
			c2.21-1.4,7.14-5.17,7.19-5.21c2.98-1.98,5-2.56,6.22-1.76c0.9,0.59,0.94,1.66,1,3.02c0.05,1.4,0.12,3.15,1.09,5.2
			c0.28,0.6,0.44,0.79,1.3,1.86c0.53,0.66,1.32,1.63,2.56,3.23l0.04,0.05c2.07,2.66,3.21,4.13,3.86,5.09
			c1.88,2.81,2.72,6.18,3,12.03c0.44,9.25,0.82,17.24-2.59,27.59c-1.63,4.95-6.29,11.85-15.58,25.62
			c-6.2,9.19-11.91,15.7-18.52,21.14C358.99,184.96,358.94,184.98,358.89,184.98z"/>
		<path class="st1" d="M125.57,322.31c-2.79,0.3-5.57,0.45-8.38,0.45c-11.49,0.01-25.78,0.03-34.38-10.38
			c-6.86-8.32-6.11-18.73-6.01-19.89c0.78-8.39,5.35-13.32,21.1-29.14c16.44-16.52,25.5-25.62,32.21-31.48
			c21.03-18.35,28.33-21.28,34.51-22.86c4.74-1.21,11.89-3.03,20.37-0.92c4.3,1.07,7.67,2.86,26.16,17.57
			c13.42,10.68,13.69,11.39,14.15,12.58l0,0c4.94,12.87-12.87,30.73-25.87,43.76c-24.95,25.01-48.29,34.04-57.17,36.77
			C136.43,320.57,130.98,321.73,125.57,322.31z M173.14,207.87c-3.27,0.35-6.1,1.08-8.38,1.66c-5.88,1.5-13.37,4.49-34.3,22.75
			c-6.7,5.84-15.75,14.94-32.19,31.45c-15.64,15.72-20.18,20.61-20.95,28.82c-0.11,1.14-0.84,11.36,5.89,19.51
			c8.44,10.23,22.6,10.21,33.98,10.19c8.2-0.01,16.13-1.27,24.93-3.97c8.84-2.71,32.09-11.71,56.96-36.64
			c12.9-12.94,30.58-30.65,25.75-43.22c-0.45-1.16-1.27-2.24-13.99-12.35c-18.4-14.65-21.74-16.43-25.96-17.48
			C180.58,207.53,176.61,207.49,173.14,207.87z"/>
		<path class="st1" d="M227.67,238.93c-1.33,0.14-2.31,0.03-2.77-0.4c-2.47-2.32-5.28-4.79-8.52-7.66
			c-7.89-6.97-18.7-16.53-32.3-30.68c-2.77-2.88-4.32-5.39-5.07-6.59c-0.15-0.23-0.26-0.42-0.35-0.55
			c-9.31-13.79-12.06-26.81-12.87-33.35c-1.12-9.01-1.79-14.44,1.79-19.6c4.17-6.01,11.74-7.81,15.37-8.68
			c3.3-0.79,8.81-2.1,14.76-0.04c1.56,0.54,2.63,1.13,3.66,1.7c1.41,0.78,2.74,1.51,5.16,1.95c2.24,0.41,3.57,0.23,5.1,0.03
			c1.1-0.14,2.33-0.31,4.07-0.26c3.62,0.09,5.61,0.95,7.91,1.95c1.59,0.69,3.23,1.4,5.65,1.98c3.97,0.96,8.01,0.57,16.05-0.21
			c5.11-0.5,8.17-0.52,10.87-0.54c2.89-0.02,5.38-0.04,9.62-0.61c2.12-0.28,4-0.6,5.67-0.89c5.3-0.9,8.79-1.48,12.26,0.22
			c7.26,3.59,10.15,10.69,10.65,12.08c1,2.74,1.87,6.55-0.46,17.12c-1.93,8.77-4.12,18.72-11.44,29.79
			c-1.8,2.73-2.64,3.58-4.47,5.45c-2.07,2.12-5.55,5.67-13.35,14.97c-5.61,6.69-10.96,10.88-13.64,12.79l0,0
			C244.68,233.39,233.16,238.34,227.67,238.93z M188.28,130.95c-2.04,0.22-3.82,0.65-5.21,0.98c-3.86,0.92-11.02,2.63-15.08,8.47
			c-3.47,5-2.8,10.36-1.7,19.24c0.8,6.49,3.54,19.42,12.79,33.12c0.09,0.13,0.21,0.32,0.36,0.57c0.74,1.19,2.27,3.67,5,6.51
			c13.58,14.14,23.94,23.29,32.27,30.65c3.25,2.87,6.06,5.35,8.53,7.67c1.68,1.57,16.3-3.17,25.47-9.68
			c2.66-1.89,7.97-6.05,13.54-12.7c7.81-9.32,11.29-12.87,13.37-15c1.81-1.85,2.63-2.69,4.4-5.37c7.26-10.99,9.44-20.88,11.37-29.61
			c2.3-10.43,1.45-14.16,0.48-16.83c-0.49-1.36-3.31-8.3-10.4-11.8c-3.31-1.64-6.75-1.06-11.94-0.18c-1.67,0.28-3.56,0.6-5.68,0.89
			c-4.26,0.57-6.77,0.59-9.68,0.62c-2.69,0.02-5.73,0.04-10.82,0.54c-8.1,0.79-12.17,1.18-16.22,0.2c-2.46-0.59-4.2-1.35-5.73-2.01
			c-2.25-0.98-4.2-1.82-7.72-1.9c-1.69-0.04-2.86,0.11-3.99,0.26c-1.58,0.21-2.94,0.39-5.26-0.04c-2.5-0.45-3.87-1.21-5.32-2.01
			c-1.01-0.56-2.06-1.13-3.58-1.66C194.21,130.72,191.02,130.65,188.28,130.95z M250.87,228.69L250.87,228.69L250.87,228.69z"/>
		<path class="st1" d="M435.59,190.22c-1.38,0.15-2.82,0.25-4.33,0.3c-4.98,0.16-7.84-0.43-16.31-2.17
			c-2.99-0.62-6.72-1.38-11.5-2.31l-0.21-0.04c-0.79-0.16-2.01-0.39-3.45-0.67c-0.01,0-0.02,0-0.03-0.01
			c-4.04-0.78-9.79-1.87-12.67-2.32c-13.87-2.17-23.82,0.63-40.31,5.28c-7.08,2-15.1,4.26-25.14,6.62
			c-7.13,1.67-26.98,4.34-42.9,5.39c-0.14,0.01-0.26-0.1-0.27-0.24c-0.01-0.14,0.12-0.26,0.24-0.27c15.89-1.05,35.71-3.7,42.82-5.37
			c10.03-2.36,18.04-4.62,25.12-6.62c16.55-4.67,26.54-7.49,40.53-5.3c2.86,0.45,8.54,1.53,12.59,2.31
			c3.15-2.49,10.63-5.82,13.55-6.74c8.59-2.73,14.77-4.7,21.82-6.11c9.19-1.84,16.45-3.3,25.12-1.1c3.95,1,12.47,4.02,12.09,6.49
			c-0.16,1.06-1.9,1.5-2.94,1.77l-0.08,0.02c-4.32,1.11-6,2.09-7.95,3.23c-2.1,1.23-4.47,2.62-10.67,4.46
			C446.1,188.18,441.36,189.6,435.59,190.22z M400.43,184.93c1.2,0.23,2.21,0.43,2.91,0.56l0.21,0.04c4.78,0.93,8.51,1.7,11.51,2.32
			c8.66,1.78,11.27,2.32,16.19,2.16c7.76-0.25,13.63-2,19.32-3.69c6.14-1.83,8.48-3.2,10.55-4.42c1.98-1.16,3.69-2.16,8.08-3.29
			l0.08-0.02c0.85-0.22,2.44-0.62,2.56-1.34c0.25-1.59-6.09-4.48-11.71-5.91c-8.56-2.17-15.41-0.79-24.9,1.11
			c-7.03,1.41-13.19,3.37-21.72,6.08C410.62,179.44,403.62,182.58,400.43,184.93z"/>
		<path class="st1" d="M347.08,248.06c-9.09,0.98-17.25,0.75-26.49-1.11c-15.39-3.1-27.43-9.45-34.81-14.23
			c-6.78-4.39-17.63-12.76-21.5-16.59c-0.1-0.1-0.1-0.26,0-0.36c0.1-0.1,0.26-0.1,0.36,0c3.85,3.81,14.66,12.15,21.42,16.53
			c7.35,4.75,19.32,11.07,34.63,14.16c19.66,3.96,34.46,0.5,63.94-6.39c4.12-0.96,8.68-2.21,14.12-4.78c4.4-2.08,6.43-3.65,9-5.63
			c1.92-1.48,4.09-3.16,7.73-5.42c5.43-3.37,8.92-4.8,12.29-6.19c3.72-1.52,7.22-2.96,12.94-6.88c5.08-3.48,8.64-6.67,10.99-8.79
			c6.84-6.15,17.64-18.32,20.15-25.18c0.05-0.13,0.2-0.2,0.33-0.15c0.13,0.05,0.2,0.2,0.15,0.33c-2.54,6.94-13.41,19.2-20.29,25.38
			c-2.36,2.12-5.93,5.33-11.04,8.83c-5.76,3.94-9.29,5.39-13.03,6.93c-3.36,1.38-6.82,2.8-12.22,6.15
			c-3.61,2.24-5.78,3.91-7.69,5.38c-2.6,2-4.65,3.59-9.1,5.69c-5.48,2.59-10.08,3.85-14.22,4.82
			C369.01,244.23,357.44,246.94,347.08,248.06z"/>
		<path class="st1" d="M395.43,109.2c-0.08,0.01-0.15-0.02-0.21-0.07c-0.1-0.1-0.1-0.26,0-0.36c1.96-1.97,9.17-10.4,11.33-12.93
			c5.13-6.02,10.57-13.78,15.31-21.86c6.39-10.89,9.6-16.36,10.3-21.26c0.25-1.76,0.34-3.36,0.42-4.91c0.19-3.5,0.36-6.8,2.43-11.14
			c0.63-1.34,2.14-3.79,5.15-8.67c1.05-1.71,1.93-3.04,2.64-4.11c1.76-2.67,2.57-3.88,2.79-5.98c0.32-3.01,0.98-9.26-1-11.25
			c-1.22-1.22-4.17-0.61-6.32-0.17c-0.72,0.15-1.39,0.29-1.92,0.34c-0.25,0.03-0.51,0.05-0.78,0.07c-2.07,0.18-5.19,0.45-11.18,3.47
			c-7.36,3.72-10.84,5.27-12.92,6.2c-2.18,0.97-2.99,1.33-5.29,2.84c-2.31,1.52-3.17,2.26-4.6,3.48c-1.55,1.33-3.68,3.16-8.91,7.08
			c-6.93,5.2-11.53,8.23-13.65,9.58c-3.94,2.5-5.71,3.4-7.01,4.06c-1.14,0.58-1.89,0.96-3.44,2.12
			c-6.82,5.09-10.45,11.17-14.64,18.21c-1.88,3.16-2.79,5.04-3.74,7.03c-1,2.08-2.02,4.22-4.24,8c-1,1.71-2.55,3.93-4.35,6.51
			c-4.41,6.33-10.45,15-15.26,25.52c-0.06,0.13-0.21,0.19-0.34,0.13c-0.13-0.06-0.19-0.21-0.13-0.34
			c4.83-10.57,10.89-19.26,15.31-25.6c1.79-2.57,3.34-4.79,4.33-6.48c2.21-3.76,3.23-5.89,4.22-7.96c0.96-2,1.87-3.89,3.76-7.07
			c4.23-7.09,7.88-13.21,14.78-18.36c1.58-1.18,2.35-1.57,3.51-2.16c1.29-0.66,3.05-1.55,6.96-4.04c2.12-1.34,6.7-4.37,13.62-9.56
			c5.22-3.91,7.34-5.73,8.89-7.06c1.44-1.24,2.31-1.98,4.65-3.52c2.33-1.53,3.16-1.9,5.36-2.88c2.08-0.93,5.55-2.47,12.9-6.19
			c6.07-3.07,9.25-3.36,11.36-3.53c0.27-0.02,0.53-0.05,0.77-0.07c0.5-0.05,1.17-0.19,1.87-0.34c2.39-0.5,5.37-1.11,6.79,0.31
			c2.16,2.16,1.48,8.58,1.15,11.66c-0.24,2.23-1.12,3.56-2.87,6.21c-0.71,1.07-1.59,2.4-2.63,4.1c-2.99,4.87-4.5,7.31-5.12,8.63
			c-2.02,4.25-2.19,7.51-2.37,10.95c-0.08,1.56-0.17,3.18-0.42,4.96c-0.71,5-3.94,10.5-10.37,21.45
			c-4.75,8.1-10.21,15.89-15.36,21.93c-2.16,2.54-9.38,10.98-11.35,12.96C395.54,109.16,395.48,109.19,395.43,109.2z"/>
		<path class="st1" d="M390.94,142.8c-0.14,0.02-0.27-0.09-0.28-0.23c-0.02-0.14,0.09-0.27,0.23-0.28
			c14.05-1.52,27.34-6.87,39.49-15.91c3.31-2.46,10.33-8.94,19.28-17.79l0.75-0.74c4.52-4.49,7.79-7.73,13.25-8.83
			c2.8-0.56,5.68-0.33,11.4,0.15c6.16,0.51,8.8,1.2,11.06,2.14c0.85,0.36,1.59,0.72,2.31,1.08c1.4,0.7,2.6,1.29,4.07,1.48
			c1,0.13,2.09-0.24,2.31-1.33c0.25-1.29-1-2.57-1.77-3.22c-2.81-2.37-5.76-3.04-9.49-3.88c-0.63-0.14-1.28-0.29-1.95-0.45
			c-4.22-1.01-14.39-2.26-21.75-1.87c-0.27,0.01-0.61,0.03-1.02,0.05c-3.01,0.13-10.05,0.45-20.96,1.74l-1.06,0.12
			c-6.57,0.77-21.94,2.56-34.51,6.51c-0.14,0.05-0.28-0.03-0.32-0.17c-0.04-0.14,0.03-0.28,0.17-0.32
			c12.61-3.97,28.02-5.77,34.6-6.53l1.06-0.12c10.92-1.29,17.98-1.6,21-1.74c0.41-0.02,0.75-0.03,1.02-0.05
			c7.41-0.39,17.65,0.87,21.89,1.89c0.67,0.16,1.32,0.31,1.95,0.45c3.81,0.86,6.81,1.54,9.71,3.99c0.85,0.72,2.24,2.16,1.94,3.71
			c-0.24,1.21-1.42,1.93-2.88,1.75c-1.55-0.19-2.79-0.81-4.23-1.53c-0.71-0.35-1.44-0.72-2.28-1.06c-2.22-0.92-4.82-1.6-10.91-2.1
			c-5.67-0.47-8.52-0.71-11.25-0.16c-5.3,1.07-8.53,4.26-12.99,8.69l-0.75,0.74c-8.96,8.86-16.01,15.36-19.33,17.84
			C418.63,135.75,404.89,141.29,390.94,142.8z"/>
		<path class="st1" d="M428.9,173.91c-0.09,0.01-0.18-0.03-0.23-0.1c-0.09-0.11-0.07-0.28,0.05-0.36c5.42-4.12,8.6-8.4,11.68-12.53
			c2.24-3,4.35-5.84,7.23-8.58c3.25-3.09,6.34-5.88,9.32-8.58c5.05-4.56,9.82-8.87,14.01-13.46c2.77-3.03,5.05-6.6,7.26-10.05
			c4-6.25,8.14-12.71,15.4-16.47c0.12-0.06,0.28-0.02,0.35,0.11c0.07,0.13,0.02,0.28-0.11,0.35c-7.13,3.69-11.24,10.1-15.2,16.29
			c-2.22,3.47-4.52,7.05-7.32,10.12c-4.2,4.6-8.98,8.92-14.04,13.49c-2.98,2.69-6.06,5.48-9.31,8.57c-2.85,2.71-4.94,5.53-7.17,8.51
			c-3.1,4.17-6.3,8.47-11.78,12.64C428.99,173.88,428.94,173.9,428.9,173.91z"/>
		<path class="st1" d="M263.49,100.53c-0.01,0-0.02,0-0.03,0c-0.14,0-0.26-0.11-0.26-0.26c-0.02-2.75,0.94-10.83,2.56-15.77
			c4.77-14.55,18.02-33.7,21.58-37.8c3.93-4.52,21.35-22.43,27.92-27.85c3.13-2.58,9.64-7.95,19.17-11.46
			c2.99-1.1,5.47-1.73,7.65-2.28c4.02-1.01,7.19-1.81,11-4.99c0.42-0.35,0.83-0.71,1.24-1.08c1.75-1.55,3.39-3.02,4.76-2.43
			c1.93,0.83,1.74,5.11,1.43,8.26c-0.51,5.12-2.56,9.14-3.73,11.08c-0.84,1.39-1.43,2.09-1.9,2.66c-0.55,0.66-0.88,1.05-1.21,2.1
			c-0.62,1.98-0.3,3.42,0.07,5.09c0.26,1.16,0.55,2.47,0.54,4.12c-0.01,2.1-0.51,3.44-3.08,9.38c-3.79,8.76-5.28,14.75-5.33,14.95
			c0,0.01,0,0.01-0.01,0.02c-0.9,3.14-1.12,6.4-1.47,11.79c-0.28,4.34-0.63,9.74-1.48,17.43c-0.02,0.14-0.14,0.24-0.28,0.23
			c-0.14-0.02-0.24-0.14-0.23-0.28c0.85-7.68,1.2-13.07,1.48-17.41c0.35-5.43,0.56-8.7,1.48-11.9l0.05,0.01
			c0.17-1.3,2.22-7.91,5.31-15.05c2.67-6.15,3.03-7.27,3.04-9.18c0-1.6-0.27-2.82-0.53-4.01c-0.39-1.74-0.72-3.24-0.06-5.35
			c0.36-1.14,0.74-1.59,1.31-2.27c0.46-0.55,1.04-1.24,1.86-2.59c1.15-1.9,3.15-5.85,3.66-10.86c0.46-4.61,0.08-7.22-1.12-7.73
			c-1.06-0.45-2.59,0.91-4.21,2.34c-0.41,0.36-0.83,0.73-1.25,1.08c-3.9,3.26-7.12,4.07-11.2,5.1c-2.17,0.55-4.64,1.17-7.6,2.26
			c-9.45,3.48-15.91,8.81-19.02,11.38c-6.56,5.41-23.94,23.28-27.86,27.79c-3.54,4.07-16.74,23.14-21.48,37.62
			c-1.6,4.89-2.55,12.89-2.53,15.61C263.72,100.41,263.62,100.52,263.49,100.53z"/>
		<path class="st1" d="M195.22,122.73c-0.06,0.01-0.11-0.01-0.16-0.04c-5.35-3.31-12.92-9.15-18.63-18.16
			c-8.73-13.78-8.87-27.54-8.97-38.59c-0.06-6.38,1.25-13.96,3.85-29.07c3.83-22.23,6.34-26.86,9.89-27.97
			c2.12-0.66,3.72,0.08,13.83,5.54c12.61,6.81,18.95,10.23,20.66,11.45c7.55,5.39,11.93,10.25,19.18,18.3
			c6.32,7.02,10.88,12.07,15.56,20c3.32,5.63,7.87,13.34,9.32,24.21c0.5,3.78,0.6,7.64,0.28,11.47c-0.01,0.14-0.14,0.25-0.28,0.24
			c-0.14-0.01-0.25-0.14-0.24-0.28c0.31-3.8,0.22-7.62-0.28-11.36c-1.44-10.77-5.96-18.43-9.26-24.01
			c-4.65-7.88-8.96-12.66-15.48-19.9c-7.24-8.04-11.61-12.88-19.11-18.24c-1.69-1.21-8.01-4.62-20.61-11.42
			c-9.95-5.37-11.51-6.1-13.44-5.5c-3.28,1.02-5.77,5.72-9.54,27.56c-2.6,15.09-3.91,22.66-3.85,28.99
			c0.11,10.99,0.24,24.67,8.89,38.32c5.66,8.92,13.16,14.71,18.46,18c0.12,0.07,0.16,0.23,0.08,0.35
			C195.37,122.68,195.3,122.72,195.22,122.73z"/>
		<path class="st1" d="M171.4,179.35c-0.01,0-0.02,0-0.03,0c-14.52,0.03-27.95-4.11-39.92-12.3c-10.79-7.38-16.79-16.04-20.76-21.77
			c-6.1-8.8-9.9-18.86-17.47-38.89c-5.8-15.34-6.8-20.73-7.41-23.95c-0.44-2.37-0.64-3.45-2.51-6.55l-0.18-0.3
			c-1.45-2.39-4.47-7.36-2.54-10.87c1.09-1.98,3.36-2.75,5.43-3.24c7.49-1.78,13.96-0.79,19.16,0c0.63,0.1,1.25,0.19,1.85,0.28
			c7.82,1.13,12.03,0.82,15.1,0.59c3.33-0.24,5.35-0.39,9.13,1.4c5.5,2.6,8.61,6.4,14.26,13.31c2.96,3.63,4.19,5.72,5.61,8.14
			c1.3,2.22,2.77,4.73,5.93,8.96c2.77,3.71,4.56,5.69,6.46,7.79c1.78,1.97,3.62,4,6.42,7.63c4.89,6.33,10.37,15.4,11.07,21.91
			c0.02,0.14-0.09,0.27-0.23,0.28s-0.27-0.09-0.28-0.23c-0.69-6.4-6.12-15.38-10.97-21.65c-2.79-3.61-4.62-5.63-6.39-7.6
			c-1.9-2.11-3.7-4.09-6.49-7.83c-3.18-4.26-4.66-6.78-5.96-9.01c-1.41-2.4-2.62-4.47-5.56-8.07c-5.6-6.85-8.69-10.62-14.08-13.17
			c-3.66-1.73-5.62-1.59-8.87-1.35c-3.09,0.23-7.33,0.54-15.21-0.6c-0.6-0.09-1.22-0.18-1.85-0.28c-5.16-0.79-11.58-1.76-18.97-0.01
			c-1.96,0.47-4.1,1.18-5.1,2.99c-1.79,3.25,1.12,8.05,2.52,10.36l0.18,0.3c1.92,3.17,2.12,4.28,2.58,6.72
			c0.6,3.21,1.6,8.57,7.37,23.83c7.57,20.02,11.36,30.06,17.43,38.81c3.95,5.7,9.91,14.31,20.62,21.64
			c11.89,8.13,25.22,12.24,39.63,12.21c0.14,0,0.26,0.12,0.26,0.26C171.63,179.23,171.53,179.34,171.4,179.35z"/>
		<path class="st1" d="M125.34,62.73c-0.1,0.01-0.2-0.04-0.25-0.13c-2.82-4.91-6.46-12.04-8.23-17.3c-1.42-4.23-1.6-7.66-1.8-11.64
			c-0.2-3.88-0.4-7.89,0.74-12.98c1.11-4.94,2.88-8.22,5.11-12.38c1.79-3.34,2.78-5.18,4.3-5.91c4.5-2.15,10.86,1.99,13.6,4.48
			c4.9,4.46,6.14,5.88,9.84,10.08c0.66,0.75,1.39,1.58,2.24,2.54c0.41,0.46,1.05,1.15,1.88,2.03c3.87,4.12,11.92,12.69,17.88,21.84
			c0.08,0.12,0.04,0.28-0.08,0.36c-0.12,0.08-0.28,0.04-0.36-0.08c-5.94-9.11-13.97-17.66-17.83-21.77
			c-0.83-0.89-1.48-1.58-1.89-2.04c-0.85-0.96-1.58-1.79-2.24-2.54c-3.68-4.19-4.92-5.6-9.8-10.04c-3.08-2.8-9.08-6.28-13.03-4.4
			c-1.31,0.63-2.19,2.2-4.07,5.69c-2.21,4.12-3.96,7.38-5.06,12.25c-1.13,5.02-0.94,8.82-0.73,12.85c0.2,3.94,0.37,7.34,1.77,11.5
			c1.76,5.23,5.39,12.32,8.19,17.21c0.07,0.12,0.03,0.28-0.1,0.35C125.41,62.72,125.37,62.73,125.34,62.73z"/>
		<path class="st1" d="M379.87,320.96c-1.07,0.12-2.12,0.18-3.14,0.24c-18.33,0.93-33.61-3.56-36.49-4.48
			c-9.02-2.85-24.12-7.63-41.12-19.27c-12.4-8.5-20.21-16.89-35.77-33.61c-1.81-1.94-3.48-3.7-5.1-5.39
			c-6.13-6.41-11.42-11.95-19.39-23.17c-0.08-0.12-0.06-0.28,0.06-0.36c0.12-0.08,0.28-0.06,0.36,0.06
			c7.95,11.19,13.23,16.72,19.35,23.12c1.62,1.7,3.3,3.45,5.11,5.39c15.54,16.7,23.33,25.07,35.69,33.54
			c16.94,11.61,31.99,16.37,40.99,19.21c2.86,0.91,18.07,5.38,36.31,4.45c4.55-0.24,9.76-0.79,13.86-4.51
			c5.33-4.83,5.76-12.21,5.91-14.99c0.32-5.54-0.88-11.28-7.96-24.22c-0.74-1.35-1.52-2.9-2.41-4.7
			c-3.78-7.56-8.95-17.92-18.57-27.9c-0.1-0.1-0.1-0.27,0.01-0.36c0.1-0.1,0.26-0.1,0.36,0.01c9.67,10.04,14.87,20.44,18.66,28.02
			c0.9,1.79,1.67,3.34,2.4,4.68c7.13,13.05,8.34,18.86,8.02,24.49c-0.16,2.84-0.59,10.37-6.08,15.34
			C387.61,319.54,383.66,320.55,379.87,320.96z"/>
		<path class="st1" d="M458.56,278.36c-9.87,1.07-22.83,0.99-36.82-3.34c-4.79-1.48-9.16-3.3-12.63-5.27
			c-9.95-5.63-26.51-23.45-29.76-28.1c-0.08-0.12-0.05-0.28,0.06-0.36c0.12-0.08,0.28-0.06,0.36,0.06
			c3.24,4.63,19.7,22.36,29.6,27.95c3.44,1.94,7.77,3.75,12.53,5.22c24.42,7.56,45.74,2.08,52.74,0.27
			c0.09-0.02,9.02-2.38,19.86-9.93c2.27-1.58,4.73-3.51,5.18-6.41c0.45-2.84-1.27-5.4-3.95-8.98c-3.97-5.31-7.18-9-9.31-11.45
			c-0.39-0.45-0.74-0.86-1.06-1.22c-3.98-4.63-5.95-7.74-7.53-10.24c-1.8-2.85-3.1-4.9-6.36-7.43c-4.13-3.2-12.31-7.44-27.88-9.49
			c-0.14-0.02-0.24-0.15-0.22-0.29s0.15-0.24,0.29-0.22c15.68,2.06,23.95,6.35,28.12,9.59c3.33,2.58,4.65,4.67,6.48,7.56
			c1.57,2.49,3.53,5.58,7.48,10.18c0.32,0.37,0.67,0.77,1.06,1.22c2.13,2.45,5.36,6.16,9.33,11.48c2.76,3.69,4.53,6.33,4.05,9.37
			c-0.49,3.1-3.04,5.11-5.4,6.75c-10.92,7.61-19.93,9.98-20.02,10C471.73,276.08,466.03,277.55,458.56,278.36z"/>
		<path class="st1" d="M438.06,298.06c-0.01,0-0.02,0-0.03,0c-7.14,0.75-14.79,0.42-20.47-0.89c-5.49-1.27-12.73-3.66-24.73-11.77
			c-0.12-0.08-0.15-0.24-0.07-0.36c0.08-0.12,0.24-0.15,0.36-0.07c11.93,8.06,19.11,10.43,24.56,11.69
			c5.63,1.3,13.21,1.63,20.3,0.88c0.01,0,0.02,0,0.03,0c3.18-0.34,14.92-3.04,25.37-7.74c6.97-3.14,18.8-11.32,31.07-24.89
			c0.09-0.11,0.25-0.12,0.36-0.02c0.11,0.09,0.11,0.26,0.02,0.36c-12.33,13.63-24.22,21.86-31.24,25.02
			C453.08,295,441.27,297.71,438.06,298.06z"/>
		<path class="st1" d="M351.46,341.93c-2.93,0.32-6.18,0.47-9.68,0.31c-13.55-0.58-23.11-5.42-35.22-11.54
			c-7.24-3.67-22.31-11.29-37.61-26.62c-11.14-11.16-17.74-21.61-20.68-26.85c-6.21-11.05-14.41-34.13-16.05-39.62
			c-0.04-0.14,0.04-0.28,0.17-0.32c0.14-0.05,0.28,0.04,0.32,0.17c1.63,5.48,9.82,28.5,16.01,39.51c2.93,5.21,9.5,15.62,20.6,26.74
			c15.25,15.27,30.26,22.87,37.48,26.52c12.05,6.1,21.56,10.91,35.01,11.49c10.66,0.45,18.94-1.86,22.93-3.28
			c9.81-3.5,26.57-16.13,29.48-27.19c0.04-0.14,0.18-0.22,0.31-0.18c0.14,0.04,0.22,0.18,0.18,0.31
			c-2.96,11.22-19.9,24.01-29.81,27.54C362.18,339.9,357.51,341.28,351.46,341.93z"/>
		<path class="st1" d="M156.32,327.75c-12.25,1.33-27.8-0.41-44.56-5.03c-0.14-0.04-0.22-0.18-0.18-0.32
			c0.04-0.14,0.18-0.22,0.32-0.18c19.38,5.34,37.13,6.81,49.96,4.14c10.52-2.19,18.46-4.97,35.39-12.41
			c11.34-4.98,17.59-7.72,23.75-12.36c8.9-6.69,20.5-19.48,24.49-29.99c0.05-0.13,0.2-0.2,0.33-0.15c0.13,0.05,0.2,0.2,0.15,0.33
			c-4.03,10.6-15.71,23.48-24.67,30.22c-6.21,4.67-12.47,7.42-23.85,12.42c-16.98,7.45-24.94,10.24-35.5,12.44
			C160.17,327.24,158.29,327.54,156.32,327.75z"/>
		<path class="st1" d="M260.81,124.12c-17.94,1.94-37.84-1.71-43.46-7.97c-1.26-1.4-1.73-2.87-1.4-4.37
			c1.59-7.26,16.9-8.81,38.11-10.95l4.25-0.43c10.21-1.05,19.97-0.31,27.48,2.07c6.7,2.12,10.9,5.34,11.26,8.62
			C297.7,117.06,285.5,121.45,260.81,124.12z M245.82,102.2c-16.13,1.75-28.07,3.77-29.37,9.69c-0.29,1.32,0.14,2.64,1.28,3.92
			c5.53,6.16,25.23,9.73,43.02,7.8c30.33-3.28,36.2-8.6,35.78-12.48c-0.63-5.84-15.46-12.56-38.18-10.22l-4.25,0.43
			C251.25,101.63,248.48,101.91,245.82,102.2z"/>
		<path class="st1" d="M221.02,133.1c-0.12,0.01-0.24-0.06-0.27-0.18c-0.01-0.04-1.2-3.91-1.74-5.9c-1.18-4.3-3.08-13.49-3.1-13.58
			c-0.03-0.14,0.06-0.28,0.2-0.31c0.17-0.04,0.28,0.06,0.31,0.2c0.02,0.09,1.91,9.26,3.09,13.55c0.54,1.98,1.73,5.85,1.74,5.89
			c0.04,0.14-0.03,0.28-0.17,0.32C221.05,133.1,221.04,133.1,221.02,133.1z"/>
		<path class="st1" d="M293.69,125.11c-0.04,0-0.08,0-0.12-0.02c-0.13-0.05-0.2-0.2-0.14-0.33c1.92-4.81,3.1-13.6,3.12-13.69
			c0.02-0.14,0.14-0.24,0.29-0.22c0.14,0.02,0.24,0.15,0.22,0.29c-0.01,0.09-1.2,8.93-3.15,13.81
			C293.86,125.04,293.78,125.1,293.69,125.11z"/>
		<path class="st1" d="M152.95,214.75c-0.01,0-0.03,0-0.04,0c-31.34-1.49-53.24-8.19-63.5-12.06c-11.31-4.25-26.8-10.08-43.57-23.18
			c-5.12-4-6.59-5.72-9.26-8.85c-2.79-3.27-7.01-8.22-18.49-19.17c-0.08-0.07-7.61-7.33-14.25-19.55
			c-3.38-6.22-4.16-9.45-2.79-11.53c0.88-1.33,3.04-2.96,11.62-1.87c10.04,1.27,17.24,4.79,23.03,7.62
			c0.55,0.27,1.08,0.53,1.61,0.78c6.76,3.27,20.82,10.05,37.25,14.34l0.99,0.25c4.73,1.22,11.22,2.89,18.34,7.68
			c1.64,1.1,2.48,1.81,4.97,3.9c0.83,0.69,1.83,1.54,3.11,2.6c6.03,5.02,12.87,10.7,16.68,13.42c10.96,7.83,22.25,10.02,26.5,10.85
			c1.49,0.29,14.9,2.72,26.14-1.14c0.13-0.04,0.28,0.03,0.33,0.16c0.05,0.13-0.03,0.28-0.16,0.33c-11.36,3.91-24.9,1.45-26.41,1.16
			c-4.28-0.83-15.65-3.04-26.7-10.93c-3.83-2.73-10.67-8.42-16.71-13.44c-1.28-1.07-2.29-1.91-3.12-2.61
			c-2.48-2.08-3.32-2.78-4.93-3.87c-7.05-4.74-13.48-6.4-18.18-7.61l-0.99-0.26c-16.48-4.3-30.56-11.1-37.33-14.37
			c-0.54-0.26-1.07-0.52-1.62-0.79c-5.75-2.81-12.91-6.31-22.87-7.57c-8.29-1.05-10.32,0.43-11.13,1.64
			c-1.25,1.89-0.46,4.97,2.81,10.99c6.59,12.14,14.08,19.35,14.15,19.42c11.5,10.97,15.73,15.93,18.53,19.21
			c2.65,3.1,4.11,4.81,9.19,8.78c16.7,13.05,32.15,18.86,43.43,23.11c10.24,3.85,32.08,10.54,63.35,12.03
			c0.14,0.01,0.25,0.13,0.24,0.27C153.18,214.64,153.08,214.74,152.95,214.75z"/>
		<path class="st1" d="M102.93,130.56c-0.06,0.01-0.11-0.01-0.16-0.04c-13.44-8.36-33.27-17.53-41.38-19.85
			c-8.89-2.54-17.14-3.81-23.84-3.67c-4.89,0.1-10.11,0.78-15.1,1.95c-1,0.24-2.29,0.44-3.66,0.65c-4.56,0.72-10.23,1.61-11.67,4.48
			c-0.57,1.14-0.42,2.51,0.45,4.16c0.07,0.13,0.02,0.28-0.11,0.35c-0.13,0.07-0.28,0.02-0.35-0.11c-0.95-1.79-1.1-3.35-0.46-4.63
			c1.56-3.11,7.38-4.03,12.05-4.76c1.36-0.21,2.64-0.41,3.62-0.65c5.02-1.18,10.28-1.86,15.21-1.96c6.76-0.14,15.06,1.13,23.99,3.69
			c8.13,2.33,28.04,11.53,41.51,19.91c0.12,0.07,0.16,0.23,0.08,0.35C103.08,130.51,103.01,130.55,102.93,130.56z"/>
		<path class="st1" d="M184.29,200.27c-0.11,0.01-10.79,1.07-31.58-4.99c-20.11-5.86-59.52-25.01-81.08-36.73
			c-19.66-10.69-69.97-37.49-70.47-37.76c-0.13-0.07-0.17-0.22-0.11-0.35c0.06-0.13,0.22-0.17,0.35-0.11
			c0.51,0.27,50.82,27.07,70.48,37.76c21.54,11.71,60.9,30.84,80.98,36.69c20.68,6.03,31.28,4.98,31.38,4.97
			c0.14-0.02,0.27,0.09,0.28,0.23C184.53,200.12,184.43,200.25,184.29,200.27z"/>
		<path class="st1" d="M191.29,207.41c-0.02,0-0.04,0-0.06,0c-0.44-0.05-44.16-5.15-60.83-10.73
			c-19.92-6.67-42.79-18.17-57.55-26.71c-15.46-8.95-64.94-31.83-65.44-32.06c-0.13-0.06-0.19-0.21-0.13-0.34
			c0.06-0.13,0.21-0.18,0.34-0.13c0.5,0.23,50,23.12,65.48,32.08c14.74,8.53,37.57,20.01,57.45,26.67
			c16.63,5.56,60.29,10.66,60.73,10.71c0.14,0.02,0.24,0.14,0.23,0.29C191.51,207.31,191.41,207.4,191.29,207.41z"/>
		<path class="st1" d="M160.95,210.7c-0.02,0-0.03,0-0.05,0c-0.21-0.02-21.48-2.06-40.33-8.34c-17.11-5.7-38.59-16.35-50.12-22.07
			c-1.32-0.66-2.52-1.25-3.57-1.76c-10.12-4.97-43.62-22.21-43.95-22.38c-0.13-0.06-0.18-0.22-0.11-0.35
			c0.06-0.12,0.22-0.17,0.35-0.11c0.34,0.17,33.83,17.41,43.95,22.38c1.05,0.52,2.24,1.11,3.57,1.76
			c11.53,5.71,32.98,16.35,50.06,22.04c18.8,6.26,40.01,8.29,40.22,8.31c0.14,0.01,0.25,0.14,0.23,0.28
			C161.17,210.59,161.07,210.68,160.95,210.7z"/>
		<path class="st1" d="M225.1,238.6c-0.14,0.01-0.26-0.08-0.28-0.22c-0.08-0.56-8.41-56.2-9.89-69.94
			c-1.49-13.76,0.49-33.21,0.51-33.4c0.02-0.14,0.14-0.24,0.28-0.23c0.14,0.01,0.24,0.14,0.23,0.28c-0.02,0.19-2,19.58-0.51,33.3
			c1.49,13.73,9.81,69.36,9.89,69.92c0.02,0.14-0.08,0.27-0.22,0.29C225.11,238.6,225.1,238.6,225.1,238.6z"/>
		<path class="st1" d="M167.75,66.2c-0.11,0.01-0.21-0.04-0.26-0.15c-0.11-0.24-11.47-24.11-20.24-34.51
			c-8.8-10.43-22-28.59-22.14-28.77c-0.08-0.11-0.06-0.28,0.06-0.36c0.12-0.08,0.28-0.06,0.36,0.06
			c0.13,0.18,13.33,18.33,22.11,28.74c8.81,10.45,20.19,34.38,20.31,34.62c0.06,0.13,0.01,0.28-0.12,0.34
			C167.8,66.19,167.77,66.19,167.75,66.2z"/>
		<path class="st1" d="M189.43,130.44c-0.1,0.01-0.21-0.04-0.26-0.14c-0.13-0.26-12.97-25.84-17.07-34.18
			c-10.66-21.64-23-41.76-29.4-51.82c-8.27-13-21.65-35.52-21.78-35.75c-0.07-0.12-0.03-0.28,0.09-0.35
			c0.12-0.07,0.28-0.03,0.35,0.09c0.13,0.23,13.51,22.74,21.77,35.73c6.41,10.07,18.76,30.2,29.43,51.87
			c4.11,8.34,16.94,33.92,17.07,34.18c0.06,0.13,0.01,0.28-0.11,0.35C189.49,130.43,189.46,130.44,189.43,130.44z"/>
		<path class="st1" d="M162.27,101.16c-0.1,0.01-0.2-0.04-0.25-0.13l-24.53-45.05c-8.58-15.75-19.11-42.05-19.22-42.31
			c-0.05-0.13,0.01-0.28,0.14-0.33c0.13-0.05,0.28,0.01,0.33,0.14c0.11,0.26,10.63,26.53,19.19,42.26l24.53,45.05
			c0.07,0.13,0.02,0.28-0.1,0.35C162.33,101.15,162.3,101.16,162.27,101.16z"/>
	</g>
</g>
</svg>
