<?xml version="1.0" encoding="utf-8"?>
<!-- Generator: Adobe Illustrator 25.4.1, SVG Export Plug-In . SVG Version: 6.00 Build 0)  -->
<svg version="1.1" id="Layer_1" xmlns="http://www.w3.org/2000/svg" xmlns:xlink="http://www.w3.org/1999/xlink" x="0px" y="0px"
	 viewBox="0 0 234.77 91.94" style="enable-background:new 0 0 234.77 91.94;" xml:space="preserve">
<style type="text/css">
	.st0{fill:#023936;}
</style>
<g>
	<g>
		<g>
			<path class="st0" d="M31.19,83.73h1.28v4.88l5.92-4.88h1.77l-3.64,3.02l3.88,4.99h-1.55l-3.3-4.2l-3.08,2.49v1.72h-1.28V83.73z"
				/>
			<path class="st0" d="M42.53,83.73h1.28v8.02h-1.28V83.73z"/>
			<path class="st0" d="M49.82,84.8h-4.07v-1.06h9.43v1.06H51.1v6.95h-1.28V84.8z"/>
			<path class="st0" d="M56.36,87.74c0-2.52,1.94-4.19,4.83-4.19c2.9,0,4.83,1.47,4.83,3.68h-1.31c-0.06-1.63-1.47-2.61-3.53-2.61
				c-2.13,0-3.55,1.19-3.55,3.13c0,1.92,1.42,3.13,3.55,3.13c2.07,0,3.48-1,3.53-2.61h1.31c0,2.21-1.94,3.68-4.83,3.68
				C58.29,91.94,56.36,90.26,56.36,87.74z"/>
			<path class="st0" d="M68.3,83.73h1.28v3.36h5.74v-3.36h1.28v8.02h-1.28v-3.6h-5.74v3.6H68.3V83.73z"/>
			<path class="st0" d="M79.35,83.73h7.31v1.06h-6.03v2.39h5.92v0.97h-5.92v2.52h6.03v1.07h-7.31V83.73z"/>
			<path class="st0" d="M89.17,83.73h1.31l6.4,6.46v-6.46h1.28v8.02h-1.32l-6.39-6.45v6.45h-1.28V83.73z"/>
			<path class="st0" d="M104.02,89.36c0-1.29,1.29-2.28,3.1-2.27l-2.38-2.42v-0.94h7.16v1.03h-5.67l4.83,4.83
				c0.7-0.61,1.26-1.37,1.63-2.18l0.7,0.86c-0.45,0.83-1,1.51-1.6,2.05l1.41,1.42h-1.49l-0.78-0.79c-1.02,0.63-2.14,0.93-3.18,0.93
				C106.38,91.89,104.02,91.52,104.02,89.36z M110.19,90.22l-2.36-2.39c-1.2-0.29-2.53,0.21-2.53,1.27c0,1.25,0.9,1.75,2.52,1.75
				C108.69,90.85,109.48,90.61,110.19,90.22z"/>
			<path class="st0" d="M118.49,87.74c0-2.52,1.94-4.19,4.83-4.19c2.9,0,4.83,1.47,4.83,3.68h-1.31c-0.06-1.63-1.47-2.61-3.53-2.61
				c-2.13,0-3.55,1.19-3.55,3.13c0,1.92,1.42,3.13,3.55,3.13c2.07,0,3.48-1,3.53-2.61h1.31c0,2.21-1.94,3.68-4.83,3.68
				C120.42,91.94,118.49,90.26,118.49,87.74z"/>
			<path class="st0" d="M129.9,87.74c0-2.52,1.94-4.19,5.06-4.19c3.14,0,5.07,1.67,5.07,4.19s-1.94,4.19-5.07,4.19
				C131.84,91.94,129.9,90.26,129.9,87.74z M138.76,87.74c0-1.94-1.52-3.13-3.79-3.13c-2.26,0-3.78,1.19-3.78,3.13
				c0,1.92,1.52,3.13,3.78,3.13C137.23,90.87,138.76,89.67,138.76,87.74z"/>
			<path class="st0" d="M141.77,87.74c0-2.52,1.94-4.19,4.83-4.19c2.9,0,4.83,1.47,4.83,3.68h-1.31c-0.06-1.63-1.47-2.61-3.53-2.61
				c-2.13,0-3.55,1.19-3.55,3.13c0,1.92,1.42,3.13,3.55,3.13c2.07,0,3.48-1,3.53-2.61h1.31c0,2.21-1.94,3.68-4.83,3.68
				C143.7,91.94,141.77,90.26,141.77,87.74z"/>
			<path class="st0" d="M153.71,83.73h1.28v4.88l5.92-4.88h1.76l-3.64,3.02l3.88,4.99h-1.55l-3.3-4.2l-3.08,2.49v1.72h-1.28V83.73z"
				/>
			<path class="st0" d="M168.67,84.8h-4.07v-1.06h9.43v1.06h-4.08v6.95h-1.28V84.8z"/>
			<path class="st0" d="M178.7,83.73h1.71l4.92,8.02h-1.44l-1.11-1.87h-6.46l-1.1,1.87h-1.45L178.7,83.73z M182.15,88.82l-2.59-4.42
				l-2.6,4.42H182.15z"/>
			<path class="st0" d="M187.31,83.73h1.28v8.02h-1.28V83.73z"/>
			<path class="st0" d="M191.31,83.73h1.28v6.95h5.85v1.07h-7.14V83.73z"/>
			<path class="st0" d="M199.97,89.22h1.31c0,0.99,1.19,1.65,2.99,1.65c2.07,0,3.25-0.42,3.25-1.36c0-2.45-7.34,0.15-7.34-3.49
				c0-1.61,1.69-2.46,4.13-2.46c2.61,0,4.34,1.06,4.36,2.71h-1.32c0.01-1.01-1.19-1.65-2.98-1.65c-1.86,0-2.9,0.42-2.9,1.25
				c0,2.27,7.33-0.19,7.33,3.59c0,1.64-1.82,2.49-4.46,2.49C201.65,91.94,199.93,90.84,199.97,89.22z"/>
		</g>
	</g>
	<g>
		<path class="st0" d="M51.79,61.92c0-0.37-0.22,0.24-0.64,1.85c0,0.05-0.12,0.13-0.36,0.24c-0.24,0.11-0.52,0.37-0.84,0.8
			c0,0.21-0.05,0.54-0.16,0.97c-0.11,0.16-0.38,0.49-0.8,1.01c-0.22,0.25-0.37,0.47-0.46,0.63c-0.13,0.24-0.39,0.38-0.67,0.39
			c-0.3,0.01-0.7,0.03-1.2,0.06c-0.21,0.11-0.27,0.29-0.16,0.56l0.24,0.64c-0.05,0.27-0.13,0.67-0.24,1.21l0.16,0.16H46
			c-0.11,0-0.32-0.16-0.64-0.48l-0.4,0.4c-0.16-0.16-0.38-0.4-0.64-0.72c0-0.05,0.05-0.13,0.16-0.24c0,0.21,0.11,0.32,0.32,0.32
			c0,0.05,0-0.4,0-1.37c-0.21-0.11-0.35-0.16-0.4-0.16c-0.05,0.16-0.16,0.43-0.32,0.8c0.05-0.27-0.08-0.4-0.4-0.4
			c0.37-0.22,0.62-0.48,0.72-0.8c0.05-0.05,0.03-0.11-0.08-0.16c-0.16,0.21-0.32,0.32-0.48,0.32c-0.11,0-0.13,0-0.08,0
			c0-0.05-0.05-0.08-0.16-0.08c-0.11,0-0.23,0.19-0.36,0.56c-0.13,0.37-0.26,0.64-0.36,0.8c-0.11-0.32-0.24-0.75-0.4-1.29h-0.32
			c-0.11,0.16-0.16,0.56-0.16,1.21c-0.11-0.05-0.24-0.24-0.4-0.56c0,0.11-0.11,0.32-0.32,0.64c-0.26-0.11-0.63-0.76-1.1-1.96
			c-0.01-0.03-0.03-0.07-0.05-0.1c-0.19-0.33-0.45-0.78-0.78-1.37c-0.09-0.16-0.14-0.34-0.11-0.52c0.02-0.18,0.04-0.39,0.04-0.64
			c-0.11-0.16-0.24-0.4-0.4-0.72c-0.1-0.67-0.3-1.61-0.6-2.82c-0.02-0.1-0.07-0.19-0.12-0.27c-0.26-0.37-0.61-0.89-1.04-1.57
			c-0.11-0.11-0.32-0.19-0.64-0.24c-0.05-0.11-0.13-0.24-0.24-0.4c-0.11-0.16-1.39-1.31-3.86-3.46c-0.11-0.37-0.35-0.64-0.72-0.8
			c-1.27-1.17-2.33-2.24-3.16-3.22c-0.09-0.11-0.21-0.17-0.34-0.23c-0.4-0.17-0.88-0.56-1.45-1.18c-0.67-0.72-1.17-1.19-1.49-1.41
			c-0.32-0.21-0.59-0.59-0.8-1.13c-0.05,0-0.16-0.03-0.32-0.08c-0.27-0.43-0.64-0.78-1.13-1.05l-0.97-0.67
			c-0.05-0.03-0.09-0.07-0.13-0.11c-1.18-1.29-2.99-3.17-5.41-5.65h-0.32l-0.16,0.56c0,0.11,0.32,0.72,0.97,1.85
			c0.05,0,0.16-0.04,0.32-0.12c0.16-0.08,0.29-0.12,0.4-0.12l-0.24,0.24c1.07,1.23,2.73,3.03,4.99,5.39
			c0.32,0.32,0.66,0.56,1.02,0.73c0.11,0.05,0.22,0.12,0.29,0.22c0.2,0.25,0.57,0.66,1.1,1.23c0.34,0.34,0.82,0.75,1.43,1.23
			c0.11,0.09,0.19,0.21,0.26,0.34c0.16,0.32,0.48,0.67,0.97,1.04c0.59,0.46,0.94,0.84,1.05,1.17c-0.58-0.42-1.65-1.23-3.21-2.43
			c-0.06-0.04-0.1-0.09-0.15-0.15c-0.25-0.33-0.59-0.69-1.03-1.1c-0.07-0.07-0.16-0.12-0.25-0.16c-0.23-0.1-0.53-0.22-0.89-0.38
			c-0.06-0.03-0.13-0.07-0.18-0.11c-2.26-1.74-4.06-3.35-5.38-4.84c-0.01-0.01-0.01-0.01-0.02-0.02c-0.22-0.27-0.62-0.72-1.2-1.36
			c0,0.42-0.08,1.44-0.23,3.05c-0.01,0.06-0.01,0.12,0,0.17l0.46,4.16c0.01,0.07,0.02,0.13,0.05,0.19c0.15,0.38,0.3,0.97,0.45,1.76
			c0.11,0.48,0.43,0.97,0.96,1.45l-0.27,0.27c-0.36,0.36-0.98,0.32-1.25-0.11c-0.12-0.19-0.23-0.42-0.33-0.68
			c-0.27-0.72-0.51-1.41-0.72-2.05c-0.05,0.05-0.16,0.16-0.32,0.32c-0.05,1.82-0.08,2.95-0.08,3.38c0,0.41-0.1,1.04-0.29,1.89
			c-0.02,0.08-0.03,0.15-0.02,0.23c0.02,0.2,0.09,0.5,0.2,0.9c0.02,0.07,0.03,0.15,0.03,0.23l0,2.94c-0.21,0-0.44,0-0.68,0
			c-0.24,0-0.39,0-0.44,0c0.05,0-0.05-0.13-0.32-0.4c-0.27,0.32-0.72,0.72-1.37,1.21c0.05,0.11,0.08,0.37,0.08,0.8
			c-0.21,0.05-0.51,0.08-0.88,0.08c-0.1,0.14-0.29,0.37-0.6,0.67c-0.08,0.08-0.18,0.16-0.28,0.2c-0.29,0.11-0.61,0.17-0.97,0.17
			c-0.11,0-0.59-0.19-1.45-0.56c-0.16,0.11-0.24,0.19-0.24,0.24c0,0.21,0.24,0.75,0.72,1.61c0.16,0.32,0.37,0.48,0.64,0.48
			c0,0.05-0.13,0.24-0.4,0.56c0.21,0.64,0.03,1.29-0.56,1.93l-0.16,0.64H7.32c-0.21-0.27-0.67-0.62-1.37-1.05
			c0-0.27-0.05-0.51-0.16-0.72v-0.08c0,0.05,0.08-0.03,0.24-0.24c0-0.22,0.03-0.51,0.08-0.88l0.52-0.52
			c0.19-0.19,0.31-0.48,0.22-0.74c-0.04-0.1-0.04-0.22-0.02-0.35c-0.27-0.64-0.59-0.88-0.97-0.72c0,0.21,0.11,0.32,0.32,0.32
			c-0.38-0.05-0.58,0.16-0.6,0.64c-0.03,0.48-0.23,0.72-0.6,0.72c-0.21-0.16-0.43-0.21-0.64-0.16c-0.38-0.7-0.56-1.48-0.56-2.33
			v-0.4c-0.21-0.05-0.46-0.24-0.72-0.56c0.05-0.11,0.08-0.32,0.08-0.64c-0.05-0.16-0.54-0.29-1.45-0.4c0-0.21,0.05-0.5,0.16-0.84
			c0.11-0.35,0.16-0.58,0.16-0.68c0,0.11-0.3-0.86-0.88-2.9c-0.05-0.11-0.16-0.16-0.32-0.16L0,45.38c0-0.02,0-0.04,0-0.06v-5.52
			c0-0.32,0.16-0.86,0.48-1.61c0-0.05-0.04-0.12-0.12-0.2s-0.12-0.17-0.12-0.28c0-0.1,0.15-0.85,0.46-2.23
			c0.01-0.07,0.02-0.14,0.01-0.2c-0.02-0.42,0.08-0.92,0.32-1.52c0.06-0.15,0.08-0.32,0.04-0.48c-0.05-0.22-0.14-0.6-0.27-1.12
			C0.91,32.06,1.07,32,1.29,32c0.16-0.86,0.43-2.01,0.8-3.46c0-0.16,0-0.37,0-0.64c0.16-0.86,0.35-1.61,0.56-2.25
			c0.11-0.21,0.27-0.4,0.48-0.56c-0.05,0.11-0.08-0.11-0.08-0.64h0.48c0,0.21-0.08,0.48-0.24,0.8c0.32,0.54,0.48,0.91,0.48,1.13
			c0,0.11-0.08,0.27-0.24,0.48c-0.16,0.21-0.24,0.38-0.24,0.48c0,0.11,0.03,0.19,0.08,0.24c0.58-0.52,1.03-1.23,1.35-2.12
			c0.01-0.04,0.03-0.09,0.04-0.13c0.13-0.65,0.28-1.28,0.45-1.9c0.06-0.22,0.22-0.41,0.42-0.51C6,22.74,6.19,22.6,6.19,22.52
			c0.21,0,0.54-0.13,0.96-0.4c0,0.11,0.08,0.3,0.24,0.56c0.16-0.16,0.29-0.24,0.4-0.24c0.43,0,0.8,0.21,1.13,0.64
			c0.05,0,0.11,0,0.16,0c0.64,0,1.02,0.08,1.13,0.24c0.16,0,0.28-0.05,0.36-0.16c0.08-0.11,0.15-0.16,0.2-0.16
			c0.27,0.21,0.43,0.32,0.48,0.32c0,0.05-0.03,0.15-0.08,0.28c-0.05,0.13-0.08,0.28-0.08,0.44c0,0.27,0.05,0.54,0.16,0.8
			c0.16-0.16,0.32-0.21,0.48-0.16l0.24-0.16c0-0.11-0.03-0.23-0.08-0.36c-0.05-0.13-0.08-0.25-0.08-0.36l0.48-0.56
			c-1.23-2.73-1.85-4.15-1.85-4.26c0-0.16,0.16-0.4,0.48-0.72c-0.27-0.43-0.54-0.72-0.8-0.88c-0.05-0.16-0.13-0.48-0.24-0.96
			l-0.32,0.24c-0.11-0.21-0.27-0.56-0.48-1.05c0.05,0,0.19,0.11,0.4,0.32l0.4-0.72c0.16-0.32,0.37-0.48,0.64-0.48
			c0.16,0,0.54,0.51,1.13,1.53c0.63,1.11,1.01,1.74,1.16,1.9c0.02,0.02,0.05,0.04,0.07,0.05c0.38,0.24,0.89,0.61,1.52,1.1
			c0.14,0.11,0.23,0.27,0.29,0.43c0.16,0.48,0.51,1.04,1.05,1.67c0.05,0.16,0.97,1.21,2.73,3.14c0.3,0.3,0.57,0.52,0.82,0.68
			c0.04,0.03,0.08,0.06,0.12,0.09c0.14,0.14,0.52,0.52,1.16,1.16c0.45,0.49,0.82,0.76,1.12,0.8c0.16,0.02,0.29,0.13,0.4,0.24
			c0.59,0.64,0.83,0.96,0.74,0.96c0.11,0,0.16-0.03,0.16-0.08c-0.05,0-0.03,0,0.08,0c0.54,0,0.99,0.51,1.37,1.53
			c0,0.22,0.05,0.48,0.16,0.8c0.75,0.75,1.5,1.42,2.25,2.01c0.21-0.11,0.21-0.27,0-0.48c1.72,1.77,4.15,4.02,7.32,6.75l0.16-0.8
			c0.11-0.05,0.24-0.13,0.4-0.24c0-0.11,0.03-0.25,0.08-0.44c0.05-0.19,0.08-0.31,0.08-0.36c0.05,0.38,0.13,0.99,0.24,1.85h0.56
			c0.11-0.26,0.19-0.87,0.24-1.81c0-0.02,0-0.04,0-0.07c0-0.23-0.03-0.7-0.08-1.42c-0.05-0.75-0.08-1.34-0.08-1.77
			c0.05-0.05,0.11-0.13,0.16-0.24c-0.05-0.68,0.02-1.89,0.23-3.61c0.01-0.06,0.01-0.11,0-0.16c-0.05-0.48-0.07-1.21-0.07-2.17
			c0.05-1.02,0.21-2.01,0.48-2.98c-0.05-0.05-0.08-0.11-0.08-0.16c0.21-1.37,0.58-3.36,1.1-5.98c0.02-0.08,0.05-0.17,0.09-0.24
			c0.07-0.13,0.13-0.27,0.17-0.41c0.05-0.19,0.11-0.52,0.16-1.01c0.21-0.21,0.45-0.56,0.72-1.05v0.4c0.05,0.05,0.13,0.08,0.24,0.08
			c0.16,0,0.32-0.16,0.48-0.48C39.16,18.07,39,19.06,39,18.9c0,0.38,0.08,0.72,0.24,1.05c0.1-0.62,0.28-1.57,0.54-2.85
			c0.02-0.08,0.05-0.16,0.09-0.23c0.24-0.41,0.47-1.04,0.71-1.87c0.02-0.07,0.03-0.15,0.03-0.22c0-0.5,0.03-1.16,0.07-1.99
			c0.01-0.1,0.03-0.19,0.06-0.28c0.2-0.45,0.43-1.05,0.71-1.79c0.02-0.06,0.04-0.11,0.04-0.17c0.06-0.48,0.22-1.15,0.47-2.01
			c0,0.32,0.05,0.78,0.16,1.37c0.32-0.32,0.56-0.75,0.72-1.29c0.48-1.07,1.23-2.71,2.25-4.9c0.05-0.16,0.24-0.29,0.56-0.4
			c0,0.64-0.13,1.18-0.4,1.61C45.6,5.01,45.84,4.96,46,4.74c0,0.16,0,0.43,0,0.8c-0.05,0.38-0.08,0.67-0.08,0.88h0.32
			c0.16-0.48,0.45-1.18,0.88-2.09c0-0.05,0.29-0.45,0.88-1.21c0.37-0.43,0.86-1.34,1.45-2.73c0.16,0,0.4,0.05,0.72,0.16v0.56
			C49.43,1.88,49,2.73,48.89,3.7c-0.16,0-0.24,0.08-0.24,0.24c0-0.27,0.05-0.19,0.16,0.24c-0.05,0.32-0.05,0.56,0,0.72
			c0.05,0.11,0.24,0.3,0.56,0.56c0.05,0.05,0.08,0.24,0.08,0.56c0,0.11-0.15,0.6-0.44,1.49c-0.3,0.88-0.44,1.38-0.44,1.49
			c0,0.05,0.08,0.16,0.24,0.32c0.16,0.16,0.24,0.3,0.24,0.4c0,0.05-0.05,0.16-0.16,0.32c-0.11,0.16-0.16,0.3-0.16,0.4
			c0.05,0.35,0.08,0.89,0.08,1.61c0,0.1-0.02,0.21-0.05,0.3c-0.07,0.17-0.19,0.42-0.35,0.74c-0.05,0.05,0.03,0.08,0.24,0.08
			c0.11,0,0.35-0.37,0.72-1.13c0.05-0.16,0.19-0.48,0.4-0.97c0.03-0.1,0.03-0.25-0.02-0.46c-0.06-0.28,0.04-0.57,0.24-0.77
			c0.19-0.19,0.3-0.42,0.34-0.7c0.11-0.64,0.24-1.07,0.4-1.29C50.9,7.99,51,8.31,51.02,8.85c0.01,0.27,0.06,0.48,0.15,0.62
			c0.13,0.22,0.22,0.47,0.14,0.72c-0.08,0.26-0.14,0.59-0.17,0.99c-0.05,0.7-0.3,1.18-0.72,1.45c0,0.05,0.11,0.13,0.32,0.24
			c0.21,0.54,0.32,1.02,0.32,1.45c0,0.11-0.16,0.35-0.48,0.72c0.1,0.2,0.03,0.72-0.2,1.56c-0.02,0.08-0.03,0.17-0.03,0.26
			c0.04,0.61-0.02,1.35-0.16,2.23c-0.01,0.03-0.01,0.06-0.01,0.09c-0.01,0.21-0.06,0.9-0.16,2.05c-0.11,0.05-0.27,0.19-0.48,0.4
			c0.05,0.05,0.27,0.08,0.64,0.08c0,0.11-0.04,0.28-0.12,0.52c-0.08,0.24-0.15,0.42-0.2,0.52c-0.05-0.16-0.08-0.05-0.08,0.32
			c0,0.48,0.16,0.72,0.48,0.72c0.11,0,0.19,0,0.24,0l0.16-0.08c-0.11,0.16-0.13,0.62-0.08,1.37c0.11,0.16,0.29,0.16,0.56,0
			c0.11,0.32,0.16,0.78,0.16,1.37c0,0.11-0.05,0.64-0.16,1.61c-0.11,0.97-0.16,1.58-0.16,1.85c-0.05,0.59-0.05,1.1,0,1.53
			c-0.11,0.05-0.24,0.16-0.4,0.32c0.05,0.05,0.13,0.08,0.24,0.08c0,0.11-0.08,0.27-0.24,0.48c0.48,0.59,0.43,1.37-0.16,2.33
			c0.11,0.11,0.21,0.24,0.32,0.4c0.11,0.21,0.11,0.46,0,0.72c0,0.05,0.05,0.13,0.16,0.24l-0.16,10.61c0-0.05-0.21-0.45-0.64-1.21
			c-0.11,0.11-0.16,0.48-0.16,1.13c0-0.16,0.13,1.03,0.39,3.57c0.01,0.08-0.01,0.16-0.03,0.24c-0.07,0.24-0.08,0.74-0.03,1.5
			c0,0.43,0.08,1.02,0.24,1.77c0.11,0.48,0.05,0.8-0.16,0.97c0.18,1.06,0.25,1.74,0.2,2.05c-0.02,0.12,0,0.24,0.04,0.35
			c0.2,0.62,0.46,1.46,0.79,2.52c0.01,0.04,0.02,0.09,0.03,0.13c0.05,0.42,0.13,0.99,0.23,1.7c0,0.05,0.03,0.13,0.08,0.24
			C51.76,61.7,51.79,61.81,51.79,61.92z M2.41,63.69H2.25v-0.32h0.16V63.69z M5.63,62.88l-0.72-0.32c0,0.37,0.03,0.56,0.08,0.56
			C5.2,62.96,5.41,62.88,5.63,62.88z M7.24,20.83l-0.16,0.16l-0.16-0.16L7,20.67L7.24,20.83z M9.41,60.07
			c0.11,0.22,0.24,0.46,0.4,0.72h0.48c0-0.05,0.05-0.19,0.16-0.4C10.18,60.18,9.84,60.07,9.41,60.07z M25.57,36.11
			c0-0.3-0.23-0.8-0.69-1.52c-0.07-0.11-0.17-0.2-0.28-0.27c-0.43-0.27-1.04-0.83-1.84-1.67c-0.32-0.37-0.78-0.83-1.37-1.37
			c-0.27-0.16-1.42-1.29-3.48-3.39c-0.04-0.04-0.08-0.07-0.13-0.11c-0.16-0.11-0.38-0.25-0.66-0.44c-0.21,0-0.32,0.16-0.32,0.48
			c0,0.21,0.4,0.72,1.21,1.53c0.78,0.78,1.87,1.93,3.3,3.45c0.1,0.11,0.24,0.17,0.38,0.22c0.38,0.12,0.81,0.42,1.31,0.92
			c0.37,0.32,0.75,0.64,1.13,0.97c0.59,0.48,0.88,0.88,0.88,1.21H25.57z M25.65,31.04l-0.16,0.08l-0.4-0.4l0.08-0.16L25.65,31.04z
			 M34.1,44.63c-0.05-0.43-0.19-0.99-0.4-1.69c0-0.05-0.11-0.13-0.32-0.24c-0.21-0.11-0.3-0.29-0.24-0.56l-0.32,0.16
			c-0.43-0.86-0.8-1.29-1.13-1.29c-0.11,0-0.22,0.05-0.32,0.16c-0.16-0.54-0.75-1.29-1.77-2.25c-1.82-1.61-2.92-2.6-3.3-2.98
			c-0.11,0-0.24-0.05-0.4-0.16c0,0.05-0.11,0.19-0.32,0.4c0.69,0.9,1.77,2.2,3.26,3.89c0.03,0.03,0.05,0.06,0.08,0.08
			C29.63,40.78,31.36,42.26,34.1,44.63z M30.16,42.7c-0.43-0.48-0.84-0.96-1.25-1.45c-0.4-0.48-0.55-0.88-0.44-1.21
			c-0.38,0.22-0.56,0.43-0.56,0.64C29.19,42.03,29.94,42.7,30.16,42.7z M35.06,35.62l-0.32,0.88l-0.16-0.08l0.32-0.8H35.06z
			 M35.14,34.66l-0.08,0.48l-0.24-0.08l0.16-0.4H35.14z M39.08,16.81h-0.24l-0.08,0.64h0.16L39.08,16.81z M39.08,20.35h-0.24
			l-0.08,0.72h0.16L39.08,20.35z M40.45,68.92l-0.16,0.32l-0.16-0.08l0.16-0.32L40.45,68.92z M44.55,71.73
			c-0.05,0-0.16,0.03-0.32,0.08c-0.16,0-0.27,0-0.32,0v-0.4c0.05,0,0.16-0.03,0.32-0.08c0.16-0.05,0.27-0.08,0.32-0.08V71.73z
			 M45.19,14.15c0-0.21-0.03-0.45-0.08-0.72c-0.22,0-0.32,0.13-0.32,0.4C44.79,14.05,44.92,14.15,45.19,14.15z M46.08,70.12V69.4
			l-0.32-0.32c-0.05,0.05-0.13,0.16-0.24,0.32c-0.11,0.16-0.19,0.24-0.24,0.24c0.21,0.21,0.32,0.37,0.32,0.48H46.08z M46.56,71.01
			l-0.08,0.16l-0.32-0.32l0.08-0.16L46.56,71.01z M49.94,31.04c0-0.37-0.21-0.56-0.64-0.56c0,0.59-0.08,0.94-0.24,1.05l0.32,0.32
			C49.75,31.47,49.94,31.2,49.94,31.04z M50.42,25.97c-0.05-0.05-0.16-0.19-0.32-0.4c-0.05,0.11-0.16,0.3-0.32,0.56
			c-0.16,0.27-0.24,0.43-0.24,0.48c0,0.16,0.08,0.32,0.24,0.48c-0.11,0.32-0.22,0.75-0.32,1.29c0.05,0.27,0.03,0.62-0.08,1.05
			c0.11,0.38,0.13,0.59,0.08,0.64c0.16-0.16,0.32-0.24,0.48-0.24l0.22-1.1c0.01-0.07,0.02-0.14,0.02-0.21
			c-0.02-0.26-0.1-0.63-0.24-1.11c0.11-0.11,0.21-0.27,0.32-0.48C50.2,26.73,50.26,26.4,50.42,25.97z M50.74,0.08L50.58,0.4
			l-0.16-0.08L50.58,0L50.74,0.08z M51.14,49.54c0.21,0,0.21,0.21,0,0.64c0-0.11-0.11-0.27-0.32-0.48
			C50.93,49.59,51.04,49.54,51.14,49.54z M53.72,55.81c0,0.32-0.19,0.48-0.56,0.48c-0.16,0-0.51-0.27-1.05-0.8
			c-0.54-0.54-0.8-0.86-0.8-0.96v-2.09c0.32,0.21,0.64,0.76,0.97,1.65C52.59,54.96,53.07,55.54,53.72,55.81z"/>
		<path class="st0" d="M103.33,46.64c-1.27,0.37-3.05,0.87-5.36,1.5c-0.07,0.02-0.13,0.05-0.2,0.08c-0.17,0.1-0.44,0.21-0.8,0.35
			c-0.8,0.32-1.38,0.48-1.73,0.48c-0.35,0-0.58,0.05-0.68,0.16c0.27,0.16,1.02,0.05,2.25-0.32h0.64c-0.27,0.05-1.39,0.35-3.38,0.88
			c0,0.16,0.08,0.24,0.24,0.24c0.05,0,0.25-0.05,0.6-0.16c0.35-0.11,0.58-0.16,0.68-0.16c0.05,0,0.11,0.03,0.16,0.08
			c0.05,0,0.13,0,0.24,0c0.11,0,0.83-0.12,2.17-0.36c1.34-0.24,2.06-0.36,2.17-0.36c0.05,0,0.24,0.04,0.56,0.12
			c0.32,0.08,0.51,0.12,0.56,0.12c0.11,0,0.27-0.08,0.48-0.24c0.21-0.16,0.35-0.24,0.4-0.24c-0.11,0-0.03,0.11,0.24,0.32
			c0.05,0.05,0.13,0.05,0.24,0c-1.39,0.38-3.57,0.94-6.51,1.69c-0.11,0.05-0.24,0.13-0.4,0.24c-0.54,0.05-0.91,0.13-1.13,0.24
			c-0.36,0.12-0.62,0.3-0.77,0.54c-0.11,0.18-0.3,0.3-0.51,0.33c-0.71,0.13-1.66,0.31-2.84,0.52c-0.4,0.07-0.69,0.44-0.67,0.84
			c0.15,3.43,0.3,5.87,0.45,7.33c0.05,0.31,0.13,1.26,0.23,2.85c0.01,0.08,0,0.15-0.02,0.23c-0.05,0.2-0.09,0.46-0.13,0.78
			c0.05,0.05,0.12,0.19,0.2,0.4c0.07,0.18,0.16,0.54,0.28,1.08c0.05,0.2-0.04,0.41-0.22,0.51c-0.15,0.09-0.32,0.2-0.51,0.33
			c-0.11,0.08-0.21,0.21-0.21,0.35c-0.01,0.2-0.1,0.44-0.26,0.75c-0.22,0.4-0.46,0.6-0.72,0.6c-0.11,0-0.48-0.27-1.13-0.8
			c0.05,0.59,0.35,1.53,0.88,2.81v0.4c-0.8,0.21-1.15,0.32-1.05,0.32c-0.38,0-0.56-0.19-0.56-0.56c0-0.21,0.03-0.48,0.08-0.8
			c0-0.38,0-0.64,0-0.8c0-0.05-0.05-0.08-0.16-0.08c-0.11,0-0.24,0.05-0.4,0.16c-0.16,0.11-0.25,0.16-0.28,0.16
			c-0.03,0-0.15,0.03-0.36,0.08c0-0.16-0.03-0.4-0.08-0.72c-0.05-0.11-0.27-0.4-0.64-0.88c-0.05-0.11-0.11-0.27-0.16-0.48
			c0.16,0,0.35-0.05,0.56-0.16c-0.05-0.16-0.11-0.3-0.16-0.4c-0.16,0.16-0.24,0.32-0.24,0.48c-0.21-0.21-0.35-0.32-0.4-0.32
			c-0.11,0-0.21,0-0.32,0c-0.05,0.05-0.13,0.08-0.24,0.08c-0.05,0-0.32-0.11-0.8-0.32c0.05-0.21,0.16-0.38,0.32-0.48
			c-0.05-0.05-0.13-0.16-0.24-0.32c-0.11-0.16-0.19-0.27-0.24-0.32c-0.11,0.11-0.16,0.37-0.16,0.8c-0.38,0-0.56-0.16-0.56-0.48
			c-0.05-0.96-0.21-2.92-0.48-5.87c-0.21-2.41-0.32-4.34-0.32-5.79c-0.11-0.11-0.27-0.16-0.48-0.16c-0.7,0-3.19,0.75-7.48,2.25
			c-0.32-0.37-0.46-0.56-0.4-0.56c-0.86,0-1.48,0.2-1.85,0.6c-0.37,0.39-0.66,1.21-0.87,2.46c-0.01,0.05-0.02,0.09-0.04,0.14
			c-0.26,0.67-0.56,1.61-0.91,2.81c-0.02,0.07-0.03,0.13-0.03,0.2c-0.01,0.25-0.03,0.57-0.08,0.95c-0.43,2.04-1.18,3.54-2.25,4.5
			h-0.32l-0.32-0.24c0.59-0.54,0.88-1.18,0.88-1.93c0-0.27-0.08-0.48-0.24-0.64c-0.27,0.7-0.7,1.85-1.29,3.46
			c-0.05,0.27-0.24,0.59-0.56,0.97c-0.11-0.05-0.22-0.13-0.32-0.24c0-1.45,0.05-1.98,0.16-1.61c-0.16-0.16-0.35-0.43-0.56-0.8
			c0.05,0.16,0.08-0.19,0.08-1.05l-0.16-0.24c-0.27,0.43-0.67,1.05-1.21,1.85c-0.38,0-0.56-0.19-0.56-0.56
			c0-0.05,0.07-0.23,0.2-0.52c0.13-0.3,0.2-0.47,0.2-0.52c0.43-0.43,0.64-0.86,0.64-1.29c0-0.27-0.21-0.4-0.64-0.4
			c0.05,0-0.16,0.16-0.64,0.48c-0.16,0.05-0.35,0.16-0.56,0.32c-0.27,0.7-0.72,1.74-1.37,3.14l-0.24,0.08l-0.16-0.4
			c0-0.27,0.32-1.18,0.97-2.73c-0.05-0.05-0.08-0.16-0.08-0.32c0.05-0.43-0.03-1.02-0.24-1.77c0.11,0,0.19,0.05,0.24,0.16l0.4-0.4
			l-0.16-0.16c-0.16,0.05-0.27,0.16-0.32,0.32c-0.11-0.16-0.21-0.24-0.32-0.24v-0.56c0,0.48,0.48-0.99,1.45-4.42
			c0-0.05-0.05-0.08-0.16-0.08c-0.05,0.16-0.16,0.4-0.32,0.72c-0.32,0.96-0.7,2.17-1.13,3.62c-0.11,0.05-0.27,0.16-0.48,0.32
			l2.72-8.96c0.01-0.03,0.02-0.05,0.03-0.08c0.32-0.75,0.8-1.89,1.43-3.42c-0.05,0.22,0,0.51,0.16,0.88
			c-0.27,0.27-0.38,0.38-0.32,0.32c0-0.11-0.05-0.16-0.16-0.16c-0.05,0.16-0.11,0.34-0.16,0.52c-0.05,0.19-0.16,0.55-0.32,1.09
			c0.05,0,0.11,0,0.16,0c0.32,0,0.56-0.37,0.72-1.13c0.11-0.32,0.29-0.78,0.56-1.37v-0.24c-0.05,0-0.13,0.03-0.24,0.08
			c-0.11,0.05-0.19,0.08-0.24,0.08c0.11-0.05,0.21-0.16,0.32-0.32c0-0.11,0-0.21,0-0.32l0.16-0.16l0.16,0.24
			c0.05-0.16,0.16-0.37,0.32-0.64c-0.05-0.11-0.16-0.19-0.32-0.24c0.11-0.05,0.21-0.03,0.32,0.08c0.11-0.48,0.16-0.75,0.16-0.8
			c-0.11,0.05-0.19,0.13-0.24,0.24c0-0.05,0-0.16,0-0.32c0.05-0.16,0.08-0.27,0.08-0.32c0.11,0,0.21,0.05,0.32,0.16
			c0.23-0.46,0.3-0.75,0.2-0.89c-0.14-0.19-0.09-0.46-0.01-0.68c0.24-0.67,0.61-1.44,1.1-2.3c0.27-0.27,0.72-1.42,1.37-3.46
			c0.16-0.64,0.83-2.33,2.01-5.07c0.16-0.05,0.29-0.16,0.4-0.32c0.11-0.86,0.16-1.18,0.16-0.97c0.11-0.16,0.27-0.43,0.48-0.8
			c-0.22-0.48-0.08-0.78,0.4-0.88l-0.16-0.32c0.27-0.54,0.64-1.18,1.13-1.93c0-0.11-0.05-0.16-0.16-0.16c0-0.05,0.19-0.32,0.56-0.8
			c0-0.16,0.03-0.4,0.08-0.72c2.09-4.23,3.14-6.38,3.14-6.43v-0.4l-3.14,6.51c0.05-0.43,0.05-0.7,0-0.8l-3.7,8.44
			c0.75-2.09,2.06-5.28,3.94-9.57c1.02-2.03,3.66-6.89,7.93-14.58c0.02-0.04,0.04-0.07,0.05-0.11c0.27-0.74,0.68-1.79,1.26-3.13
			c0.01-0.02,0.01-0.03,0.02-0.05c1.23-2.51,2.27-4.35,3.12-5.53c0.11,0.05,0.21,0.08,0.32,0.08v0.4c-0.64,0.7-1.37,1.88-2.17,3.54
			v0.16c0.37-0.27,0.54-0.4,0.48-0.4c0.11,0,0.15,0.03,0.12,0.08c-0.03,0.05,0.01,0.08,0.12,0.08l0.38-0.7
			C85.57,5.2,85.78,5.04,86.03,5c0.6-0.11,0.77-0.17,0.5-0.17c0.11,0,0.16,0.03,0.16,0.08c-0.05,0-0.03,0,0.08,0
			c0.21,0,0.37-0.16,0.48-0.48c0,0.05,0.08,0.08,0.24,0.08c0.11,0,0.19-0.04,0.24-0.12c0.05-0.08,0.11-0.12,0.16-0.12
			c0.05,0,0.2-0.03,0.44-0.08c0.24-0.05,0.39-0.08,0.44-0.08c0.27,0,0.45,0.16,0.56,0.48c0.27-0.21,0.45-0.48,0.56-0.8
			c0.37-1.66,0.94-2.49,1.69-2.49c0.54,0,0.8,0.27,0.8,0.8c0,0.21-0.44,0.78-1.32,1.72C91.05,3.84,91.02,3.87,91,3.91
			c-0.12,0.18-0.35,0.51-0.69,1c0.05,0.05,0.19,0.05,0.4,0c0.11,0.32,0.13,0.67,0.08,1.05c0.11-0.05,0.16,0,0.16,0.16
			c0,0.11-0.11,0.27-0.32,0.48c-0.22,0.22-0.32,0.35-0.32,0.4c0,0.16,0.03,0.24,0.08,0.24c0.32-0.21,0.64-0.59,0.97-1.13
			c0.32-0.16,0.64-0.37,0.96-0.64c0.11,0.11,0.16,0.21,0.16,0.32c0-0.16-0.4,0.4-1.21,1.69c0.27,0.11,0.64,0.11,1.13,0
			c0.11,0.11,0.16,0.3,0.16,0.56c0.21,0.21,0.45,0.32,0.72,0.32v0.32c0-0.1-0.35,0.45-1.04,1.64c-0.1,0.18-0.13,0.4-0.09,0.6
			c0.11,0.58,0.03,1.11-0.24,1.61c0.05,0,0.13,0,0.24,0c0.27,0,0.4-0.17,0.4-0.52c0-0.35,0.08-0.52,0.24-0.52
			c0.11,0,0.16,0.04,0.16,0.12c0,0.08,0.05,0.12,0.16,0.12c-0.11,0-0.03-0.03,0.24-0.08c0.37,0.64,0.51,1.18,0.4,1.61
			c-0.16,0.11-0.24,0.22-0.24,0.32c0,0.05,0.07,0.17,0.2,0.36c0.13,0.19,0.2,0.31,0.2,0.36c-0.05-0.21-0.08,0.13-0.08,1.05
			c0,0.54,0.19,0.8,0.56,0.8c0.21,0,0.35,0.03,0.4,0.08c-0.27,0.43-0.4,0.78-0.4,1.05c-0.05,1.45-0.21,2.71-0.48,3.78
			c-0.05,0.11-0.19,0.78-0.4,2.01c-0.16,0.16-0.27,0.38-0.32,0.64c-0.05,0.27-0.15,0.71-0.28,1.33c-0.13,0.62-0.2,1.11-0.2,1.49
			c0.16-0.37,0.43-0.88,0.8-1.53c-0.42,1.86-0.8,3.69-1.12,5.49c-0.01,0.04-0.02,0.07-0.03,0.11c-0.15,0.41-0.32,1.04-0.51,1.89
			c-0.02,0.09-0.02,0.19-0.01,0.28c0.03,0.27,0.02,0.65-0.02,1.15c-0.22,1.02-0.48,2.57-0.8,4.66l-0.08-0.16c0,0.21,0,0.54,0,0.96
			c0-0.11-0.03-0.19-0.08-0.24v2.01c-0.11,0-0.19-0.03-0.24-0.08c-0.11,0.27-0.05,0.48,0.16,0.64c0,0.16-0.09,0.34-0.27,0.53
			c-0.15,0.16-0.21,0.38-0.21,0.6c0.01,0.5,0.02,0.94,0.06,1.31c0.04,0.44,0.41,0.77,0.86,0.74l0.86-0.04
			c-0.48,0-1.07,0.16-1.77,0.48c0.05,0.11,0.21,0.16,0.48,0.16l8.93-1.37l0.24,0.24c0.05-0.05,0.13-0.08,0.24-0.08
			c-0.43,0.16-0.48,0.43-0.16,0.8c-0.22,0-0.6,0.09-1.17,0.28c-0.56,0.19-0.9,0.28-1.01,0.28c-0.05,0-0.12-0.03-0.2-0.08
			c-0.08-0.05-0.17-0.08-0.28-0.08c0.27,0-0.8,0.24-3.22,0.72c-0.05,0.11-0.03,0.16,0.08,0.16c0.11,0,0.41-0.05,0.92-0.16
			c0.51-0.11,0.82-0.16,0.92-0.16c0.05,0,0.24,0.03,0.56,0.08c0.32,0.05,0.56,0.08,0.72,0.08c-0.64,0-1.5,0.19-2.57,0.56
			c0.05,0,0.12,0.01,0.2,0.04c0.08,0.03,0.15,0.07,0.2,0.12l7.4-1.53c0.11,0,0.24,0.03,0.4,0.08c-0.27,0.11-0.67,0.32-1.21,0.64
			c0,0.16,0.11,0.24,0.32,0.24c0.05,0,0.13-0.03,0.24-0.08c0.05,0,0.13,0,0.24,0C102.55,46.32,102.8,46.43,103.33,46.64z
			 M65.38,49.21v-0.24h-0.16v0.24H65.38z M66.1,46.48l-0.08,0.24l-0.16-0.08l0.08-0.24L66.1,46.48z M67.87,42.94l-0.16-0.08
			l-0.16,0.32h0.16L67.87,42.94z M74.22,25.65h-0.16l-0.48,0.88l0.16,0.08L74.22,25.65z M85.16,21.95c-0.48,0.8-1.05,2.12-1.69,3.94
			c-0.05-0.11-0.13-0.19-0.24-0.24l-4.42,9.65l-0.16-0.08l-3.32,8.45c-0.23,0.58,0.26,1.19,0.88,1.1c0.67-0.09,1.33-0.14,1.96-0.14
			c0.05,0,0.15-0.04,0.28-0.12c0.13-0.08,0.25-0.12,0.36-0.12c0.37,0,0.62,0.03,0.72,0.08c0,0.27-0.16,0.4-0.48,0.4h-0.16
			c0.05-0.05,0.03-0.08-0.08-0.08c-0.21,0-0.95,0.24-2.21,0.72c-0.88,0.34-1.52,0.6-1.91,0.78c-0.23,0.11-0.4,0.3-0.46,0.55
			c-0.06,0.24-0.14,0.55-0.24,0.93c0.75-0.11,1.69-0.25,2.81-0.44c1.02-0.17,2.47-0.44,4.37-0.8c0.36-0.07,0.64-0.38,0.66-0.75
			c0.1-1.42,0.21-3.32,0.35-5.71c0.01-0.12,0.04-0.23,0.1-0.34c0.3-0.56,0.35-1.26,0.15-2.1c0.05-0.16,0.13-0.35,0.24-0.56
			l1.44-10.18c0-0.02,0.01-0.04,0.01-0.07c0.11-0.48,0.34-1.34,0.7-2.58c0.01-0.03,0.01-0.05,0.02-0.08
			C84.95,23.64,85.05,22.9,85.16,21.95z M74.54,25.25v-0.32h-0.16v0.32H74.54z M77.28,19.94h-0.16l-0.4,0.97l0.16,0.08L77.28,19.94z
			 M77.84,18.98h-0.16l-0.48,0.8h0.16L77.84,18.98z M78.16,18.25H78l-0.16,0.32L78,18.66L78.16,18.25z M78.24,18.17v-0.24h-0.16
			v0.24H78.24z M78.48,17.61l-0.16-0.08l-0.16,0.32l0.16,0.08L78.48,17.61z M80.66,44.79c-0.21,0-0.38,0-0.48,0
			c-0.11-0.11-0.11-0.24,0-0.4c0.21,0.05,0.37,0.11,0.48,0.16V44.79z M82.26,32.89H82.1v-0.32h0.16V32.89z M83.23,8.52h-0.16
			l-0.08,0.4l0.16,0.08L83.23,8.52z M83.71,7.72h-0.16l-0.24,0.56l0.16,0.08L83.71,7.72z M83.47,27.02h-0.16v-0.56h0.16V27.02z
			 M84.27,36.03c-0.21-0.21-0.32-0.19-0.32,0.08c0,0.54,0,0.88,0,1.05c-0.05,0.11-0.12,0.23-0.2,0.36
			c-0.08,0.13-0.12,0.21-0.12,0.24c0,0.03-0.03,0.75-0.08,2.17c-0.05,1.42-0.08,2.48-0.08,3.18L84.27,36.03z M88.21,55.32
			c-0.05-0.11-0.09-0.19-0.12-0.24c-0.03-0.05-0.04-0.11-0.04-0.16l-0.16,0.48C88,55.41,88.11,55.38,88.21,55.32z M88.38,45.11
			v-0.32h-0.24v0.32H88.38z M88.78,55.73v-2.65h-0.16v2.65H88.78z M89.1,62.64v-1.21h-0.16v1.21H89.1z M89.5,65.54h-0.16l-0.08,0.4
			h0.16L89.5,65.54z M91.99,29.51c-0.11,0.54-0.4,1.15-0.88,1.85c0.11,0.11,0.19,0.22,0.24,0.32c-0.47,2.17-0.88,4.21-1.25,6.13
			c-0.03,0.15-0.1,0.27-0.2,0.39c-0.38,0.47-0.57,1.3-0.57,2.49c0-0.05,0.05-0.13,0.16-0.24c0.11,0.27,0.16,0.62,0.16,1.05
			c0,0.27-0.04,0.71-0.12,1.33c-0.08,0.62-0.12,1.06-0.12,1.33c0,0.32,0.05,0.62,0.16,0.88C90.17,39.24,90.97,34.07,91.99,29.51z
			 M89.66,62.32c0.05-1.66,0.03-2.68-0.08-3.06h-0.16c-0.05,1.72-0.05,2.71,0,2.97L89.66,62.32z M89.74,40.13h-0.16v-0.32h0.16
			V40.13z M90.79,40.29v-0.48h-0.16v0.48H90.79z M92.07,29.35v-0.4h-0.16v0.4H92.07z M92.4,27.9v-0.32h-0.16v0.32H92.4z
			 M93.84,51.63l-0.4-0.16v0.16l0.32,0.16L93.84,51.63z M94.17,46.88c-0.05-0.11-0.19-0.16-0.4-0.16l-0.24,0.32L94.17,46.88z
			 M96.26,6.75c0,0.75-0.38,1.13-1.13,1.13c-0.38,0-0.56-0.21-0.56-0.64c0-0.16,0.12-0.39,0.36-0.68c0.24-0.29,0.44-0.44,0.6-0.44
			C96.02,6.11,96.26,6.33,96.26,6.75z M102.77,48.65l-0.32,0.08v-0.08l0.24-0.16L102.77,48.65z M103.17,48.57h-0.4v-0.16h0.4V48.57z
			"/>
		<path class="st0" d="M176.6,19.22c-0.05,0.31-0.17,0.73-0.37,1.28c-0.02,0.06-0.05,0.11-0.08,0.17c-0.15,0.24-0.36,0.54-0.63,0.9
			c-0.03,0.04-0.06,0.1-0.09,0.15c-0.67,1.41-1.01,2.46-1.01,3.14V50.5c0,0.11,0.03,0.4,0.08,0.88c0.05,0.48,0.08,0.8,0.08,0.97
			V62.4c0,0.43-0.11,1.39-0.32,2.9c-0.11,0.59-0.3,1.45-0.56,2.57c-0.05,0.05-0.17,0.11-0.36,0.16c-0.19,0.05-0.36,0.08-0.52,0.08
			c-0.59,0-0.88-0.54-0.88-1.61c0-0.05,0.11-0.66,0.32-1.81c0.21-1.15,0.35-2,0.4-2.53c0.21-1.98,0.37-4.18,0.48-6.59V54.2h-0.08
			l-0.32,0.88c-0.15,0.31-0.35,0.81-0.6,1.5c-0.03,0.07-0.04,0.14-0.05,0.22c-0.11,1.47-0.34,3.62-0.69,6.46
			c-0.01,0.12-0.05,0.23-0.11,0.33c-0.1,0.16-0.23,0.38-0.39,0.66c-0.1,0.68-0.33,1.68-0.7,2.99c-0.07,0.26-0.28,0.48-0.53,0.56
			c-0.27,0.09-0.53,0.14-0.78,0.14c-0.05,0-0.15,0-0.28,0c-0.13,0-0.26,0-0.36,0v0.64c0.11-0.05,0.27-0.22,0.48-0.48
			c-0.05,0.27-0.16,0.64-0.32,1.13c-0.21,0-0.43-0.11-0.64-0.32c0.21-0.27,0.29-0.51,0.24-0.72c-0.05-0.54-0.08-0.91-0.08-1.13
			c-0.38,0.21-0.56,0.7-0.56,1.45c0-0.05-0.05,0.03-0.16,0.24c-0.11,0.16-0.08,0.45,0.08,0.88c-0.32,0.32-0.7,0.54-1.13,0.64h-0.4
			c-0.32-0.21-0.56-0.56-0.72-1.05c-0.16-0.16-0.43-0.39-0.8-0.68c-0.31-0.25-0.62-0.68-0.94-1.32c-0.12-0.25-0.37-0.41-0.65-0.43
			c-0.17-0.01-0.36-0.03-0.59-0.06c-0.21-0.11-0.35-0.35-0.4-0.72c0-0.16-0.04-0.34-0.12-0.52c-0.07-0.16-0.17-0.34-0.3-0.52
			c-0.04-0.05-0.07-0.11-0.08-0.17c-0.08-0.36-0.08-0.79,0.02-1.28c0.11-0.7,0.16-1.15,0.16-1.37c-0.16-0.11-0.38-0.3-0.64-0.56
			c0.11-0.11,0.32-0.24,0.64-0.4c-0.05-0.05-0.13-0.08-0.24-0.08c0.16-0.21,0.29-0.59,0.4-1.13c0-0.31,0.02-0.8,0.07-1.45
			c0-0.05,0.01-0.09,0.02-0.14c0.26-0.96,0.49-2.6,0.7-4.92c0-0.05,0.02-0.11,0.04-0.16c0.1-0.21,0.22-0.51,0.37-0.89
			c-0.11-0.32-0.13-0.48-0.08-0.48c0.05-0.11,0.13-0.24,0.24-0.4c0.05-0.54,0.16-1.34,0.32-2.41c0.16-1.07,0.27-1.88,0.32-2.41
			c-0.16-0.27-0.19-0.54-0.08-0.8c0.16-0.37,0.21-0.88,0.16-1.53c-0.04-0.53-0.05-0.91-0.02-1.15c0.01-0.09,0.05-0.17,0.1-0.26
			c0.08-0.15,0.17-0.35,0.25-0.6c0-0.11-0.03-0.35-0.08-0.72c0.11-0.16,0.16-0.51,0.16-1.05c-0.51-0.46-0.44-1.15,0.21-2.09
			c0.07-0.1,0.13-0.21,0.14-0.33c0.07-0.41,0.06-0.92-0.01-1.51c-0.01-0.11-0.01-0.22,0.03-0.32c0.4-1.33,0.6-3.77,0.6-7.33
			c0-1.34-0.03-2.12-0.08-2.33l0.16-0.48c0,0.21-0.05-0.32-0.16-1.61c0,0.27,0.03-0.19,0.08-1.37c0.05-0.64-0.13-1.18-0.56-1.61
			c-0.16,0.21-0.46,0.43-0.88,0.64c0,0.11-0.11,0.3-0.32,0.56c-0.21,0.27-0.43,0.62-0.64,1.05c-0.16,0-0.28,0.03-0.36,0.08
			c-0.08,0.05-0.17,0.15-0.28,0.28c-0.11,0.13-0.19,0.26-0.24,0.36c0.11,0.11,0.37,0.16,0.8,0.16c-0.05,0-0.16,0.03-0.32,0.08
			c-0.22,0.21-0.47,0.46-0.76,0.72c-0.3,0.27-0.39,0.62-0.28,1.05c-0.05,0.05-0.16-0.08-0.32-0.4c-0.97,1.07-2.15,2.57-3.54,4.5
			c0-0.21-0.08-0.4-0.24-0.56l-5.87,9.17c0-0.16-0.13-0.24-0.4-0.24c0,0.11-0.05,0.3-0.16,0.56c-0.41,0.35-0.71,0.68-0.93,0.99
			c-0.03,0.04-0.05,0.07-0.07,0.11c-1.55,3.06-3.61,7.92-6.16,14.58c-0.93,2.44-2.12,5.1-3.55,7.98c-0.1,0.19-0.27,0.33-0.47,0.41
			c-0.48,0.19-0.7,0.42-0.65,0.69c-0.22,0-0.48-0.05-0.8-0.16c-0.2,0.51-0.65,1.11-1.33,1.81c-0.08,0.08-0.16,0.14-0.26,0.18
			c-0.38,0.16-0.92,0.41-1.63,0.74c0.05-0.21,0.08-0.08,0.08,0.4c-0.7-0.32-1.1-0.48-1.21-0.48c-0.21,0-0.54,0.28-0.96,0.84
			c-0.43,0.56-0.78,0.94-1.05,1.13c-0.27,0.19-0.56,0.28-0.88,0.28l-0.32-0.32c-0.05-0.27,0.13-0.64,0.56-1.13v-0.48
			c-0.16-0.11-0.32-0.08-0.48,0.08c-0.32-0.64-0.48-0.86-0.48-0.64c0-0.32,0.19-0.67,0.56-1.05c-0.21-0.11-0.48-0.3-0.8-0.56
			c-0.1-0.45-0.32-1.05-0.66-1.78c-0.04-0.09-0.07-0.18-0.07-0.27c-0.02-0.24-0.07-0.74-0.16-1.48c0-0.11,0.05-0.36,0.16-0.76
			c0.11-0.4,0.16-0.68,0.16-0.84c0-0.11-0.03-0.31-0.08-0.6c-0.05-0.29-0.08-0.52-0.08-0.68c0-0.16,0.04-0.37,0.12-0.64
			c0.08-0.27,0.12-0.46,0.12-0.56c0.32-2.47,1.02-6.49,2.09-12.06c0.05-0.21,0.4-2.39,1.04-6.53c0.01-0.04,0.01-0.08,0.03-0.11
			c0.1-0.3,0.19-0.66,0.29-1.09c0.01-0.04,0.02-0.08,0.02-0.11c0.26-2.5,0.37-4.84,0.32-7.02c0-0.54,0.16-1.9,0.48-4.1
			c0-0.37-0.05-0.67-0.16-0.88c-0.11,0.64-0.24,1.74-0.4,3.3c-0.38,2.47-0.56,3.73-0.56,3.78c-0.16,0.38-0.24,0.59-0.24,0.64
			c0,0.11,0.03,0.26,0.08,0.44c0.05,0.19,0.08,0.36,0.08,0.52c-0.11,0.11-0.23,0.32-0.36,0.64c-0.13,0.32-0.25,0.8-0.36,1.45
			c-0.26,0.69-0.58,1.79-0.95,3.3c-0.01,0.05-0.02,0.1-0.02,0.15c-0.01,0.22-0.06,0.57-0.16,1.06c-0.21-0.43-0.32-0.75-0.32-0.96
			c0.05,0,0.13-0.05,0.24-0.16v-0.48c-0.16-0.05-0.38,0.05-0.64,0.32c0.59-3,1.26-7.48,2.01-13.43c0-0.11,0.04-0.43,0.12-0.96
			c0.08-0.54,0.12-0.86,0.12-0.97c0-0.86-0.08-1.45-0.24-1.77c-0.11,0-0.21,0.43-0.32,1.29c-0.05-0.16-0.16-0.37-0.32-0.64
			c-1.34,2.84-2.68,5.71-4.02,8.6c-1.6,3.41-2.74,6.26-3.44,8.55c-0.01,0.04-0.02,0.07-0.02,0.11c-0.05,0.32-0.13,0.77-0.23,1.36
			c0,0.02-0.01,0.04-0.01,0.06c-0.64,2.51-1.07,5.04-1.28,7.57c-0.22,2.55-0.32,3.58-0.32,3.1v3.62c0,0.11,0.03,0.3,0.08,0.56
			c0,0.21,0,0.38,0,0.48c0,0.16-0.28,0.66-0.83,1.52c-0.04,0.06-0.07,0.11-0.09,0.18c-0.16,0.47-0.38,1.12-0.68,1.95
			c-0.01,0.03-0.02,0.06-0.04,0.09c-0.25,0.47-0.5,1.16-0.75,2.1c-0.02,0.07-0.03,0.15-0.03,0.22v1.18
			c-0.22,1.13-0.24,1.72-0.08,1.77c-0.48,0.27-0.64,0.64-0.48,1.13c-0.27-0.05-0.48,0.08-0.64,0.4c0.21-1.02,0.27-1.8,0.16-2.33
			c0.11,0-0.08,0.11-0.56,0.32c0,0.05,0.08,0.16,0.24,0.32c0.11-0.05,0.19-0.08,0.24-0.08l-0.32,0.32c0-0.05-0.03-0.13-0.08-0.24
			c-0.22,0.05-0.35,0.24-0.4,0.56c-0.38,0.11-0.8,0.4-1.29,0.88h-0.72c0.16-0.54,0.24-0.97,0.24-1.29c0-0.22-0.11-0.46-0.32-0.72
			c-0.05,0-0.13,0.03-0.24,0.08c-0.11,0.05-0.19,0.08-0.24,0.08c-0.11,0.86-0.05,1.37,0.16,1.53c-0.21-0.11-0.51-0.13-0.88-0.08
			c0-0.05,0-0.96,0-2.73c-0.21-0.05-0.4,0.13-0.56,0.56c0-0.05,0-0.24,0-0.56c0.05-0.11-0.03-0.16-0.24-0.16
			c-0.11,0-0.43,0.13-0.97,0.4c0.16-0.27,0.19-0.54,0.08-0.8c-0.05,0.05-0.12,0.15-0.2,0.28c-0.08,0.13-0.15,0.23-0.2,0.28
			c0-0.27-0.03-0.46-0.08-0.56c-0.32,0.37-0.59,0.62-0.8,0.72c0.11,0-0.03-0.08-0.4-0.24c-0.05-0.5-0.22-1.07-0.5-1.71
			c-0.04-0.09-0.06-0.19-0.07-0.29c-0.01-0.28-0.07-0.72-0.16-1.3c-0.11-0.7-0.16-1.07-0.16-1.13V53.4c0-0.27,0.13-1.14,0.4-2.61
			c0.26-1.42,0.39-2.25,0.4-2.51c0-0.02,0-0.04,0-0.06c-0.04-0.71,0.17-2.27,0.65-4.67c0.48-2.44,1.37-5.35,2.65-8.73
			c0.96-2.57,2.65-6.31,5.07-11.22c2.37-4.83,3.94-8.26,4.71-10.31c0.03-0.07,0.06-0.12,0.1-0.18c0.15-0.21,0.36-0.51,0.63-0.91
			c0.02-0.04,0.05-0.08,0.06-0.12c0.91-2.12,2.38-4.22,4.39-6.29c-0.05-0.05-0.03-0.21,0.08-0.48c0.48-0.43,0.91-0.64,1.29-0.64
			c0.37-0.7,0.8-1.05,1.29-1.05c0.41,0,0.78,0.27,1.11,0.81c0.26,0.42,0.84,0.52,1.22,0.2c0.93-0.78,1.41-1.17,1.45-1.17
			c0.16,0,0.62,0.38,1.37,1.13c-0.16,0.16-0.42,0.4-0.76,0.72c-0.35,0.32-0.63,0.56-0.84,0.72l0.24,0.24c0.37,0,0.94-0.1,1.71-0.3
			c0.25-0.07,0.52-0.02,0.72,0.14c0.2,0.16,0.44,0.38,0.7,0.64c0,0.21,0.24,0.63,0.72,1.25c0.48,0.62,0.72,1.09,0.72,1.41
			c0,0.11-0.07,0.28-0.2,0.52c-0.13,0.24-0.2,0.42-0.2,0.52l-0.4-0.4c-0.05,0-0.09,0.04-0.12,0.12c-0.03,0.08-0.07,0.15-0.12,0.2
			c1.72,2.36,3.08,5.92,4.1,10.7c0.05,0.16,0.21,0.38,0.48,0.64c-0.05,0.43-0.13,0.99-0.24,1.69c-1.18-3.22-2.25-5.92-3.22-8.12
			c-0.05,0-0.08,0.08-0.08,0.24c0-0.21,0.4,1.42,1.21,4.91c0.54,2.14,0.83,4.56,0.88,7.24c0.05,2.14,0.08,4.29,0.08,6.43
			c0.11-0.05,0.24-0.16,0.4-0.32c-0.11-0.27-0.05-0.48,0.16-0.64c0.37-0.37,0.76-0.98,1.17-1.81c0.34-0.69,0.61-1.19,0.81-1.49
			c0.08-0.11,0.08-0.25,0.08-0.38c-0.02-0.3,0.1-0.58,0.36-0.86c0.32-0.35,0.62-0.71,0.88-1.09c-0.05-0.05-0.13-0.08-0.24-0.08
			c0.27-0.59,1.13-2.12,2.57-4.58c0,0.05,0.03,0.13,0.08,0.24c1.23-1.39,2.95-3.56,5.15-6.51c0-0.16,0.03-0.4,0.08-0.72
			c1.82-3.54,3.51-6.19,5.07-7.96c0.27-0.05,0.59-0.16,0.96-0.32h0.48c-1.5,1.39-3.19,3.78-5.07,7.16v0.16
			c0.21-0.11,0.54-0.27,0.97-0.48c-0.05,0.05-0.19,0.27-0.4,0.64c0.11,0.05,0.27,0.27,0.48,0.64c0.48-0.43,1.15-1.05,2.01-1.85
			l-3.78,4.83c0.43-0.11,0.83-0.4,1.21-0.88c0.59-0.7,0.94-1.1,1.05-1.21c-0.11,0.22-0.24,0.54-0.4,0.97l0.16,0.24
			c0.19-0.19,0.32-0.36,0.38-0.49c0.06-0.15,0.14-0.3,0.27-0.39c0.35-0.23,0.8-0.58,1.36-1.05c0.05-0.11,0.05-0.19,0-0.24
			c0.26-0.36,0.6-0.81,1.01-1.33c0.02-0.02,0.04-0.05,0.06-0.07c0.93-0.98,1.86-1.68,2.8-2.11c0.05-0.02,0.09-0.05,0.13-0.08
			c0.46-0.36,0.95-0.72,1.47-1.08c0.91-0.59,1.55-0.88,1.93-0.88c0.37,0,0.94,0.27,1.69,0.8c-0.05,0.05-0.13,0.16-0.24,0.32
			c-0.11,0.16-0.21,0.27-0.32,0.32c0.16,0.16,0.27,0.24,0.32,0.24c0.11,0,0.19-0.03,0.24-0.08c0.05-0.05,0.13-0.08,0.24-0.08
			c0.05,0,0.28,0.13,0.68,0.4c0.4,0.27,0.82,0.4,1.25,0.4c0.27,0,0.48,0.08,0.64,0.24c0.05-0.05,0.12-0.21,0.2-0.48
			c0.08-0.27,0.23-0.4,0.44-0.4c0.21,0,0.51,0.27,0.88,0.8c0.43-0.37,0.64-0.7,0.64-0.96c0-0.7-0.13-1.34-0.4-1.93
			c1.29,1.07,1.77,2.23,1.45,3.46c0.11,0.27,0.29,0.48,0.56,0.64c0.08,1.36,0.21,3.3,0.39,5.81c0.05,0.76,1.02,1.03,1.47,0.42
			C176.19,19.69,176.4,19.43,176.6,19.22z M114.36,67.55c-0.21,0.37-0.67,0.8-1.37,1.29c0.11-0.11,0.29-0.36,0.56-0.76
			c0.27-0.4,0.48-0.71,0.64-0.92C114.3,67.31,114.36,67.44,114.36,67.55z M130.62,63.75c-0.14-0.19-0.33-0.44-0.57-0.74
			c-0.06-0.08-0.1-0.17-0.1-0.27c-0.02-0.21-0.07-0.48-0.15-0.82c0,0.05-0.05,0.12-0.16,0.2c-0.11,0.08-0.16,0.17-0.16,0.28
			c0-0.11,0.13,0.56,0.4,2.01c0.05-0.05,0.09-0.12,0.12-0.2c0.03-0.08,0.07-0.15,0.12-0.2c0,0.53,0.11,0.88,0.32,1.05
			c0.09-0.17,0.17-0.31,0.24-0.43C130.84,64.35,130.81,64.01,130.62,63.75z M129.88,61.2h-0.16l-0.16,0.4l0.16,0.08L129.88,61.2z
			 M132.13,35.22h-0.24V34.9h0.24V35.22z M133.01,5.55l-0.16-0.08l-0.16,0.32l0.16,0.08L133.01,5.55z M138.24,65.22
			c-0.05,0.05-0.15,0.12-0.28,0.2c-0.13,0.08-0.2,0.15-0.2,0.2c0-0.05,0.03-0.16,0.08-0.32c0.05-0.16,0.08-0.3,0.08-0.4
			C137.92,65.11,138.02,65.22,138.24,65.22z M139.93,34.02v-0.72h-0.64c-0.43,4.34-0.86,7.56-1.29,9.65
			c0.2-0.36,0.46-0.86,0.76-1.51c0.03-0.06,0.05-0.13,0.06-0.19C139.56,37.59,139.93,35.18,139.93,34.02z M138.72,63.93v-0.8
			c-0.11,0.11-0.22,0.24-0.32,0.4C138.35,63.63,138.45,63.77,138.72,63.93z M149.42,24.61c-0.16-0.21-0.4-0.45-0.72-0.72
			c-2.28,3.98-4.15,7.36-5.59,10.13c-0.03,0.06-0.05,0.1-0.06,0.16c-0.13,0.5-0.47,1.41-1.02,2.73v0.48
			c0.69-1.55,1.82-3.79,3.36-6.73c0.01-0.02,0.02-0.03,0.03-0.05C145.9,29.8,147.24,27.8,149.42,24.61z M150.3,40.53l-0.16,0.4
			l-0.24-0.08l0.16-0.4L150.3,40.53z M164.29,12.71c-3.38,2.41-6.22,4.93-8.52,7.56c-0.05,0.16,0.03,0.35,0.24,0.56
			c-3.06,3.54-4.58,5.42-4.58,5.63c0,0.21,0.16,0.32,0.48,0.32c0.21-0.37,1.26-1.66,3.14-3.86c0.64-0.8,1.58-1.85,2.81-3.14
			c0.16-0.48,0.35-0.72,0.56-0.72c0.11,0,0.16,0.03,0.16,0.08c0,0.05,0.05,0.08,0.16,0.08l0.4-0.4c-0.32,0.16-0.59,0.16-0.8,0
			c0.05-0.05,0.13-0.16,0.24-0.32h0.32c0.05-0.11,0.11-0.21,0.16-0.32c-0.05-0.27-0.08-0.43-0.08-0.48c0.32-0.59,0.8-1.15,1.45-1.69
			l1.53-1.21c0.21-0.21,0.51-0.32,0.88-0.32c0.21,0,0.43,0.05,0.64,0.16l0.32-0.32c0-0.11-0.05-0.21-0.16-0.32
			c-0.05,0-0.13,0.03-0.24,0.08l-0.24-0.16c0.11-0.11,0.2-0.19,0.28-0.24C163.53,13.62,163.81,13.3,164.29,12.71z M158.83,7.56
			c-0.05-0.05-0.32,0.11-0.8,0.48c-0.11,0.02-0.22,0.06-0.35,0.1c-0.69,0.23-1.33-0.48-1-1.14c0.43-0.86,0.75-1.29,0.95-1.29
			c0.11,0,0.19,0.05,0.24,0.16h0.16c0.16,0.43,0.19,0.88,0.08,1.37c0.11,0.11,0.29,0.08,0.56-0.08
			C158.77,7.32,158.83,7.45,158.83,7.56z M157.46,7.08h-0.16l-0.16,0.4l0.16,0.08L157.46,7.08z M161.32,16.81
			c-0.48,0.38-1.07,0.94-1.77,1.69l0.24,0.08C160.76,18.04,161.26,17.45,161.32,16.81z M164.21,72.13
			c-0.32,0.16-0.51,0.24-0.56,0.24c-0.32,0-0.78-0.21-1.37-0.64c-0.86-0.8-1.29-1.72-1.29-2.73c0-0.17,0.06-0.36,0.17-0.58
			c0.32-0.62,1.22-0.56,1.49,0.09c0.11,0.26,0.2,0.52,0.28,0.79c0.05,0.16,0.04,0.32,0,0.48c-0.04,0.13-0.1,0.32-0.17,0.57
			c-0.05,0.16,0,0.34,0.11,0.46C163.43,71.4,163.87,71.84,164.21,72.13z M165.9,9.65v0.16l-0.48-0.16V9.49L165.9,9.65z
			 M169.12,69.24l-0.48,0.56l-0.16-0.08l0.48-0.64L169.12,69.24z M171.77,10.21c-0.16,0-0.24,0.16-0.24,0.48
			c-0.11-0.05-0.67-0.32-1.69-0.8c-0.64-0.32-0.94-0.62-0.88-0.88h0.64C169.81,9.01,170.54,9.41,171.77,10.21z M170.57,11.18h-0.24
			l-0.16-0.56h0.24L170.57,11.18z M171.77,67.31c0,0.11-0.05,0.24-0.16,0.4c-0.16-0.11-0.32-0.3-0.48-0.56l0.24-1.05
			C171.64,67.07,171.77,67.47,171.77,67.31z M171.85,63.69l-0.16,0.32l-0.16-0.08l0.16-0.32L171.85,63.69z M172.25,14.07v-0.48
			h-0.24v0.48H172.25z"/>
		<path class="st0" d="M201.82,10.29c0.18,0.79,0.85,1.23,2.03,1.31c0.29,0.02,0.54,0.21,0.66,0.47l1.01,2.21l-0.71,0.67h0.67
			c-3.19,9.42-5.14,20.33-5.85,32.71l-0.21,3.64c-0.01,0.23,0.07,0.46,0.24,0.62l0.41,0.41L200.01,53l-0.71,0.67h0.67l-0.42,0.4
			c-0.18,0.17-0.27,0.41-0.25,0.66l0.35,4.22c0,0.04,0,0.08,0,0.12l-0.06,1.02c-0.01,0.17-0.08,0.34-0.19,0.47
			c-1.97,2.42-3.13,4.36-3.46,5.83c-0.08,0.37-0.41,0.63-0.79,0.63l-1.81,0c-0.11,0-0.21-0.02-0.31-0.06l-2.45-1.02
			c-0.36-0.15-0.56-0.53-0.49-0.91l0.73-3.6c0.05-0.26-0.03-0.53-0.21-0.73l-1.99-2.08c-0.17-0.18-0.25-0.42-0.22-0.66l1.17-9.6
			c0-0.02,0-0.04,0-0.05l0.65-11.75c0.01-0.16,0.06-0.31,0.15-0.43l1.17-1.62c0.09-0.13,0.14-0.28,0.15-0.43l0.12-2.08
			c0.01-0.22-0.07-0.44-0.22-0.61l-0.39-0.41l0.04-0.67h1.34l0.04-0.67L192,28.97l2.71-12.68h-0.67l0.47-0.44
			c0.15-0.14,0.24-0.34,0.25-0.55l0.16-3.33c0.01-0.22-0.07-0.44-0.22-0.6l-0.39-0.41l0.04-0.67l6.6-0.59
			C201.36,9.65,201.73,9.9,201.82,10.29z M192.68,61.01c-0.25,0-0.46,0.2-0.47,0.45l-0.17,2.89l1.15-1.12
			c0.14-0.14,0.23-0.32,0.24-0.52l0.09-1.19c0.02-0.28-0.2-0.51-0.47-0.51H192.68z M192.36,34.31l-0.2,4.01h0.67l0.2-4.01H192.36z
			 M193.38,28.3l-0.24,4.01h0.67l0.24-4.01H193.38z M194.4,21.63l-0.24,4.67h0.67l0.24-4.67H194.4z"/>
		<path class="st0" d="M215.13,53.84c-0.54,0.13-0.96,0.49-1.27,1.07c-0.67,0.09-1.14,0.56-1.41,1.41h-0.54
			c-0.31-0.31-0.47-0.67-0.47-1.07c0.36,0.13,0.67-0.11,0.94-0.74c0.04,0.31,0.16,0.47,0.34,0.47c0.4,0,0.71-0.11,0.94-0.34
			c0.4-0.45,0.76-0.78,1.07-1.01C214.91,53.77,215.04,53.84,215.13,53.84z M212.19,53.84h-0.4v-0.27h0.4V53.84z M214.8,51.56
			c-0.13-0.13-0.29-0.13-0.47,0l-0.4-0.4l0.74-0.2C214.67,51.09,214.71,51.29,214.8,51.56z M234.77,17.59c0,0.04,0,0.07-0.01,0.11
			c-0.13,0.75-0.17,1.74-0.12,2.96c-0.09-0.13-0.18-0.2-0.27-0.2c0,0.27,0.04,0.43,0.13,0.47c0,0.05-0.12,0.29-0.37,0.74
			c-0.25,0.45-0.32,0.85-0.23,1.21h-0.47c-0.05,0.22,0.02,0.56,0.2,1.01c0,0.63-0.31,1.27-0.94,1.94c-0.05,0.09-0.06,0.35-0.03,0.77
			c0.02,0.42-0.1,0.66-0.37,0.7c0.04-0.09,0.11,0.05,0.2,0.4c-0.13,0.76-0.33,1.82-0.6,3.19c0,0.02-0.01,0.03-0.01,0.05
			c-0.09,0.66-0.18,1.33-0.27,1.99c-0.18,0.7-0.43,1.16-0.77,1.36c-0.2,0.12-0.34,0.31-0.38,0.54c-0.31,1.54-0.56,3.01-0.77,4.4
			c-0.01,0.09-0.04,0.17-0.08,0.25c-0.11,0.24-0.23,0.6-0.34,1.09c-0.18,1.46-0.44,3.65-0.79,6.55c-0.01,0.05-0.02,0.1-0.03,0.15
			c-0.26,0.8-0.59,1.95-0.97,3.45c-0.01,0.02-0.01,0.04-0.01,0.07c-0.08,0.53-0.06,1.17,0.07,1.91c-0.27,0.4-0.4,0.58-0.4,0.54
			c0,0.18,0.02,0.27,0.07,0.27c0.04,0,0.09,0.02,0.13,0.07c0,0.45,0.07,1.14,0.2,2.08c0,0.36,0.07,0.89,0.2,1.61
			c0.13,0.04,0.31,0.2,0.54,0.47c-0.04,0.19-0.09,0.45-0.16,0.79c-0.03,0.14-0.02,0.27,0.02,0.41c0.31,0.96,0.76,2.33,1.37,4.11
			c0.03,0.08,0.04,0.16,0.04,0.24c0.02,1.79,0.37,3.56,1.07,5.31c-0.49-0.45-0.85-0.85-1.07-1.21c0,0.04-0.07,0.13-0.2,0.27
			c0.04-0.18,0.07,0.02,0.07,0.6c-0.49-0.54-0.98-0.87-1.47-1.01c-0.09,0.09-0.13,0.18-0.13,0.27c0,0.04-0.2-0.18-0.6-0.67
			c-0.09-0.09-0.18-0.36-0.27-0.8c-0.09-0.13-0.25-0.25-0.47-0.34l-0.54-0.87c-0.22-0.36-0.27-0.65-0.13-0.87
			c-0.18-0.18-0.29-0.27-0.34-0.27c-0.09,0.58-0.05,1.32,0.13,2.21c0.31,1.43,0.47,2.17,0.47,2.21l-0.47,0.47
			c-0.45-0.36-0.78-1.04-1.01-2.04c-0.22-1.01-0.63-1.71-1.21-2.11c-0.05,0.04-0.07,0.13-0.07,0.27s-0.02,0.2-0.07,0.2l-0.27,0.2
			c0.67,0.89,1.01,1.63,1.01,2.21c-0.18,0.22-0.27,0.45-0.27,0.67c-0.05-0.18-0.25-0.47-0.6-0.87c-0.18,0.4-0.2,0.78-0.07,1.14
			c0.13,0.49,0.2,0.78,0.2,0.87c0,0.09-0.13,0.31-0.4,0.67c-0.27,0.36-0.43,0.6-0.47,0.74c-0.18-0.4-0.63-1.05-1.34-1.94
			c-0.09,0.58-0.02,0.89,0.2,0.94c-0.54-0.22-0.8-0.49-0.8-0.8c0,0.22,0.11-0.09,0.34-0.94c0.04-0.13,0.02-0.36-0.07-0.67
			c-0.18,0.18-0.4,0.27-0.67,0.27c0,0.18,0,0.48,0,0.9c0,0.42,0,0.75,0,0.97c-0.18,0.09-0.34,0.13-0.47,0.13
			c-0.45,0-0.92-0.9-1.41-2.71c-0.49-1.81-1.05-2.71-1.68-2.71c-0.18,0-0.31,0.04-0.4,0.13c0.09-0.18,0.13-0.31,0.13-0.4
			c0.22,0,0.54,0.09,0.94,0.27c0.04-0.05,0.07-0.2,0.07-0.47c0,0.4-0.24-0.37-0.72-2.3c-0.01-0.03-0.01-0.06-0.02-0.09
			c-0.35-2.18-0.46-4.44-0.33-6.8c0.04-0.89,0.04-1.34,0-1.34l0.34-0.34c-0.18-0.31-0.27-0.62-0.27-0.94
			c-0.18-0.18-0.36-0.27-0.54-0.27c0,0.05-0.02,0.18-0.07,0.4c-0.05,0.22-0.13,0.34-0.27,0.34c-0.09,0-0.12-0.02-0.1-0.07
			c0.02-0.04-0.03-0.07-0.17-0.07c-0.09,0-0.13,0.05-0.13,0.13c0.18-0.8,0.47-1.21,0.87-1.21c0.13,0,0.22,0.03,0.27,0.1
			c0.04,0.07,0.09,0.1,0.13,0.1c0.13-0.13,0.18-0.54,0.13-1.21c0-0.54,0.22-0.83,0.67-0.87c0.04,0,0.16,0.07,0.34,0.2
			c-0.06,0.15-0.19,0.32-0.38,0.53c-0.21,0.22-0.28,0.53-0.18,0.82c0.06,0.17,0.14,0.4,0.22,0.66c0.09-0.18,0.22-0.34,0.4-0.47
			c0.04-0.09,0.07-0.4,0.07-0.94c0,0.27-0.09-0.29-0.27-1.68c0.04-0.04,0.02-0.11-0.07-0.2c-0.09,0.13-0.27,0.34-0.54,0.6
			c0.22-0.62,0.24-1.12,0.07-1.47c-0.13,0.09-0.29,0.34-0.47,0.74c0.22-0.85,0.34-1.47,0.34-1.88c0,0.27-0.02,0.43-0.07,0.47
			l0.34,0.34c0.13-0.22,0.22-0.78,0.27-1.68c0.13-0.04,0.31-0.16,0.54-0.34c0.09-0.76,0.22-1.92,0.4-3.48
			c0.09-1.97,0.47-4.27,1.14-6.9c0.58-2.19,1.16-4.38,1.74-6.57c-0.09-0.09-0.3-0.08-0.64,0.03c-0.34,0.11-0.55,0.21-0.64,0.3
			c-0.09-0.22-0.4-0.47-0.94-0.74c0,0.13,0.07-0.02,0.2-0.47c-0.04-0.13,0.04-0.29,0.27-0.47c-0.18-0.09-0.34-0.18-0.47-0.27
			c-0.27-0.18-0.54-0.22-0.8-0.13l-0.54-0.34c0-0.09,0-0.18,0-0.27h-1.01c0-0.04,0.09-0.16,0.27-0.34c0.04-0.18-0.11-0.36-0.47-0.54
			l-0.47,0.47c-0.09,0-0.2-0.04-0.34-0.13c-0.18,0.18-0.27,0.42-0.27,0.74c-0.13-0.36-0.09-0.62,0.13-0.8
			c-0.04-0.09-0.11-0.13-0.2-0.13c0.71-0.58,0.98-1.05,0.8-1.41c0,0.13,0.16,0.31,0.47,0.54c0.63-0.41,1.06-0.7,1.29-0.85
			c0.14-0.1,0.31-0.15,0.49-0.15c0.62,0.02,1.1,0.11,1.44,0.26c0.36-0.31,0.54-0.62,0.54-0.94c0-0.09-0.22-0.36-0.67-0.8
			c-0.27,0.22-0.63,0.56-1.07,1.01c-0.18-0.22-0.34-0.34-0.47-0.34c0.18-0.67,0.4-1.14,0.67-1.41c0.04-0.04,0.11-0.11,0.2-0.2
			c-0.13-0.18-0.2-0.31-0.2-0.4c0.09,0.09,0.29,0.29,0.6,0.6c0.4-0.22,0.85-0.34,1.34-0.34h0.34c0.13-0.22,0.24-0.45,0.34-0.67
			c0.13-0.36,0.11-0.54-0.07-0.54c0-0.04,0.08-0.2,0.23-0.47c0.16-0.27,0.23-0.49,0.23-0.67c0-0.22-0.05-0.38-0.13-0.47
			c-0.05,0-0.11,0.08-0.2,0.23c-0.09,0.16-0.13,0.28-0.13,0.37c-0.18-0.18-0.27-0.31-0.27-0.4c0-0.31,0.24-0.67,0.74-1.07
			c0.04,0.05,0.02,0.16-0.07,0.34c-0.05,0.18-0.05,0.31,0,0.4c0.27-0.13,0.62-0.45,1.07-0.94l-0.47-0.07v0.4c0-0.09,0-0.29,0-0.6
			c0.04-0.31,0.07-0.51,0.07-0.6c0-0.31-0.29-0.58-0.87-0.8c0.18-0.09,0.45-0.24,0.8-0.47c0,0.22,0.09,0.43,0.27,0.6
			c0.22-0.49,0.62-0.74,1.21-0.74c0.09,0,0.29,0.13,0.6,0.4c0.13-0.18,0.39-0.47,0.77-0.87c0.38-0.4,0.79-0.6,1.24-0.6
			c0.13,0,0.2,0.02,0.2,0.07c0,0.05,0.07,0.07,0.2,0.07c0.18,0,0.38-0.22,0.6-0.67c0.04,0,0.13,0.02,0.27,0.07
			c0.13,0.05,0.27,0.07,0.4,0.07c-0.09,0,0.29-0.16,1.14-0.47c0-0.13-0.16-0.2-0.47-0.2c0.09-0.09,0.09-0.31,0-0.67
			c-0.05-0.36-0.18-0.6-0.4-0.74l-0.27,0.27c-0.09,0-0.2-0.04-0.34-0.13c-0.05,0.05-0.1,0.13-0.17,0.27
			c-0.07,0.13-0.12,0.22-0.17,0.27c0.27,0.27,0.4,0.51,0.4,0.74c-0.18-0.22-0.45-0.49-0.8-0.8c-0.13,0.27-0.45,0.58-0.94,0.94
			c0.4,0.22,0.69,0.31,0.87,0.27c-0.22,0-0.34,0.13-0.34,0.4c-0.18-0.22-0.34-0.34-0.47-0.34s-0.25,0.02-0.34,0.07
			c-0.09,0.05-0.16,0.07-0.2,0.07l0.34-0.34c0-0.18-0.16-0.27-0.47-0.27c0.04-0.04,0.09-0.12,0.13-0.23
			c0.04-0.11,0.11-0.19,0.2-0.23c-0.09-0.04-0.2-0.07-0.34-0.07c-0.22,0-0.34,0.07-0.34,0.2c0,0.09,0.09-0.11,0.27-0.6
			c1.83-0.4,2.81-0.6,2.95-0.6c0.36,0,0.89,0.1,1.61,0.3c0.71,0.2,1.12,0.39,1.21,0.57c0.18-0.18,0.16-0.36-0.07-0.54
			c0.98,0.22,1.83,0.67,2.55,1.34l-0.47,0.34c0.09-0.36-0.09-0.65-0.54-0.87c-0.05,0.05-0.07,0.18-0.07,0.4
			c0,0.18,0.13,0.5,0.4,0.97c0.27,0.47,0.49,0.7,0.67,0.7c0.13,0,0.24-0.02,0.34-0.07c0.09-0.04,0.16-0.07,0.2-0.07
			c-0.05,0.18,0.02,0.45,0.2,0.8c0.11,0.21,0.23,0.38,0.36,0.49c0.19,0.16,0.31,0.38,0.31,0.63L234.77,17.59z M216.54,48.88h-0.27
			v-0.4h0.27V48.88z M217.48,40.7c-0.45,1.92-0.72,3.57-0.8,4.96l-0.17-0.67c-0.02-0.1-0.03-0.19-0.02-0.28
			c0.06-0.51,0.32-2.11,0.79-4.81C217.41,39.99,217.48,40.26,217.48,40.7z M219.49,31.19l-0.34,0.87l-0.2-0.07l0.34-0.8H219.49z
			 M220.43,25.69c-0.09,0-0.36,0.05-0.8,0.13v0.74h0.54C220.34,26.16,220.43,25.87,220.43,25.69z M220.29,19.26h-0.54v-0.27h0.54
			V19.26z M221.77,24.82c-0.22,0.22-0.65,0.47-1.27,0.74v0.54c0.18,0,0.27,0.07,0.27,0.2c-0.27,0.27-0.4,0.51-0.4,0.74l0.34-0.34
			c0.36,0.36,0.54,0.43,0.54,0.2C221.19,26.85,221.37,26.16,221.77,24.82z M221.97,23.01l-0.13-0.2l-0.4,0.4l0.2,0.13L221.97,23.01z
			 M223.58,47.67l-0.54-2.01c-0.22,0.49-0.34,0.85-0.34,1.07c0,0.36,0.18,0.63,0.54,0.8c-0.04,0.04-0.07,0.2-0.07,0.47L223.58,47.67
			z M226.79,33.53c-0.4,0.85-1.1,3.82-2.08,8.91c-0.09,0.31-0.27,0.51-0.54,0.6c0,0.89-0.07,1.74-0.2,2.55
			c-0.05,0.05-0.05,0.67,0,1.88c0,0.85-0.16,1.43-0.47,1.74c-0.05-0.27-0.18-0.63-0.4-1.07c-0.13,0.09-0.22,0.2-0.27,0.34
			c-0.05,0.98-0.05,2.3,0,3.95c0.31-0.13,0.62-0.38,0.94-0.74l0.34,0.34c0-0.62-0.05-1.07-0.13-1.34c0.13,0.27,0.11,0.56-0.07,0.87
			c-0.18,0-0.29-0.04-0.34-0.13v-1.68c0.09-0.13,0.27-0.25,0.54-0.34c0.31-1.7,0.6-3.42,0.87-5.16c0-0.19-0.02-0.4-0.05-0.62
			c-0.01-0.08-0.01-0.16,0-0.23c0.08-0.49,0.33-2.07,0.78-4.71c0.01-0.04,0.02-0.08,0.03-0.12c0.17-0.49,0.34-1.21,0.52-2.16
			C226.39,35.7,226.57,34.74,226.79,33.53z M223.18,44.05c-0.27,0.27-0.36,0.49-0.27,0.67c0.04,0.09,0.11,0.2,0.2,0.34
			C223.24,44.52,223.26,44.19,223.18,44.05z M223.44,50.49h-0.2v-0.4h0.2V50.49z M224.58,53.5c-0.31-0.18-0.6-0.51-0.87-1.01h0.6
			c0,0.09,0.04,0.25,0.13,0.47C224.54,53.19,224.58,53.37,224.58,53.5z M229.34,12.89l-0.34-0.4c-0.22,0.13-0.49,0.2-0.8,0.2
			c0,0.18,0.09,0.36,0.27,0.54h0.67C229.14,13.14,229.21,13.03,229.34,12.89z M229.07,47.67h-0.27v-0.54h0.27V47.67z M231.89,12.22
			v-0.74h-0.27v0.74H231.89z M233.96,12.76h-0.2l-0.2-0.34l0.2-0.07L233.96,12.76z"/>
	</g>
</g>
</svg>
