<?xml version="1.0" encoding="utf-8"?>
<!-- Generator: Adobe Illustrator 25.4.1, SVG Export Plug-In . SVG Version: 6.00 Build 0)  -->
<svg version="1.1" id="Layer_1" xmlns="http://www.w3.org/2000/svg" xmlns:xlink="http://www.w3.org/1999/xlink" x="0px" y="0px"
	 viewBox="0 0 561.58 158.17" style="enable-background:new 0 0 561.58 158.17;" xml:space="preserve">
<style type="text/css">
	.st0{fill:#023936;}
</style>
<g>
	<g>
		<path class="st0" d="M251.31,85.68h10.54l4.87,53.5h0.2l5.17-53.5h11.93l5.17,53.5h0.2l4.87-53.5h9.45l-7.06,69.62h-13.62
			l-4.97-46.94h-0.2l-4.97,46.94h-14.52L251.31,85.68z"/>
		<path class="st0" d="M313.09,85.68h29.84v9.95h-18.9v18.4h15.02v9.95h-15.02v21.38h18.9v9.95h-29.84V85.68z"/>
		<path class="st0" d="M352.63,85.68h10.94v59.67h18v9.95h-28.94V85.68z"/>
		<path class="st0" d="M394.39,151.81c-2.75-2.98-4.13-7.19-4.13-12.63v-37.39c0-5.44,1.38-9.65,4.13-12.63
			c2.75-2.99,6.74-4.48,11.98-4.48c5.24,0,9.23,1.49,11.98,4.48c2.75,2.98,4.13,7.19,4.13,12.63v7.36h-10.34v-8.06
			c0-4.31-1.83-6.46-5.47-6.46c-3.65,0-5.47,2.16-5.47,6.46v38.89c0,4.24,1.82,6.36,5.47,6.36c3.64,0,5.47-2.12,5.47-6.36v-10.64
			h10.34v9.85c0,5.44-1.38,9.65-4.13,12.63c-2.75,2.99-6.75,4.48-11.98,4.48C401.14,156.29,397.14,154.8,394.39,151.81z"/>
		<path class="st0" d="M436.18,151.72c-2.85-3.05-4.28-7.36-4.28-12.93v-36.6c0-5.57,1.42-9.88,4.28-12.93
			c2.85-3.05,6.96-4.57,12.33-4.57c5.37,0,9.48,1.53,12.33,4.57c2.85,3.05,4.28,7.36,4.28,12.93v36.6c0,5.57-1.43,9.88-4.28,12.93
			c-2.85,3.05-6.96,4.57-12.33,4.57C443.14,156.29,439.03,154.77,436.18,151.72z M454.18,139.48v-37.99c0-4.57-1.89-6.86-5.67-6.86
			c-3.78,0-5.67,2.29-5.67,6.86v37.99c0,4.57,1.89,6.86,5.67,6.86C452.29,146.34,454.18,144.06,454.18,139.48z"/>
		<path class="st0" d="M475.5,85.68h15.61l6.96,49.83h0.2l6.96-49.83h15.61v69.62h-10.34v-52.71h-0.2l-7.96,52.71h-9.15l-7.96-52.71
			h-0.2v52.71h-9.55V85.68z"/>
		<path class="st0" d="M531.74,85.68h29.84v9.95h-18.9v18.4h15.02v9.95h-15.02v21.38h18.9v9.95h-29.84V85.68z"/>
	</g>
	<g>
		<g>
			<path class="st0" d="M18.53,39.2L0,19.72h7.7l14.9,15.79l14.96-15.79h7.7L26.45,39.53l18.19,19.25h-7.53L22.32,43.16L7.59,58.79
				H0L18.53,39.2z"/>
			<path class="st0" d="M54.16,19.72h6.25v39.06h-6.25V19.72z"/>
			<path class="st0" d="M72.32,19.72h6.36l31.19,31.47V19.72h6.25v39.06h-6.42L78.57,27.37v31.42h-6.25V19.72z"/>
			<path class="st0" d="M144.88,39.26c0-12.28,9.43-20.42,23.55-20.42c14.12,0,23.55,7.14,23.55,17.91h-6.36
				c-0.28-7.92-7.14-12.72-17.19-12.72c-10.38,0-17.3,5.8-17.3,15.23c0,9.38,6.92,15.24,17.3,15.24c10.1,0,16.96-4.86,17.19-12.72
				h6.36c0,10.77-9.43,17.91-23.55,17.91C154.31,59.68,144.88,51.53,144.88,39.26z"/>
			<path class="st0" d="M201.75,19.72H208v16.35h27.96V19.72h6.25v39.06h-6.25V41.27H208v17.52h-6.25V19.72z"/>
			<path class="st0" d="M274.39,19.72h8.32l24,39.06h-7.03l-5.41-9.1h-31.47l-5.36,9.1h-7.09L274.39,19.72z M291.19,44.5
				l-12.61-21.54L265.91,44.5H291.19z"/>
			<path class="st0" d="M309.72,39.26c0-12.28,9.43-20.42,24.67-20.42c15.29,0,24.72,8.15,24.72,20.42s-9.43,20.42-24.72,20.42
				C319.15,59.68,309.72,51.53,309.72,39.26z M352.85,39.26c0-9.43-7.42-15.23-18.47-15.23c-10.99,0-18.42,5.8-18.42,15.23
				c0,9.38,7.42,15.24,18.42,15.24C345.43,54.49,352.85,48.63,352.85,39.26z"/>
		</g>
		<g>
			<line class="st0" x1="264.19" y1="0.94" x2="293.85" y2="9.84"/>
			
				<rect x="278.04" y="-10.09" transform="matrix(0.2874 -0.9578 0.9578 0.2874 193.6811 271.0935)" class="st0" width="1.97" height="30.96"/>
		</g>
	</g>
</g>
</svg>
